<svg width="33" height="35" viewBox="0 0 33 35" fill="none" xmlns="http://www.w3.org/2000/svg"><path d="M28.75 0c-.689 0-1.253.557-1.253 1.252v4.563c-6.43-6.232-16.7-6.064-22.934.374A16.24 16.24 0 000 17.497a1.252 1.252 0 002.505 0c0-7.595 6.16-13.747 13.756-13.747 3.86 0 7.537 1.618 10.138 4.467l-5.538 1.846c-.66.22-1.01.93-.79 1.582.219.652.93 1.01 1.581.79l7.5-2.497a1.25 1.25 0 00.858-1.186v-7.5A1.258 1.258 0 0028.75 0zm2.506 16.252c-.689 0-1.253.556-1.253 1.252 0 7.595-6.16 13.746-13.756 13.746-3.86 0-7.537-1.618-10.138-4.467l5.538-1.846c.66-.22 1.01-.93.791-1.582a1.248 1.248 0 00-1.582-.79l-7.5 2.497a1.251 1.251 0 00-.858 1.186v7.5c0 .688.557 1.252 1.253 1.252.696 0 1.252-.556 1.252-1.252v-4.563c6.439 6.233 16.708 6.064 22.934-.373a16.18 16.18 0 004.564-11.316c0-.688-.557-1.244-1.245-1.244z" fill="#1E91CF"/></svg>