<svg fill="none" height="28" viewBox="0 0 19 28" width="19" xmlns="http://www.w3.org/2000/svg">
    <path clip-rule="evenodd"
          d="M11.3639 0.763636C11.7574 1.18347 12.0835 1.87074 12.0893 2.29091C12.0947 2.71074 12.3092 3.35118 12.5661 3.71331C12.8226 4.07578 13.0327 4.77765 13.0327 5.27282C13.0327 5.76834 12.7501 6.44679 12.4046 6.78075C12.0591 7.11438 11.8455 7.50739 11.93 7.65333C12.0146 7.79961 12.6392 7.68625 13.3178 7.4015C14.4011 6.94739 14.5772 6.71491 14.7591 5.49988C14.8732 4.73862 15.1936 3.60436 15.4714 2.97954C15.7492 2.35438 16.2562 1.68339 16.5979 1.4879C16.9396 1.29275 17.2912 1.2096 17.3793 1.30327C17.467 1.39728 17.2137 1.94371 16.816 2.51796C16.3096 3.24902 16.0512 4.18303 15.9527 5.63699L15.8118 7.71239L14.1046 8.51845C12.8979 9.08829 12.397 9.51525 12.397 9.97411C12.397 10.4723 12.7654 10.7177 13.9806 11.0289C14.8512 11.2519 16.1431 11.8822 16.8506 12.4296C17.5582 12.9767 18.3732 13.9532 18.6619 14.599C18.9502 15.2449 19.0796 15.887 18.9492 16.0265C18.8186 16.1657 18.2045 15.6271 17.5843 14.8298C16.9638 14.0326 15.9345 13.0959 15.2963 12.7483C14.6583 12.4008 13.6484 12.0631 13.0518 11.9976C12.0848 11.8917 11.9217 11.9976 11.5479 12.9757C11.1468 14.0244 11.1633 14.0821 11.9224 14.2854C12.3594 14.4025 13.074 14.9517 13.5105 15.5056C13.9469 16.0594 14.3042 16.802 14.3042 17.156C14.3042 17.6417 14.7219 17.9288 16.0105 18.329L17.7168 18.8584L18.1005 21.3984C18.4607 23.781 18.4387 24.0644 17.7467 25.9691C17.3411 27.086 16.9012 28 16.7693 28C16.6374 28 16.5293 27.8384 16.5293 27.6413C16.5293 27.4437 16.6892 26.6048 16.8843 25.7766C17.0967 24.8762 17.1514 23.3931 17.0204 22.0874C16.8147 20.0371 16.7419 19.8817 15.8233 19.5399C15.2851 19.3397 14.7257 19.1758 14.5801 19.1758C14.4342 19.1758 13.9393 19.9774 13.4799 20.9576C13.0206 21.9377 12.0839 23.541 11.3979 24.5212C10.6531 25.5856 9.90644 26.303 9.54343 26.303C9.16771 26.303 8.44106 25.5662 7.64256 24.3753C6.93149 23.315 6.02937 21.7083 5.63839 20.8048C4.98421 19.2942 4.85261 19.1764 4.00358 19.3407C3.49594 19.4388 2.90121 19.6781 2.68219 19.8719C2.46318 20.066 2.18822 21.1069 2.07093 22.1855C1.92725 23.5091 2.01244 24.7785 2.33381 26.0923C2.62116 27.2672 2.68092 27.9925 2.48448 27.9226C2.30552 27.8588 1.82299 26.956 1.4123 25.9161C0.723475 24.172 0.692322 23.8441 1.0121 21.6856C1.20282 20.3986 1.51783 19.1795 1.71237 18.9769C1.90691 18.7739 2.67425 18.424 3.41711 18.1993C4.39265 17.9044 4.76806 17.6135 4.76806 17.152C4.76806 16.8003 5.12535 16.0594 5.56178 15.5056C5.99822 14.9517 6.7004 14.4059 7.12189 14.2929C7.72553 14.1313 7.85077 13.9253 7.7125 13.3226C7.61586 12.9017 7.41052 12.3838 7.25603 12.1717C7.05768 11.8992 6.58278 11.8798 5.64252 12.1052C4.90983 12.281 3.83797 12.7364 3.26072 13.1172C2.68378 13.498 1.83984 14.3299 1.38592 14.9656C0.931679 15.6013 0.434212 16.1212 0.280045 16.1212C0.126194 16.1212 0 15.9396 0 15.718C0 15.496 0.301977 14.8471 0.670708 14.2756C1.03975 13.704 1.84015 12.824 2.44951 12.3203C3.05887 11.8167 4.31509 11.2363 5.24137 11.031C6.70294 10.7072 6.9032 10.567 6.7573 9.97106C6.65335 9.54579 5.9391 8.97731 4.88376 8.47874L3.17871 7.6737V5.90308C3.17871 4.61881 2.95683 3.7279 2.37068 2.66017C1.9263 1.85038 1.71809 1.18788 1.90818 1.18788C2.09826 1.18788 2.59319 1.55035 3.00801 1.99292C3.42283 2.43583 3.91617 3.39055 4.10435 4.11413C4.29253 4.83806 4.44733 5.76766 4.44828 6.18036C4.44987 6.76073 4.73786 7.0224 5.72358 7.3377C6.42417 7.5617 7.07962 7.65707 7.1807 7.54948C7.28146 7.44155 7.06595 7.0353 6.70167 6.64635C6.33739 6.25741 6.03954 5.66313 6.03954 5.32543C6.03954 4.98773 6.24966 4.41518 6.50618 4.0527C6.76302 3.69057 6.97758 2.97377 6.98298 2.46061C6.98871 1.9471 7.31516 1.18347 7.70837 0.763636L8.42357 0L8.52402 0.933333C8.60794 1.70953 8.77832 1.86667 9.53612 1.86667C10.2939 1.86667 10.4643 1.70953 10.5482 0.933333L10.6487 0L11.3639 0.763636Z"
          fill="#1E91CF"
          fill-rule="evenodd"/>
</svg>
