<svg fill="none" height="238" viewBox="0 0 819 238" width="819" xmlns="http://www.w3.org/2000/svg">
    <g mask="url(#mask0_2143_1969)">
        <g opacity="0.4">
            <path
                    d="M438.918 1.57966C438.037 1.66021 437.23 1.12683 436.959 0.28432C436.88 -0.597376 437.413 -1.40503 438.256 -1.67715C439.137 -1.75769 439.944 -1.22431 440.215 -0.381801C440.41 0.576091 439.8 1.49912 438.918 1.57966Z"
                    fill="#D3D4E2"
                    opacity="0.5"/>
            <path
                    d="M328.457 5.32149C327.575 5.40203 326.768 4.86866 326.497 4.02615C326.418 3.14445 326.952 2.33678 327.794 2.06466C328.676 1.98412 329.482 2.51749 329.753 3.36C329.948 4.31789 329.338 5.24094 328.457 5.32149Z"
                    fill="#D3D4E2"
                    opacity="0.5"/>
            <path
                    d="M259.609 63.1083C258.728 63.1888 257.921 62.6555 257.65 61.813C257.571 60.9313 258.105 60.1236 258.947 59.8515C259.829 59.7709 260.635 60.3043 260.906 61.1468C261.101 62.1047 260.452 62.8362 259.609 63.1083Z"
                    fill="#D3D4E2"
                    opacity="0.5"/>
            <path
                    d="M241.913 32.0071C241.032 32.0876 240.225 31.5543 239.954 30.7117C239.874 29.83 240.408 29.0224 241.251 28.7502C242.132 28.6697 242.939 29.2031 243.21 30.0456C243.405 31.0035 242.679 31.8504 241.913 32.0071Z"
                    fill="#D3D4E2"
                    opacity="0.5"/>
            <path
                    d="M153.367 9.11511C152.409 9.31104 151.679 8.66229 151.408 7.81977C151.213 6.86188 151.862 6.1304 152.705 5.85827C153.662 5.66235 154.393 6.31109 154.664 7.15361C154.859 8.11151 154.209 8.84298 153.367 9.11511Z"
                    fill="#D3D4E2"
                    opacity="0.5"/>
            <path
                    d="M283.972 69.5981C283.014 69.7941 282.284 69.1453 282.013 68.3028C281.818 67.3449 282.467 66.6134 283.31 66.3413C284.267 66.1454 284.998 66.7941 285.269 67.6366C285.464 68.5945 284.814 69.326 283.972 69.5981Z"
                    fill="#D3D4E2"
                    opacity="0.5"/>
            <path
                    d="M458.303 33.1337C457.345 33.3296 456.615 32.6809 456.344 31.8384C456.149 30.8805 456.798 30.149 457.641 29.8769C458.598 29.6809 459.329 30.3297 459.6 31.1722C459.795 32.1301 459.261 32.9378 458.303 33.1337Z"
                    fill="#D3D4E2"
                    opacity="0.5"/>
            <path
                    d="M318.251 49.315C317.293 49.5109 316.563 48.8622 316.292 48.0196C316.097 47.0617 316.746 46.3303 317.589 46.0581C318.546 45.8622 319.277 46.511 319.548 47.3535C319.743 48.3114 319.133 49.2344 318.251 49.315Z"
                    fill="#D3D4E2"
                    opacity="0.5"/>
            <path
                    d="M101.741 104.985C100.783 105.181 100.053 104.532 99.7817 103.69C99.5869 102.732 100.236 102 101.079 101.728C102.036 101.532 102.767 102.181 103.038 103.023C103.233 103.981 102.622 104.904 101.741 104.985Z"
                    fill="#D3D4E2"
                    opacity="0.5"/>
            <path
                    d="M96.0761 107.541C95.1184 107.737 94.388 107.088 94.1169 106.245C93.9221 105.288 94.5713 104.556 95.4137 104.284C96.3714 104.088 97.1019 104.737 97.3729 105.579C97.644 106.422 97.0337 107.345 96.0761 107.541Z"
                    fill="#D3D4E2"
                    opacity="0.5"/>
            <path
                    d="M175.21 89.0558C174.252 89.2518 173.407 88.5268 173.251 87.7605C173.056 86.8026 173.782 85.9557 174.548 85.799C175.505 85.6031 176.351 86.328 176.507 87.0943C176.702 88.0522 176.168 88.8599 175.21 89.0558Z"
                    fill="#D3D4E2"
                    opacity="0.5"/>
            <path
                    d="M146.076 6.61597C145.118 6.81189 144.272 6.08696 144.116 5.32064C143.922 4.36275 144.647 3.51589 145.413 3.35915C146.371 3.16322 147.217 3.88816 147.372 4.65447C147.644 5.49698 146.918 6.34384 146.076 6.61597Z"
                    fill="#D3D4E2"
                    opacity="0.5"/>
            <path
                    d="M156.709 -0.448444C155.751 -0.252515 154.905 -0.977482 154.749 -1.7438C154.555 -2.7017 155.28 -3.54856 156.046 -3.7053C157.004 -3.90123 157.85 -3.17626 158.006 -2.40994C158.2 -1.45205 157.59 -0.52899 156.709 -0.448444Z"
                    fill="#D3D4E2"
                    opacity="0.5"/>
            <path
                    d="M215.076 65.8338C214.119 66.0297 213.273 65.3048 213.117 64.5384C212.922 63.5805 213.648 62.7337 214.414 62.5769C215.372 62.381 216.217 63.106 216.373 63.8723C216.644 64.7148 216.034 65.6379 215.076 65.8338Z"
                    fill="#D3D4E2"
                    opacity="0.5"/>
            <path
                    d="M47.4486 19.0115C46.491 19.2075 45.6453 18.4825 45.4895 17.7162C45.2947 16.7583 46.0202 15.9115 46.7863 15.7547C47.744 15.5588 48.5897 16.2837 48.7455 17.05C49.0166 17.8925 48.4063 18.8156 47.4486 19.0115Z"
                    fill="#D3D4E2"
                    opacity="0.5"/>
            <path
                    d="M478.793 50.9921C477.835 51.188 476.989 50.4631 476.833 49.6968C476.639 48.7389 477.364 47.892 478.13 47.7352C479.088 47.5393 479.934 48.2643 480.09 49.0306C480.284 49.9885 479.674 50.9116 478.793 50.9921Z"
                    fill="#D3D4E2"
                    opacity="0.5"/>
            <path
                    d="M295.069 40.2887C294.111 40.4847 293.265 39.7597 293.11 38.9934C292.954 38.2271 293.64 37.1886 294.406 37.0319C295.364 36.8359 296.21 37.5609 296.366 38.3272C296.56 39.2851 296.026 40.0928 295.069 40.2887Z"
                    fill="#D3D4E2"
                    opacity="0.5"/>
            <path
                    d="M16.1255 52.3591C15.1679 52.555 14.3222 51.8301 14.2426 50.9484C14.0478 49.9905 14.7733 49.1436 15.6547 49.0631C16.6124 48.8671 17.4581 49.5921 17.6139 50.3584C17.6172 51.3555 17.0069 52.2785 16.1255 52.3591Z"
                    fill="#D3D4E2"
                    opacity="0.5"/>
            <path
                    d="M26.6954 37.625C25.7377 37.821 24.892 37.096 24.8124 36.2143C24.6176 35.2564 25.3432 34.4095 26.2246 34.329C27.1822 34.1331 28.0279 34.858 28.1074 35.7397C28.187 36.6214 27.4615 37.4683 26.6954 37.625Z"
                    fill="#D3D4E2"
                    opacity="0.5"/>
            <path
                    d="M303.492 2.24726C302.535 2.44319 301.689 1.71822 301.494 0.760326C301.299 -0.197573 302.025 -1.04444 302.982 -1.24037C303.94 -1.4363 304.786 -0.711337 304.981 0.246561C304.984 1.24365 304.374 2.16671 303.492 2.24726Z"
                    fill="#D3D4E2"
                    opacity="0.5"/>
            <path
                    d="M127.843 116.108C126.886 116.303 126.04 115.578 125.845 114.621C125.65 113.663 126.376 112.816 127.334 112.62C128.291 112.424 129.137 113.149 129.332 114.107C129.527 115.065 128.801 115.912 127.843 116.108Z"
                    fill="#D3D4E2"
                    opacity="0.5"/>
            <path
                    d="M223.466 40.8698C222.508 41.0657 221.586 40.4562 221.468 39.3829C221.273 38.425 221.883 37.5019 222.956 37.3822C223.914 37.1863 224.836 37.7958 224.954 38.8691C225.149 39.827 224.424 40.6739 223.466 40.8698Z"
                    fill="#D3D4E2"
                    opacity="0.5"/>
            <path
                    d="M78.1829 63.2097C77.2252 63.4057 76.3033 62.7961 76.1847 61.7228C75.9899 60.7649 76.6002 59.8418 77.6731 59.7221C78.6308 59.5262 79.5528 60.1358 79.6713 61.209C79.7509 62.0908 79.1406 63.0138 78.1829 63.2097Z"
                    fill="#D3D4E2"
                    opacity="0.5"/>
            <path
                    d="M7.78326 91.7808C6.82561 91.9767 5.90366 91.3672 5.78515 90.2939C5.59036 89.336 6.20065 88.413 7.27355 88.2932C8.23121 88.0973 9.15316 88.7068 9.27167 89.7801C9.27493 90.7772 8.66463 91.7002 7.78326 91.7808Z"
                    fill="#D3D4E2"
                    opacity="0.5"/>
            <path
                    d="M534.932 10.6714C533.975 10.8674 533.053 10.2578 532.934 9.18451C532.739 8.22661 533.35 7.30356 534.423 7.18383C535.38 6.9879 536.302 7.59745 536.421 8.67073C536.615 9.62863 535.89 10.4755 534.932 10.6714Z"
                    fill="#D3D4E2"
                    opacity="0.5"/>
            <path
                    d="M78.8326 86.0252C77.8749 86.2211 76.9529 85.6115 76.8344 84.5382C76.6396 83.5803 77.2499 82.6573 78.3228 82.5375C79.2805 82.3416 80.2025 82.9512 80.321 84.0245C80.4005 84.9062 79.714 85.9446 78.8326 86.0252Z"
                    fill="#D3D4E2"
                    opacity="0.5"/>
            <path
                    d="M-0.603868 82.4218C-1.56153 82.6177 -2.48352 82.0082 -2.60203 80.9349C-2.79683 79.977 -2.18653 79.0539 -1.11362 78.9342C-0.155963 78.7383 0.766027 79.3478 0.884539 80.4211C1.07934 81.379 0.353793 82.2259 -0.603868 82.4218Z"
                    fill="#D3D4E2"
                    opacity="0.5"/>
            <path
                    d="M289.655 72.5264C288.697 72.7223 287.66 72.0366 287.541 70.9633C287.423 69.89 288.033 68.9669 289.106 68.8472C290.179 68.7274 291.101 69.337 291.219 70.4103C291.338 71.4836 290.727 72.4067 289.655 72.5264Z"
                    fill="#D3D4E2"
                    opacity="0.5"/>
            <path
                    d="M260.54 66.2105C259.582 66.4064 258.545 65.7206 258.426 64.6474C258.308 63.5741 258.918 62.651 259.991 62.5313C260.949 62.3354 261.986 63.0211 262.104 64.0944C262.108 65.0915 261.497 66.0146 260.54 66.2105Z"
                    fill="#D3D4E2"
                    opacity="0.5"/>
            <path
                    d="M547.652 43.7884C546.695 43.9843 545.657 43.2985 545.539 42.2252C545.344 41.2674 546.031 40.2289 547.104 40.1092C548.061 39.9133 549.099 40.5991 549.217 41.6723C549.336 42.7456 548.725 43.6686 547.652 43.7884Z"
                    fill="#D3D4E2"
                    opacity="0.5"/>
            <path
                    d="M204.731 102.273C203.658 102.393 202.736 101.783 202.618 100.71C202.499 99.6366 203.109 98.7135 204.182 98.5938C205.255 98.4741 206.177 99.0836 206.296 100.157C206.375 101.039 205.689 102.077 204.731 102.273Z"
                    fill="#D3D4E2"
                    opacity="0.5"/>
            <path
                    d="M102.086 23.2982C101.014 23.418 100.092 22.8084 99.8578 21.6589C99.7393 20.5856 100.35 19.6626 101.499 19.4275C102.572 19.3077 103.494 19.9173 103.727 21.0668C103.846 22.1401 103.236 23.0631 102.086 23.2982Z"
                    fill="#D3D4E2"
                    opacity="0.5"/>
            <path
                    d="M515.505 12.7503C514.432 12.87 513.51 12.2604 513.276 11.111C513.157 10.0377 513.768 9.11463 514.917 8.87952C515.99 8.75979 516.912 9.36937 517.146 10.5188C517.264 11.5921 516.578 12.6306 515.505 12.7503Z"
                    fill="#D3D4E2"
                    opacity="0.5"/>
            <path
                    d="M64.7938 13.0683C63.7209 13.188 62.6837 12.5022 62.5651 11.4289C62.4466 10.3557 63.1332 9.31721 64.2061 9.19749C65.2791 9.07776 66.3163 9.76354 66.4348 10.8368C66.5533 11.9101 65.7515 12.8724 64.7938 13.0683Z"
                    fill="#D3D4E2"
                    opacity="0.5"/>
            <path
                    d="M271.521 83.4201C270.372 83.6552 269.411 82.8541 269.177 81.7046C268.943 80.5551 269.745 79.5929 270.894 79.3578C272.043 79.1227 273.004 79.9238 273.238 81.0733C273.357 82.1465 272.594 83.3004 271.521 83.4201Z"
                    fill="#D3D4E2"
                    opacity="0.5"/>
            <path
                    d="M458.871 31.022L439.41 -0.416613C439.14 -0.760585 438.603 -0.95 438.259 -0.68005C437.915 -0.410098 437.725 0.127643 437.995 0.471617L457.456 31.9103C457.725 32.2542 458.262 32.4436 458.606 32.1737C458.874 32.0191 459.064 31.4814 458.871 31.022Z"
                    fill="#D3D4E2"
                    opacity="0.194"/>
            <path
                    d="M260.062 60.9203L242.29 29.9345C242.096 29.4751 241.483 29.4011 241.023 29.5948C240.679 29.8648 240.489 30.4025 240.759 30.7465L258.532 61.7323C258.725 62.1917 259.338 62.2657 259.798 62.0719C260.181 61.9936 260.371 61.4558 260.062 60.9203Z"
                    fill="#D3D4E2"
                    opacity="0.5"/>
            <path
                    d="M328.679 2.9811L264.214 -40.8015C263.753 -41.1063 263.293 -40.9126 262.949 -40.6426C262.644 -40.1811 262.837 -39.7217 263.107 -39.3778L327.572 4.40488C328.033 4.70967 328.492 4.5159 328.721 4.16975C329.142 3.78442 329.14 3.28589 328.679 2.9811Z"
                    fill="#D3D4E2"
                    opacity="0.057169"/>
            <path
                    d="M439.566 0.349549L449.752 -26.0796C449.866 -26.5019 449.749 -27.0767 449.212 -27.2661C448.79 -27.3793 448.215 -27.2617 448.025 -26.724L437.839 -0.294836C437.725 0.127508 438.034 0.66305 438.456 0.776257C438.801 1.00485 439.261 0.811079 439.566 0.349549Z"
                    fill="#D3D4E2"
                    opacity="0.2305"/>
            <path
                    d="M207.689 -24.4479L240.874 30.8228C241.067 31.2822 241.681 31.3562 242.14 31.1625C242.6 30.9687 242.674 30.3548 242.481 29.8954L209.296 -25.3753C209.026 -25.7193 208.489 -25.9087 208.069 -25.5234C207.533 -25.2142 207.419 -24.7919 207.689 -24.4479Z"
                    fill="#D3D4E2"
                    opacity="0.211"/>
            <path
                    d="M263.792 -40.9148L184.044 -34.2774C183.545 -34.2752 183.24 -33.8137 183.242 -33.3151C183.244 -32.8166 183.705 -32.5118 184.203 -32.514L263.951 -39.1514C264.449 -39.1535 264.754 -39.6151 264.753 -40.1136C264.559 -40.573 264.175 -40.9931 263.792 -40.9148Z"
                    fill="#D3D4E2"
                    opacity="0.01"/>
            <path
                    d="M242.445 30.7009L264.639 -39.6913C264.753 -40.1136 264.444 -40.6492 264.022 -40.7624C263.6 -40.8756 263.064 -40.5664 262.951 -40.1441L240.757 30.248C240.644 30.6704 240.952 31.2059 241.374 31.3191C241.872 31.317 242.216 31.047 242.445 30.7009Z"
                    fill="#D3D4E2"
                    opacity="0.095349"/>
            <path
                    d="M327.53 3.21626L282.93 67.4168C282.625 67.8783 282.818 68.3377 283.087 68.6816C283.548 68.9864 284.008 68.7927 284.352 68.5227L328.952 4.32216C329.257 3.86063 329.064 3.4013 328.603 3.09651C328.333 2.75254 327.759 2.87011 327.53 3.21626Z"
                    fill="#D3D4E2"
                    opacity="0.01"/>
            <path
                    d="M207.953 -25.5996L152.593 6.77922C152.133 6.97297 152.059 7.58692 152.252 8.04627C152.445 8.50563 153.059 8.57964 153.518 8.38589L208.879 -23.9929C209.338 -24.1867 209.413 -24.8006 209.219 -25.2599C208.911 -25.7955 208.298 -25.8695 207.953 -25.5996Z"
                    fill="#D3D4E2"
                    opacity="0.2309"/>
            <path
                    d="M153.747 8.03978L184.739 -32.823C185.044 -33.2845 184.851 -33.7439 184.581 -34.0879C184.235 -34.3165 183.737 -34.3143 183.317 -33.9289L152.325 6.93382C152.02 7.39535 152.213 7.85472 152.482 8.1987C152.943 8.50348 153.518 8.38593 153.747 8.03978Z"
                    fill="#D3D4E2"
                    opacity="0.3752"/>
            <path
                    d="M259.147 62.3049L283.509 68.7947C283.931 68.9079 284.467 68.5988 284.581 68.1765C284.694 67.7541 284.386 67.2186 283.964 67.1054L259.601 60.6155C259.179 60.5023 258.644 60.8114 258.53 61.2338C258.34 61.7715 258.61 62.1155 259.147 62.3049Z"
                    fill="#D3D4E2"
                    opacity="0.5"/>
            <path
                    d="M318.86 47.8933L329.065 3.89985C329.179 3.4775 328.87 2.94195 328.372 2.94412C327.95 2.83091 327.414 3.14006 327.301 3.5624L317.095 47.5559C316.982 47.9782 317.29 48.5138 317.788 48.5116C318.21 48.6248 318.746 48.3156 318.86 47.8933Z"
                    fill="#D3D4E2"
                    opacity="0.2505"/>
            <path
                    d="M241.028 31.0906L283.163 68.5662C283.433 68.9102 284.123 68.8689 284.352 68.5227C284.696 68.2528 284.655 67.5626 284.309 67.3341L242.174 29.8584C241.905 29.5144 241.215 29.5558 240.986 29.9019C240.757 30.2481 240.567 30.7858 241.028 31.0906Z"
                    fill="#D3D4E2"
                    opacity="0.2409"/>
            <path
                    d="M329.028 4.2068L348.937 -38.18C349.05 -38.6023 348.934 -39.177 348.511 -39.2903C348.089 -39.4035 347.515 -39.2859 347.401 -38.8636L327.492 3.5232C327.379 3.94555 327.496 4.52028 327.918 4.63349C328.34 4.7467 328.799 4.55295 329.028 4.2068Z"
                    fill="#D3D4E2"
                    opacity="0.1807"/>
            <path
                    d="M317.745 46.8244L259.103 60.6178C258.644 60.8116 258.339 61.2731 258.416 61.6563C258.61 62.1156 259.071 62.4204 259.454 62.342L318.095 48.5486C318.555 48.3549 318.86 47.8933 318.782 47.5102C318.78 47.0116 318.128 46.746 317.745 46.8244Z"
                    fill="#D3D4E2"
                    opacity="0.073931"/>
            <path
                    d="M457.418 32.2171L496.125 64.6073C496.586 64.912 497.046 64.7183 497.39 64.4483C497.618 64.1022 497.617 63.6036 497.271 63.375L458.564 30.9849C458.103 30.6802 457.644 30.8739 457.3 31.1438C457.147 31.3746 457.149 31.8732 457.418 32.2171Z"
                    fill="#D3D4E2"
                    opacity="0.3847"/>
            <path
                    d="M458.949 31.4051L449.751 -26.578C449.749 -27.0765 449.288 -27.3813 448.713 -27.2638C448.215 -27.2616 447.91 -26.8001 448.027 -26.2253L457.225 31.7578C457.227 32.2564 457.688 32.5612 458.262 32.4436C458.645 32.3652 458.95 31.9037 458.949 31.4051Z"
                    fill="#D3D4E2"
                    opacity="0.2913"/>
            <path
                    d="M317.477 46.9789L283.198 67.2622C282.738 67.4559 282.664 68.0698 282.857 68.5292C283.05 68.9885 283.664 69.0626 284.123 68.8688L318.402 48.5855C318.862 48.3918 318.936 47.7779 318.743 47.3185C318.435 46.7829 317.821 46.7089 317.477 46.9789Z"
                    fill="#D3D4E2"
                    opacity="0.4833"/>
            <path
                    d="M214.805 64.9912L259.338 62.2657C259.837 62.2636 260.142 61.802 260.14 61.3035C260.139 60.8049 259.678 60.5002 259.179 60.5023L214.761 63.304C214.263 63.3061 213.958 63.7677 213.96 64.2662C213.846 64.6885 214.307 64.9933 214.805 64.9912Z"
                    fill="#D3D4E2"
                    opacity="0.078552"/>
            <path
                    d="M146.34 5.46424L184.739 -32.8231C185.083 -33.093 185.042 -33.7832 184.773 -34.1271C184.503 -34.4711 183.813 -34.4297 183.469 -34.1598L145.071 4.12754C144.727 4.39749 144.767 5.0876 145.113 5.31619C145.421 5.85174 146.035 5.92577 146.34 5.46424Z"
                    fill="#D3D4E2"
                    opacity="0.068505"/>
            <path
                    d="M156.744 -1.2541L208.763 -24.0692C209.223 -24.2629 209.413 -24.8007 209.219 -25.26C209.026 -25.7194 208.489 -25.9088 208.03 -25.715L156.126 -2.82374C155.667 -2.62999 155.477 -2.09228 155.67 -1.63293C155.939 -1.28895 156.285 -1.06035 156.744 -1.2541Z"
                    fill="#D3D4E2"
                    opacity="0.064052"/>
            <path
                    d="M157.089 -1.52387L184.739 -32.8229C184.967 -33.1691 185.042 -33.783 184.696 -34.0116C184.351 -34.2402 183.737 -34.3142 183.508 -33.9681L155.858 -2.66897C155.629 -2.32283 155.555 -1.7089 156.016 -1.40412C156.17 -1.13634 156.783 -1.06234 157.089 -1.52387Z"
                    fill="#D3D4E2"
                    opacity="0.1329"/>
            <path
                    d="M215.532 64.6429L242.293 30.9317C242.598 30.4702 242.596 29.9716 242.135 29.6669C241.674 29.3621 241.176 29.3642 240.871 29.8258L214.111 63.537C213.805 63.9985 213.807 64.4971 214.268 64.8019C214.537 65.1458 215.112 65.0283 215.532 64.6429Z"
                    fill="#D3D4E2"
                    opacity="0.1188"/>
            <path
                    d="M153.86 7.61741L165.256 -58.9693C165.37 -59.3917 165.062 -59.9272 164.563 -59.925C164.141 -60.0382 163.606 -59.7291 163.607 -59.2305L152.211 7.35615C152.097 7.77849 152.406 8.31406 152.904 8.31189C153.326 8.42509 153.862 8.11595 153.86 7.61741Z"
                    fill="#D3D4E2"
                    opacity="0.018812"/>
            <path
                    d="M100.89 102.765L64.6833 142.998C64.3781 143.46 64.3798 143.958 64.8407 144.263C65.1865 144.492 65.6848 144.489 66.0289 144.22L102.236 103.986C102.541 103.524 102.54 103.026 102.079 102.721C101.618 102.416 101.119 102.418 100.89 102.765Z"
                    fill="#D3D4E2"
                    opacity="0.3511"/>
            <path
                    d="M315.62 111.913L284.425 67.4103C284.155 67.0663 283.618 66.8769 283.198 67.2622C282.854 67.5322 282.664 68.0699 283.048 68.4901L314.244 112.993C314.513 113.337 315.05 113.527 315.471 113.141C315.815 112.871 315.889 112.257 315.62 111.913Z"
                    fill="#D3D4E2"
                    opacity="0.2271"/>
            <path
                    d="M242.444 30.2024L231.524 -15.1561C231.33 -15.6155 230.869 -15.9203 230.486 -15.8419C230.027 -15.6482 229.722 -15.1867 229.8 -14.8035L240.72 30.5551C240.913 31.0145 241.374 31.3192 241.833 31.1255C242.217 31.0471 242.522 30.5856 242.444 30.2024Z"
                    fill="#D3D4E2"
                    opacity="0.011552"/>
            <path
                    d="M153.359 6.62238L146.067 4.1231C145.645 4.00989 145.071 4.12745 144.881 4.66517C144.691 5.2029 144.884 5.66227 145.421 5.85167L152.713 8.35096C153.135 8.46417 153.67 8.15503 153.784 7.73268C153.974 7.19496 153.781 6.73559 153.359 6.62238Z"
                    fill="#D3D4E2"
                    opacity="0.397"/>
            <path
                    d="M155.629 -2.32294L152.287 7.24076C152.174 7.66311 152.291 8.23786 152.828 8.42726C153.25 8.54047 153.825 8.42291 154.015 7.88518L157.356 -1.67854C157.47 -2.10088 157.353 -2.67561 156.816 -2.86502C156.279 -3.05442 155.743 -2.74528 155.629 -2.32294Z"
                    fill="#D3D4E2"
                    opacity="0.3543"/>
            <path
                    d="M101.158 102.61L95.4932 105.166C95.0339 105.36 94.844 105.897 95.0371 106.357C95.2303 106.816 95.7676 107.005 96.2269 106.812L101.892 104.256C102.351 104.062 102.541 103.524 102.348 103.065C102.039 102.529 101.617 102.416 101.158 102.61Z"
                    fill="#D3D4E2"
                    opacity="0.5"/>
            <path
                    d="M66.0289 144.219L96.4559 106.465C96.7611 106.004 96.7595 105.505 96.2985 105.201C95.8375 104.896 95.3392 104.898 95.034 105.359L64.6069 143.113C64.3018 143.575 64.4949 144.034 64.7644 144.378C65.3017 144.568 65.6847 144.489 66.0289 144.219Z"
                    fill="#D3D4E2"
                    opacity="0.3954"/>
            <path
                    d="M317.019 47.6712L313.935 112.458C313.937 112.956 314.321 113.376 314.82 113.374C315.318 113.372 315.662 113.102 315.661 112.603L318.745 47.8171C318.743 47.3185 318.358 46.8984 317.86 46.9005C317.553 46.8635 317.133 47.2489 317.019 47.6712Z"
                    fill="#D3D4E2"
                    opacity="0.194"/>
            <path
                    d="M477.908 50.0756L496.24 64.6835C496.701 64.9883 497.2 64.9861 497.505 64.5246C497.81 64.0631 497.808 63.5645 497.347 63.2598L479.015 48.6518C478.554 48.347 478.095 48.5407 477.75 48.8107C477.445 49.2722 477.638 49.7316 477.908 50.0756Z"
                    fill="#D3D4E2"
                    opacity="0.2465"/>
            <path
                    d="M214.805 64.9912L283.701 68.7556C284.199 68.7534 284.62 68.3681 284.618 67.8695C284.616 67.371 284.232 66.9508 283.849 67.0292L214.953 63.2648C214.455 63.267 214.034 63.6523 214.036 64.1508C213.922 64.5732 214.307 64.9934 214.805 64.9912Z"
                    fill="#D3D4E2"
                    opacity="0.1039"/>
            <path
                    d="M101.7 104.295L175.054 88.2897C175.514 88.0959 175.819 87.6344 175.741 87.2512C175.663 86.8681 175.202 86.5633 174.704 86.5654L101.35 102.571C100.89 102.764 100.585 103.226 100.663 103.609C100.741 103.992 101.202 104.297 101.7 104.295Z"
                    fill="#D3D4E2"
                    opacity="0.01"/>
            <path
                    d="M457.418 32.2171L477.793 49.9992C478.254 50.304 478.752 50.3018 479.057 49.8403C479.286 49.4942 479.284 48.9956 479.015 48.6516L458.64 30.8696C458.295 30.641 457.681 30.5669 457.452 30.9131C457.032 31.2984 457.149 31.8732 457.418 32.2171Z"
                    fill="#D3D4E2"
                    opacity="0.2973"/>
            <path
                    d="M293.874 38.3382L282.777 67.6475C282.664 68.0699 282.857 68.5292 283.394 68.7186C283.816 68.8318 284.275 68.6381 284.504 68.292L295.601 38.9826C295.715 38.5602 295.598 37.9855 295.061 37.7961C294.523 37.6067 294.064 37.8004 293.874 38.3382Z"
                    fill="#D3D4E2"
                    opacity="0.1927"/>
            <path
                    d="M294.491 39.4093L317.673 48.4354C318.095 48.5486 318.631 48.2395 318.745 47.8171C318.858 47.3948 318.665 46.9354 318.319 46.7068L295.137 37.6807C294.715 37.5675 294.256 37.7613 294.066 38.299C293.761 38.7605 294.069 39.2961 294.491 39.4093Z"
                    fill="#D3D4E2"
                    opacity="0.4084"/>
            <path
                    d="M163.568 -59.4221L144.881 4.66533C144.767 5.08768 145.076 5.62324 145.498 5.73645C145.92 5.84965 146.455 5.54053 146.569 5.11818L165.257 -58.9693C165.37 -59.3916 165.062 -59.9272 164.64 -60.0404C164.141 -60.0382 163.682 -59.8445 163.568 -59.4221Z"
                    fill="#D3D4E2"
                    opacity="0.2047"/>
            <path
                    d="M214.378 63.3823L174.512 86.6045C174.168 86.8745 173.978 87.4122 174.248 87.7562C174.517 88.1002 175.054 88.2896 175.398 88.0196L215.265 64.7974C215.609 64.5274 215.799 63.9897 215.529 63.6457C215.26 63.3018 214.722 63.1124 214.378 63.3823Z"
                    fill="#D3D4E2"
                    opacity="0.421"/>
            <path
                    d="M198.389 155.453L175.702 87.0595C175.509 86.6002 175.048 86.2954 174.588 86.4892C174.129 86.6829 173.824 87.1444 174.017 87.6038L196.704 155.998C196.897 156.457 197.358 156.762 197.818 156.568C198.277 156.374 198.582 155.913 198.389 155.453Z"
                    fill="#D3D4E2"
                    opacity="0.126"/>
            <path
                    d="M121.989 49.0593C122.792 48.5955 123.636 48.822 124.175 49.5099C124.638 50.3132 124.41 51.1579 123.722 51.6978C122.919 52.1615 122.075 51.9351 121.536 51.2472C120.997 50.5592 121.3 49.5992 121.989 49.0593Z"
                    fill="#D3D4E2"
                    opacity="0.5"/>
            <path
                    d="M122.107 50.1324L110.496 74.4586C110.267 74.8047 110.384 75.3795 110.921 75.5689C111.267 75.7975 111.841 75.6799 112.031 75.1422L123.643 50.816C123.756 50.3937 123.563 49.9343 123.218 49.7057C122.68 49.5163 122.221 49.7101 122.107 50.1324Z"
                    fill="#D3D4E2"
                    opacity="0.4394"/>
            <path
                    d="M122.417 51.1666L183.303 78.8195C183.725 78.9328 184.184 78.739 184.413 78.3928C184.527 77.9705 184.449 77.5873 183.988 77.2826L123.102 49.6296C122.68 49.5164 122.221 49.7102 121.992 50.0563C121.994 50.5548 122.072 50.938 122.417 51.1666Z"
                    fill="#D3D4E2"
                    opacity="0.01"/>
            <path
                    d="M122.911 49.6688L59.3437 34.3378C58.9217 34.2246 58.5013 34.6099 58.3877 35.0322C58.2741 35.4546 58.5436 35.7986 58.9656 35.9118L122.533 51.2428C122.955 51.356 123.375 50.9706 123.489 50.5483C123.602 50.1259 123.333 49.782 122.911 49.6688Z"
                    fill="#D3D4E2"
                    opacity="0.1633"/>
            <path
                    d="M123.451 50.8553L151.648 10.9634C151.877 10.6173 151.76 10.0426 151.414 9.81396C151.069 9.58537 150.57 9.58755 150.265 10.0491L122.068 49.9409C121.839 50.2871 121.841 50.7856 122.302 51.0904C122.763 51.3952 123.146 51.3168 123.451 50.8553Z"
                    fill="#D3D4E2"
                    opacity="0.3731"/>
            <path
                    d="M151.308 35.7773L122.412 49.671C121.953 49.8648 121.763 50.4025 122.033 50.7465C122.226 51.2058 122.648 51.319 123.107 51.1253L152.002 37.2316C152.462 37.0379 152.652 36.5001 152.382 36.1561C152.113 35.8122 151.691 35.699 151.308 35.7773Z"
                    fill="#D3D4E2"
                    opacity="0.3068"/>
            <path
                    d="M152.964 85.1264L123.448 49.8583C123.178 49.5143 122.68 49.5165 122.336 49.7865C121.992 50.0564 121.994 50.555 122.263 50.8989L151.703 86.2824C151.973 86.6264 152.471 86.6242 152.815 86.3543C153.159 86.0843 153.349 85.5466 152.964 85.1264Z"
                    fill="#D3D4E2"
                    opacity="0.1542"/>
            <path
                    d="M155.934 -2.78447L145.186 4.20374C144.842 4.47369 144.652 5.01141 144.921 5.35538C145.191 5.69936 145.728 5.88877 146.072 5.61882L156.821 -1.36939C157.165 -1.63934 157.355 -2.17709 157.085 -2.52106C156.892 -2.98042 156.278 -3.05442 155.934 -2.78447Z"
                    fill="#D3D4E2"
                    opacity="0.5"/>
            <path
                    d="M293.876 38.8367L313.974 112.649C314.167 113.108 314.628 113.413 315.088 113.22C315.547 113.026 315.776 112.68 315.659 112.105L295.561 38.2924C295.368 37.8331 294.907 37.5283 294.447 37.722C293.988 37.9158 293.798 38.4535 293.876 38.8367Z"
                    fill="#D3D4E2"
                    opacity="0.04304"/>
            <path
                    d="M47.6709 16.6712L-1.76705 -26.7935C-2.11279 -27.0221 -2.72632 -27.0961 -2.95518 -26.75C-3.18404 -26.4038 -3.25869 -25.7899 -2.91295 -25.5613L46.525 17.9034C46.8707 18.132 47.4843 18.206 47.7131 17.8598C48.1335 17.4745 48.1319 16.976 47.6709 16.6712Z"
                    fill="#D3D4E2"
                    opacity="0.1684"/>
            <path
                    d="M-2.14499 -25.2195L64.9178 -30.9579C65.4161 -30.9601 65.7212 -31.4216 65.7196 -31.9201C65.718 -32.4187 65.257 -32.7235 64.7587 -32.7213L-2.30413 -26.9829C-2.80244 -26.9808 -3.10759 -26.5192 -3.10596 -26.0207C-3.02804 -25.6375 -2.64331 -25.2173 -2.14499 -25.2195Z"
                    fill="#D3D4E2"
                    opacity="0.1239"/>
            <path
                    d="M156.553 -1.21487L230.837 -14.1178C231.335 -14.12 231.641 -14.5815 231.524 -15.1562C231.522 -15.6548 231.061 -15.9596 230.486 -15.842L156.202 -2.93909C155.704 -2.93692 155.399 -2.47538 155.516 -1.90064C155.709 -1.44128 156.17 -1.1365 156.553 -1.21487Z"
                    fill="#D3D4E2"
                    opacity="0.083172"/>
            <path
                    d="M215.646 64.2206L231.486 -14.8492C231.485 -15.3477 231.215 -15.6917 230.678 -15.8811C230.256 -15.9943 229.836 -15.609 229.722 -15.1866L213.882 63.8832C213.768 64.3055 214.076 64.8411 214.498 64.9543C215.112 65.0283 215.571 64.8345 215.646 64.2206Z"
                    fill="#D3D4E2"
                    opacity="0.038484"/>
            <path
                    d="M156.668 -1.13869L230.209 -18.6787C230.668 -18.8725 230.973 -19.334 230.895 -19.7172C230.702 -20.1765 230.241 -20.4813 229.858 -20.4029L156.317 -2.86294C155.858 -2.66918 155.553 -2.20764 155.631 -1.82448C155.709 -1.44132 156.17 -1.13652 156.668 -1.13869Z"
                    fill="#D3D4E2"
                    opacity="0.074114"/>
            <path
                    d="M288.433 -54.6364L230.142 -15.572C229.798 -15.302 229.608 -14.7643 229.878 -14.4203C230.147 -14.0764 230.684 -13.887 231.029 -14.1569L289.434 -53.1452C289.778 -53.4151 289.968 -53.9529 289.584 -54.373C289.39 -54.8324 288.777 -54.9064 288.433 -54.6364Z"
                    fill="#D3D4E2"
                    opacity="0.1739"/>
            <path
                    d="M48.0573 17.5899L65.7974 -31.5369C65.911 -31.9593 65.7941 -32.534 65.2569 -32.7234C64.8348 -32.8366 64.2602 -32.7191 64.0703 -32.1813L46.3302 16.9455C46.2166 17.3679 46.3335 17.9426 46.8708 18.132C47.4081 18.3214 47.8674 18.1277 48.0573 17.5899Z"
                    fill="#D3D4E2"
                    opacity="0.3772"/>
            <path
                    d="M27.0719 35.5526L-1.4211 -26.5649C-1.61427 -27.0243 -2.15154 -27.2136 -2.68718 -26.9045C-3.14653 -26.7108 -3.26016 -26.2884 -3.06699 -25.8291L25.426 36.2884C25.6192 36.7477 26.1564 36.9371 26.6921 36.628C27.1514 36.4343 27.265 36.0119 27.0719 35.5526Z"
                    fill="#D3D4E2"
                    opacity="0.023578"/>
            <path
                    d="M46.4829 16.7146L15.0835 50.1777C14.8546 50.5238 14.7799 51.1378 15.1257 51.3664C15.4714 51.595 15.9697 51.5928 16.3138 51.3228L47.7133 17.8598C47.9422 17.5136 48.0168 16.8997 47.6711 16.6711C47.4016 16.3271 46.9033 16.3293 46.4829 16.7146Z"
                    fill="#D3D4E2"
                    opacity="0.4621"/>
            <path
                    d="M41.2433 -49.7611L46.3319 17.444C46.3335 17.9425 46.7945 18.2473 47.2928 18.2451C47.7912 18.243 48.0963 17.7814 48.0947 17.2829L42.9298 -49.8068C42.9281 -50.3053 42.4672 -50.6101 41.9689 -50.6079C41.4705 -50.6058 41.1654 -50.1442 41.2433 -49.7611Z"
                    fill="#D3D4E2"
                    opacity="0.1948"/>
            <path
                    d="M260.424 100.956L215.299 63.4934C214.838 63.1886 214.339 63.1908 214.034 63.6523C213.729 64.1139 213.731 64.6124 214.192 64.9172L259.317 102.38C259.778 102.685 260.352 102.567 260.581 102.221C260.771 101.683 260.77 101.185 260.424 100.956Z"
                    fill="#D3D4E2"
                    opacity="0.1496"/>
            <path
                    d="M526.85 -10.9227L477.827 48.6952C477.522 49.1567 477.523 49.6553 477.984 49.9601C478.445 50.2648 478.944 50.2627 479.249 49.8011L528.196 -9.70135C528.501 -10.1629 528.499 -10.6614 528.038 -10.9662C527.692 -11.1948 527.194 -11.1926 526.85 -10.9227Z"
                    fill="#D3D4E2"
                    opacity="0.046154"/>
            <path
                    d="M26.8834 36.5888L47.7131 17.8599C48.0572 17.5899 48.1319 16.976 47.7472 16.5558C47.4777 16.2118 46.8642 16.1378 46.4438 16.5232L25.6141 35.2521C25.2699 35.522 25.3105 36.2122 25.58 36.5561C26.041 36.8609 26.5393 36.8587 26.8834 36.5888Z"
                    fill="#D3D4E2"
                    opacity="0.5"/>
            <path
                    d="M621.114 -21.2284L590.971 44.9032C590.858 45.3256 590.975 45.9003 591.397 46.0135C591.742 46.2421 592.278 45.933 592.507 45.5868L622.649 -20.5449C622.763 -20.9672 622.646 -21.5419 622.224 -21.6551C621.687 -21.8445 621.227 -21.6508 621.114 -21.2284Z"
                    fill="#D3D4E2"
                    opacity="0.137"/>
            <path
                    d="M27.0361 36.358L65.606 -31.4978C65.9111 -31.9593 65.6027 -32.4949 65.2569 -32.7235C64.9112 -32.9521 64.3366 -32.8345 64.1077 -32.4884L25.5379 35.3674C25.2328 35.829 25.4259 36.2883 25.8869 36.5931C26.2716 37.0133 26.8462 36.8957 27.0361 36.358Z"
                    fill="#D3D4E2"
                    opacity="0.076061"/>
            <path
                    d="M304.099 0.327187L289.814 -54.2206C289.621 -54.68 289.16 -54.9848 288.777 -54.9064C288.317 -54.7127 288.012 -54.2511 288.09 -53.868L302.375 0.679862C302.569 1.13922 303.03 1.44401 303.413 1.36564C303.911 1.36346 304.101 0.825728 304.099 0.327187Z"
                    fill="#D3D4E2"
                    opacity="0.1559"/>
            <path
                    d="M128.032 115.071L175.322 88.1351C175.781 87.9413 175.856 87.3274 175.663 86.8681C175.47 86.4087 174.856 86.3347 174.397 86.5284L127.106 113.465C126.647 113.658 126.572 114.272 126.766 114.732C127.074 115.267 127.611 115.457 128.032 115.071Z"
                    fill="#D3D4E2"
                    opacity="0.1282"/>
            <path
                    d="M137.369 -41.5903L144.767 5.08753C144.769 5.58607 145.23 5.89085 145.804 5.77329C146.303 5.77112 146.608 5.30958 146.491 4.73484L139.093 -41.943C139.091 -42.4415 138.63 -42.7463 138.056 -42.6287C137.673 -42.5504 137.368 -42.0888 137.369 -41.5903Z"
                    fill="#D3D4E2"
                    opacity="0.2182"/>
            <path
                    d="M260.542 102.029L295.41 39.0218C295.523 38.5995 295.406 38.0247 294.984 37.9115C294.639 37.6829 294.179 37.8767 293.95 38.2229L259.083 101.23C258.778 101.692 258.971 102.151 259.432 102.456C259.854 102.569 260.429 102.452 260.542 102.029Z"
                    fill="#D3D4E2"
                    opacity="0.1408"/>
            <path
                    d="M25.6531 35.4437L15.0834 50.1778C14.7782 50.6394 14.9713 51.0987 15.2408 51.4427C15.7018 51.7475 16.1612 51.5537 16.5053 51.2838L27.075 36.5496C27.3802 36.0881 27.187 35.6288 26.9175 35.2848C26.4565 34.98 25.882 35.0976 25.6531 35.4437Z"
                    fill="#D3D4E2"
                    opacity="0.5"/>
            <path
                    d="M302.413 0.372903L293.989 38.4143C293.876 38.8367 294.184 39.3723 294.606 39.4855C295.028 39.5987 295.564 39.2895 295.678 38.8672L304.101 0.825722C304.215 0.403378 303.906 -0.132169 303.484 -0.245376C302.947 -0.434781 302.411 -0.125637 302.413 0.372903Z"
                    fill="#D3D4E2"
                    opacity="0.4366"/>
            <path
                    d="M293.837 38.6451L299.045 95.6486C299.047 96.1471 299.508 96.4519 300.006 96.4497C300.505 96.4476 300.81 95.986 300.808 95.4875L295.6 38.484C295.598 37.9855 295.137 37.6807 294.562 37.7982C294.179 37.8766 293.874 38.3381 293.837 38.6451Z"
                    fill="#D3D4E2"
                    opacity="0.2367"/>
            <path
                    d="M222.463 38.8799L214.073 63.8439C213.96 64.2663 214.268 64.8018 214.69 64.915C215.112 65.0282 215.571 64.8345 215.685 64.4121L224.075 39.4481C224.188 39.0258 223.995 38.5664 223.534 38.2616C223.073 37.9569 222.576 38.4576 222.463 38.8799Z"
                    fill="#D3D4E2"
                    opacity="0.1931"/>
            <path
                    d="M224.151 39.3328L231.601 -14.773C231.6 -15.2716 231.215 -15.6917 230.717 -15.6896C230.219 -15.6874 229.874 -15.4174 229.761 -14.9951L222.31 39.1107C222.312 39.6092 222.505 40.0686 223.118 40.1426C223.617 40.1404 224.037 39.7551 224.151 39.3328Z"
                    fill="#D3D4E2"
                    opacity="0.090734"/>
            <path
                    d="M224.035 39.2565L230.743 -19.4864C230.741 -19.9849 230.472 -20.3289 229.934 -20.5183C229.397 -20.7077 229.092 -20.2461 228.902 -19.7084L222.195 39.0345C222.196 39.533 222.466 39.877 223.003 40.0664C223.617 40.1404 224.037 39.7551 224.035 39.2565Z"
                    fill="#D3D4E2"
                    opacity="0.067283"/>
            <path
                    d="M571.044 58.2593L528.269 -10.8138C527.999 -11.1578 527.462 -11.3472 527.118 -11.0772C526.774 -10.8073 526.584 -10.2696 526.853 -9.92561L569.552 59.2629C569.822 59.6069 570.359 59.7963 570.703 59.5263C571.047 59.2564 571.237 58.7187 571.044 58.2593Z"
                    fill="#D3D4E2"
                    opacity="0.031044"/>
            <path
                    d="M44.0373 -27.6837L46.2167 17.3678C46.2183 17.8664 46.6793 18.1711 47.1776 18.169C47.6759 18.1668 47.9811 17.7053 47.9794 17.2067L45.8001 -27.8448C45.7985 -28.3434 45.3375 -28.6481 44.8392 -28.646C44.4561 -28.5676 44.151 -28.1061 44.0373 -27.6837Z"
                    fill="#D3D4E2"
                    opacity="0.1293"/>
            <path
                    d="M223.195 40.0271L294.721 39.5615C295.22 39.5594 295.64 39.174 295.638 38.6755C295.637 38.1769 295.252 37.7568 294.754 37.7589L223.227 38.2245C222.729 38.2267 222.308 38.612 222.31 39.1105C222.312 39.6091 222.696 40.0293 223.195 40.0271Z"
                    fill="#D3D4E2"
                    opacity="0.082663"/>
            <path
                    d="M222.503 39.5702L259.047 102.036C259.317 102.38 259.854 102.569 260.198 102.299C260.542 102.029 260.656 101.607 260.463 101.148L223.919 38.6819C223.649 38.338 223.112 38.1486 222.768 38.4185C222.424 38.6885 222.234 39.2262 222.503 39.5702Z"
                    fill="#D3D4E2"
                    opacity="0.1265"/>
            <path
                    d="M78.3663 60.6779L26.8024 35.2085C26.3804 35.0953 25.8058 35.2128 25.6922 35.6352C25.5785 36.0575 25.6954 36.6323 26.1175 36.7455L77.6814 62.2148C78.1034 62.3281 78.678 62.2105 78.7916 61.7882C78.9052 61.3658 78.7121 60.9065 78.3663 60.6779Z"
                    fill="#D3D4E2"
                    opacity="0.1264"/>
            <path
                    d="M44.1899 -27.9145L25.4243 35.7899C25.3107 36.2122 25.6191 36.7477 26.0411 36.861C26.4631 36.9742 26.9225 36.7804 27.0361 36.3581L45.8017 -27.3463C45.9153 -27.7686 45.6069 -28.3041 45.1848 -28.4174C44.8391 -28.6459 44.3035 -28.3368 44.1899 -27.9145Z"
                    fill="#D3D4E2"
                    opacity="0.098479"/>
            <path
                    d="M8.27669 90.283L16.6188 50.8613C16.6172 50.3627 16.424 49.9034 15.8105 49.8294C15.3885 49.7162 14.9681 50.1015 14.8545 50.5238L6.51228 89.9455C6.51391 90.4441 6.70707 90.9034 7.32063 90.9774C7.81895 90.9753 8.16307 90.7053 8.27669 90.283Z"
                    fill="#D3D4E2"
                    opacity="0.01"/>
            <path
                    d="M128.257 113.728L78.5967 60.8303C78.3272 60.4863 77.6374 60.5277 77.2933 60.7976C76.9492 61.0676 76.8745 61.6815 77.3355 61.9863L126.996 114.884C127.266 115.228 127.879 115.302 128.299 114.917C128.567 114.762 128.642 114.148 128.257 113.728Z"
                    fill="#D3D4E2"
                    opacity="0.1685"/>
            <path
                    d="M126.92 115L155.595 151.038C155.865 151.382 156.478 151.456 156.823 151.186C157.167 150.916 157.241 150.303 156.972 149.959L128.372 113.804C128.103 113.46 127.489 113.386 127.145 113.656C126.725 114.042 126.535 114.579 126.92 115Z"
                    fill="#D3D4E2"
                    opacity="0.4011"/>
            <path
                    d="M8.20043 90.3986L27.1123 36.2427C27.226 35.8204 27.0328 35.361 26.5718 35.0562C26.1498 34.943 25.6904 35.1368 25.3853 35.5983L6.58859 89.8303C6.47498 90.2527 6.66817 90.712 7.12916 91.0168C7.55118 91.13 8.08682 90.8209 8.20043 90.3986Z"
                    fill="#D3D4E2"
                    opacity="0.013316"/>
            <path
                    d="M535.5 8.55964L528.308 -10.6223C528.114 -11.0816 527.577 -11.271 527.118 -11.0773C526.658 -10.8835 526.545 -10.4612 526.623 -10.078L533.815 9.10389C534.009 9.56324 534.546 9.75264 534.929 9.67427C535.504 9.55671 535.693 9.01899 535.5 8.55964Z"
                    fill="#D3D4E2"
                    opacity="0.1346"/>
            <path
                    d="M197.33 112.967L127.605 113.463C127.106 113.465 126.686 113.85 126.688 114.349C126.689 114.847 127.074 115.267 127.572 115.265L197.297 114.769C197.796 114.767 198.101 114.305 198.099 113.807C198.098 113.308 197.828 112.964 197.33 112.967Z"
                    fill="#D3D4E2"
                    opacity="0.031886"/>
            <path
                    d="M533.97 9.37172L569.552 59.263C569.822 59.607 570.435 59.681 570.78 59.411C571.124 59.1411 571.314 58.6033 571.044 58.2594L535.461 8.3681C535.192 8.02412 534.655 7.83471 534.234 8.22005C533.775 8.4138 533.7 9.02774 533.97 9.37172Z"
                    fill="#D3D4E2"
                    opacity="0.045644"/>
            <path
                    d="M198.177 114.19L224.074 39.448C224.188 39.0257 223.995 38.5663 223.534 38.2616C223.112 38.1484 222.653 38.3421 222.347 38.8036L196.45 113.545C196.336 113.968 196.645 114.503 197.067 114.617C197.489 114.73 197.948 114.536 198.177 114.19Z"
                    fill="#D3D4E2"
                    opacity="0.066493"/>
            <path
                    d="M127.337 113.617L77.4832 130.402C77.0239 130.596 76.7187 131.057 76.9119 131.516C77.1051 131.976 77.566 132.281 78.0254 132.087L127.879 115.302C128.338 115.108 128.644 114.647 128.45 114.188C128.334 113.613 127.796 113.423 127.337 113.617Z"
                    fill="#D3D4E2"
                    opacity="0.3006"/>
            <path
                    d="M78.6358 131.164L78.8289 61.4812C78.8273 60.9827 78.4426 60.5625 77.9443 60.5646C77.4459 60.5668 77.0256 60.9522 77.0272 61.4507L76.834 131.133C76.8357 131.632 77.2204 132.052 77.7187 132.05C78.217 132.048 78.6374 131.662 78.6358 131.164Z"
                    fill="#D3D4E2"
                    opacity="0.1278"/>
            <path
                    d="M7.70377 90.8992L78.1796 62.2128C78.6389 62.019 78.8288 61.4813 78.6356 61.0219C78.4425 60.5626 77.9052 60.3732 77.4459 60.5669L7.0853 89.3296C6.62595 89.5233 6.43606 90.0611 6.62923 90.5204C6.89869 90.8644 7.24442 91.093 7.70377 90.8992Z"
                    fill="#D3D4E2"
                    opacity="0.1408"/>
            <path
                    d="M6.89874 90.8642L77.2967 131.936C77.7577 132.241 78.217 132.048 78.5222 131.586C78.751 131.24 78.6341 130.665 78.1731 130.36L7.77521 89.288C7.31422 88.9833 6.85486 89.177 6.54972 89.6385C6.4361 90.0609 6.553 90.6356 6.89874 90.8642Z"
                    fill="#D3D4E2"
                    opacity="0.072027"/>
            <path
                    d="M79.3633 84.2203L78.7135 61.405C78.7119 60.9064 78.3272 60.4863 77.8289 60.4884C77.3306 60.4906 76.9102 60.8759 76.9118 61.3745L77.4464 84.1136C77.448 84.6121 77.909 84.9169 78.4073 84.9147C78.9446 85.1041 79.365 84.7188 79.3633 84.2203Z"
                    fill="#D3D4E2"
                    opacity="0.01"/>
            <path
                    d="M535.5 8.55966L504.644 -49.4824C504.451 -49.9418 503.837 -50.0158 503.378 -49.822C503.034 -49.5521 502.844 -49.0144 502.998 -48.7466L533.854 9.2955C534.048 9.75486 534.661 9.82886 535.121 9.6351C535.58 9.44135 535.694 9.01902 535.5 8.55966Z"
                    fill="#D3D4E2"
                    opacity="0.1626"/>
            <path
                    d="M77.4854 84.3051L76.834 131.133C76.8356 131.632 77.2967 131.936 77.795 131.934C78.2933 131.932 78.5221 131.586 78.6357 131.164L79.2871 84.3356C79.2855 83.8371 78.9008 83.4169 78.4025 83.4191C77.9042 83.4212 77.599 83.8828 77.4854 84.3051Z"
                    fill="#D3D4E2"
                    opacity="0.1946"/>
            <path
                    d="M-1.64266 81.2374L6.66821 90.7119C6.93766 91.0559 7.55125 91.1299 7.89535 90.86C8.23946 90.59 8.31412 89.9761 8.04466 89.6321L-0.266251 80.1576C-0.535705 79.8136 -1.14925 79.7396 -1.56965 80.125C-1.83747 80.2795 -1.91212 80.8934 -1.64266 81.2374Z"
                    fill="#D3D4E2"
                    opacity="0.3422"/>
            <path
                    d="M78.5938 83.3799L-0.766362 79.6611C-1.26468 79.6633 -1.68505 80.0486 -1.68342 80.5472C-1.68178 81.0457 -1.29709 81.4659 -0.798773 81.4637L78.5614 85.1825C79.0598 85.1803 79.4802 84.795 79.4785 84.2964C79.4006 83.9133 79.0159 83.4931 78.5938 83.3799Z"
                    fill="#D3D4E2"
                    opacity="0.131"/>
            <path
                    d="M259.962 65.331L289.192 71.7229C289.614 71.8361 290.15 71.527 290.34 70.9893C290.453 70.5669 290.145 70.0314 289.607 69.842L260.377 63.4501C259.955 63.3369 259.42 63.646 259.23 64.1837C259.155 64.7976 259.54 65.2178 259.962 65.331Z"
                    fill="#D3D4E2"
                    opacity="0.5"/>
            <path
                    d="M204.919 101.237L260.728 65.1743C261.072 64.9044 261.262 64.3666 261.069 63.9073C260.799 63.5633 260.262 63.3739 259.803 63.5677L204.07 99.5146C203.611 99.7083 203.46 100.438 203.845 100.858C203.846 101.356 204.46 101.43 204.919 101.237Z"
                    fill="#D3D4E2"
                    opacity="0.1622"/>
            <path
                    d="M538.458 92.2644L548.337 42.2514C548.335 41.7528 548.027 41.2173 547.529 41.2195C547.107 41.1063 546.571 41.4154 546.381 41.9531L536.502 91.9661C536.504 92.4646 536.812 93.0002 537.31 92.998C537.809 92.9959 538.344 92.6867 538.458 92.2644Z"
                    fill="#D3D4E2"
                    opacity="0.4438"/>
            <path
                    d="M514.466 11.5658L546.652 42.7956C547.037 43.2157 547.612 43.0982 548.032 42.7129C548.261 42.3667 548.336 41.7528 548.066 41.4088L515.995 10.2553C515.61 9.83511 515.035 9.95268 514.615 10.338C514.156 10.5318 514.081 11.1457 514.466 11.5658Z"
                    fill="#D3D4E2"
                    opacity="0.2739"/>
            <path
                    d="M64.1006 12.1126L101.585 22.3034C102.122 22.4928 102.658 22.1837 102.732 21.5698C102.922 21.0321 102.614 20.4965 102 20.4225L64.5924 10.1162C64.0551 9.92682 63.5585 10.4275 63.4449 10.8499C63.3702 11.4638 63.6786 11.9993 64.1006 12.1126Z"
                    fill="#D3D4E2"
                    opacity="0.2829"/>
            <path
                    d="M336.278 99.2062L271.435 80.5444C270.898 80.355 270.286 80.7795 270.287 81.278C270.097 81.8158 270.406 82.3513 270.943 82.5407L335.786 101.203C336.323 101.392 336.859 101.083 336.934 100.469C337.008 99.855 336.7 99.3194 336.278 99.2062Z"
                    fill="#D3D4E2"
                    opacity="0.2171"/>
            <path
                    d="M316.475 92.0828L271.32 80.4681C270.782 80.2787 270.247 80.5878 270.057 81.1256C269.867 81.6633 270.175 82.1988 270.713 82.3882L315.868 94.003C316.405 94.1924 317.017 93.7679 317.015 93.2693C317.321 92.8078 317.012 92.2722 316.475 92.0828Z"
                    fill="#D3D4E2"
                    opacity="0.5"/>
            <path
                    d="M46.3187 13.4558L54.2745 -26.8846C54.3882 -27.3069 54.0034 -27.7271 53.6967 -27.7641C53.2746 -27.8774 52.9305 -27.6074 52.8169 -27.1851L44.8611 13.1554C44.7475 13.5777 45.0169 13.9217 45.439 14.0349C45.861 14.1481 46.2051 13.8781 46.3187 13.4558Z"
                    fill="#D3D4E2"
                    opacity="0.4438"/>
            <path
                    d="M438.918 1.57966C438.037 1.66021 437.23 1.12683 436.959 0.28432C436.88 -0.597376 437.413 -1.40503 438.256 -1.67715C439.137 -1.75769 439.944 -1.22431 440.215 -0.381801C440.41 0.576091 439.8 1.49912 438.918 1.57966Z"
                    fill="#D3D4E2"
                    opacity="0.5"/>
            <path
                    d="M328.457 5.32149C327.575 5.40203 326.768 4.86866 326.497 4.02615C326.418 3.14445 326.952 2.33678 327.794 2.06466C328.676 1.98412 329.482 2.51749 329.753 3.36C329.948 4.31789 329.338 5.24094 328.457 5.32149Z"
                    fill="#D3D4E2"
                    opacity="0.5"/>
            <path
                    d="M259.609 63.1083C258.728 63.1888 257.921 62.6555 257.65 61.813C257.571 60.9313 258.105 60.1236 258.947 59.8515C259.829 59.7709 260.635 60.3043 260.906 61.1468C261.101 62.1047 260.452 62.8362 259.609 63.1083Z"
                    fill="#D3D4E2"
                    opacity="0.5"/>
            <path
                    d="M241.913 32.0071C241.032 32.0876 240.225 31.5543 239.954 30.7117C239.874 29.83 240.408 29.0224 241.251 28.7502C242.132 28.6697 242.939 29.2031 243.21 30.0456C243.405 31.0035 242.679 31.8504 241.913 32.0071Z"
                    fill="#D3D4E2"
                    opacity="0.5"/>
            <path
                    d="M153.367 9.11511C152.409 9.31104 151.679 8.66229 151.408 7.81977C151.213 6.86188 151.862 6.1304 152.705 5.85827C153.662 5.66235 154.393 6.31109 154.664 7.15361C154.859 8.11151 154.209 8.84298 153.367 9.11511Z"
                    fill="#D3D4E2"
                    opacity="0.5"/>
            <path
                    d="M283.972 69.5981C283.014 69.7941 282.284 69.1453 282.013 68.3028C281.818 67.3449 282.467 66.6134 283.31 66.3413C284.267 66.1454 284.998 66.7941 285.269 67.6366C285.464 68.5945 284.814 69.326 283.972 69.5981Z"
                    fill="#D3D4E2"
                    opacity="0.5"/>
            <path
                    d="M458.303 33.1337C457.345 33.3296 456.615 32.6809 456.344 31.8384C456.149 30.8805 456.798 30.149 457.641 29.8769C458.598 29.6809 459.329 30.3297 459.6 31.1722C459.795 32.1301 459.261 32.9378 458.303 33.1337Z"
                    fill="#D3D4E2"
                    opacity="0.5"/>
            <path
                    d="M318.251 49.315C317.293 49.5109 316.563 48.8622 316.292 48.0196C316.097 47.0617 316.746 46.3303 317.589 46.0581C318.546 45.8622 319.277 46.511 319.548 47.3535C319.743 48.3114 319.133 49.2344 318.251 49.315Z"
                    fill="#D3D4E2"
                    opacity="0.5"/>
            <path
                    d="M101.741 104.985C100.783 105.181 100.053 104.532 99.7817 103.69C99.5869 102.732 100.236 102 101.079 101.728C102.036 101.532 102.767 102.181 103.038 103.023C103.233 103.981 102.622 104.904 101.741 104.985Z"
                    fill="#D3D4E2"
                    opacity="0.5"/>
            <path
                    d="M96.0761 107.541C95.1184 107.737 94.388 107.088 94.1169 106.245C93.9221 105.288 94.5713 104.556 95.4137 104.284C96.3714 104.088 97.1019 104.737 97.3729 105.579C97.644 106.422 97.0337 107.345 96.0761 107.541Z"
                    fill="#D3D4E2"
                    opacity="0.5"/>
            <path
                    d="M175.21 89.0558C174.252 89.2518 173.407 88.5268 173.251 87.7605C173.056 86.8026 173.782 85.9557 174.548 85.799C175.505 85.6031 176.351 86.328 176.507 87.0943C176.702 88.0522 176.168 88.8599 175.21 89.0558Z"
                    fill="#D3D4E2"
                    opacity="0.5"/>
            <path
                    d="M146.076 6.61597C145.118 6.81189 144.272 6.08696 144.116 5.32064C143.922 4.36275 144.647 3.51589 145.413 3.35915C146.371 3.16322 147.217 3.88816 147.372 4.65447C147.644 5.49698 146.918 6.34384 146.076 6.61597Z"
                    fill="#D3D4E2"
                    opacity="0.5"/>
            <path
                    d="M156.709 -0.448444C155.751 -0.252515 154.905 -0.977482 154.749 -1.7438C154.555 -2.7017 155.28 -3.54856 156.046 -3.7053C157.004 -3.90123 157.85 -3.17626 158.006 -2.40994C158.2 -1.45205 157.59 -0.52899 156.709 -0.448444Z"
                    fill="#D3D4E2"
                    opacity="0.5"/>
            <path
                    d="M215.076 65.8338C214.119 66.0297 213.273 65.3048 213.117 64.5384C212.922 63.5805 213.648 62.7337 214.414 62.5769C215.372 62.381 216.217 63.106 216.373 63.8723C216.644 64.7148 216.034 65.6379 215.076 65.8338Z"
                    fill="#D3D4E2"
                    opacity="0.5"/>
            <path
                    d="M47.4486 19.0115C46.491 19.2075 45.6453 18.4825 45.4895 17.7162C45.2947 16.7583 46.0202 15.9115 46.7863 15.7547C47.744 15.5588 48.5897 16.2837 48.7455 17.05C49.0166 17.8925 48.4063 18.8156 47.4486 19.0115Z"
                    fill="#D3D4E2"
                    opacity="0.5"/>
            <path
                    d="M478.793 50.9921C477.835 51.188 476.989 50.4631 476.833 49.6968C476.639 48.7389 477.364 47.892 478.13 47.7352C479.088 47.5393 479.934 48.2643 480.09 49.0306C480.284 49.9885 479.674 50.9116 478.793 50.9921Z"
                    fill="#D3D4E2"
                    opacity="0.5"/>
            <path
                    d="M295.069 40.2887C294.111 40.4847 293.265 39.7597 293.11 38.9934C292.954 38.2271 293.64 37.1886 294.406 37.0319C295.364 36.8359 296.21 37.5609 296.366 38.3272C296.56 39.2851 296.026 40.0928 295.069 40.2887Z"
                    fill="#D3D4E2"
                    opacity="0.5"/>
            <path
                    d="M16.1255 52.3591C15.1679 52.555 14.3222 51.8301 14.2426 50.9484C14.0478 49.9905 14.7733 49.1436 15.6547 49.0631C16.6124 48.8671 17.4581 49.5921 17.6139 50.3584C17.6172 51.3555 17.0069 52.2785 16.1255 52.3591Z"
                    fill="#D3D4E2"
                    opacity="0.5"/>
            <path
                    d="M26.6954 37.625C25.7377 37.821 24.892 37.096 24.8124 36.2143C24.6176 35.2564 25.3432 34.4095 26.2246 34.329C27.1822 34.1331 28.0279 34.858 28.1074 35.7397C28.187 36.6214 27.4615 37.4683 26.6954 37.625Z"
                    fill="#D3D4E2"
                    opacity="0.5"/>
            <path
                    d="M303.492 2.24726C302.535 2.44319 301.689 1.71822 301.494 0.760326C301.299 -0.197573 302.025 -1.04444 302.982 -1.24037C303.94 -1.4363 304.786 -0.711337 304.981 0.246561C304.984 1.24365 304.374 2.16671 303.492 2.24726Z"
                    fill="#D3D4E2"
                    opacity="0.5"/>
            <path
                    d="M127.843 116.108C126.886 116.303 126.04 115.578 125.845 114.621C125.65 113.663 126.376 112.816 127.334 112.62C128.291 112.424 129.137 113.149 129.332 114.107C129.527 115.065 128.801 115.912 127.843 116.108Z"
                    fill="#D3D4E2"
                    opacity="0.5"/>
            <path
                    d="M223.466 40.8698C222.508 41.0657 221.586 40.4562 221.468 39.3829C221.273 38.425 221.883 37.5019 222.956 37.3822C223.914 37.1863 224.836 37.7958 224.954 38.8691C225.149 39.827 224.424 40.6739 223.466 40.8698Z"
                    fill="#D3D4E2"
                    opacity="0.5"/>
            <path
                    d="M78.1829 63.2097C77.2252 63.4057 76.3033 62.7961 76.1847 61.7228C75.9899 60.7649 76.6002 59.8418 77.6731 59.7221C78.6308 59.5262 79.5528 60.1358 79.6713 61.209C79.7509 62.0908 79.1406 63.0138 78.1829 63.2097Z"
                    fill="#D3D4E2"
                    opacity="0.5"/>
            <path
                    d="M7.78326 91.7808C6.82561 91.9767 5.90366 91.3672 5.78515 90.2939C5.59036 89.336 6.20065 88.413 7.27355 88.2932C8.23121 88.0973 9.15316 88.7068 9.27167 89.7801C9.27493 90.7772 8.66463 91.7002 7.78326 91.7808Z"
                    fill="#D3D4E2"
                    opacity="0.5"/>
            <path
                    d="M534.932 10.6714C533.975 10.8674 533.053 10.2578 532.934 9.18451C532.739 8.22661 533.35 7.30356 534.423 7.18383C535.38 6.9879 536.302 7.59745 536.421 8.67073C536.615 9.62863 535.89 10.4755 534.932 10.6714Z"
                    fill="#D3D4E2"
                    opacity="0.5"/>
            <path
                    d="M78.8326 86.0252C77.8749 86.2211 76.9529 85.6115 76.8344 84.5382C76.6396 83.5803 77.2499 82.6573 78.3228 82.5375C79.2805 82.3416 80.2025 82.9512 80.321 84.0245C80.4005 84.9062 79.714 85.9446 78.8326 86.0252Z"
                    fill="#D3D4E2"
                    opacity="0.5"/>
            <path
                    d="M-0.603868 82.4218C-1.56153 82.6177 -2.48352 82.0082 -2.60203 80.9349C-2.79683 79.977 -2.18653 79.0539 -1.11362 78.9342C-0.155963 78.7383 0.766027 79.3478 0.884539 80.4211C1.07934 81.379 0.353793 82.2259 -0.603868 82.4218Z"
                    fill="#D3D4E2"
                    opacity="0.5"/>
            <path
                    d="M289.655 72.5264C288.697 72.7223 287.66 72.0366 287.541 70.9633C287.423 69.89 288.033 68.9669 289.106 68.8472C290.179 68.7274 291.101 69.337 291.219 70.4103C291.338 71.4836 290.727 72.4067 289.655 72.5264Z"
                    fill="#D3D4E2"
                    opacity="0.5"/>
            <path
                    d="M260.54 66.2105C259.582 66.4064 258.545 65.7206 258.426 64.6474C258.308 63.5741 258.918 62.651 259.991 62.5313C260.949 62.3354 261.986 63.0211 262.104 64.0944C262.108 65.0915 261.497 66.0146 260.54 66.2105Z"
                    fill="#D3D4E2"
                    opacity="0.5"/>
            <path
                    d="M547.652 43.7884C546.695 43.9843 545.657 43.2985 545.539 42.2252C545.344 41.2674 546.031 40.2289 547.104 40.1092C548.061 39.9133 549.099 40.5991 549.217 41.6723C549.336 42.7456 548.725 43.6686 547.652 43.7884Z"
                    fill="#D3D4E2"
                    opacity="0.5"/>
            <path
                    d="M204.731 102.273C203.658 102.393 202.736 101.783 202.618 100.71C202.499 99.6366 203.109 98.7135 204.182 98.5938C205.255 98.4741 206.177 99.0836 206.296 100.157C206.375 101.039 205.689 102.077 204.731 102.273Z"
                    fill="#D3D4E2"
                    opacity="0.5"/>
            <path
                    d="M102.086 23.2982C101.014 23.418 100.092 22.8084 99.8578 21.6589C99.7393 20.5856 100.35 19.6626 101.499 19.4275C102.572 19.3077 103.494 19.9173 103.727 21.0668C103.846 22.1401 103.236 23.0631 102.086 23.2982Z"
                    fill="#D3D4E2"
                    opacity="0.5"/>
            <path
                    d="M515.505 12.7503C514.432 12.87 513.51 12.2604 513.276 11.111C513.157 10.0377 513.768 9.11463 514.917 8.87952C515.99 8.75979 516.912 9.36937 517.146 10.5188C517.264 11.5921 516.578 12.6306 515.505 12.7503Z"
                    fill="#D3D4E2"
                    opacity="0.5"/>
            <path
                    d="M64.7938 13.0683C63.7209 13.188 62.6837 12.5022 62.5651 11.4289C62.4466 10.3557 63.1332 9.31721 64.2061 9.19749C65.2791 9.07776 66.3163 9.76354 66.4348 10.8368C66.5533 11.9101 65.7515 12.8724 64.7938 13.0683Z"
                    fill="#D3D4E2"
                    opacity="0.5"/>
            <path
                    d="M271.521 83.4201C270.372 83.6552 269.411 82.8541 269.177 81.7046C268.943 80.5551 269.745 79.5929 270.894 79.3578C272.043 79.1227 273.004 79.9238 273.238 81.0733C273.357 82.1465 272.594 83.3004 271.521 83.4201Z"
                    fill="#D3D4E2"
                    opacity="0.5"/>
            <path
                    d="M458.871 31.022L439.41 -0.416613C439.14 -0.760585 438.603 -0.95 438.259 -0.68005C437.915 -0.410098 437.725 0.127643 437.995 0.471617L457.456 31.9103C457.725 32.2542 458.262 32.4436 458.606 32.1737C458.874 32.0191 459.064 31.4814 458.871 31.022Z"
                    fill="#D3D4E2"
                    opacity="0.194"/>
            <path
                    d="M260.062 60.9203L242.29 29.9345C242.096 29.4751 241.483 29.4011 241.023 29.5948C240.679 29.8648 240.489 30.4025 240.759 30.7465L258.532 61.7323C258.725 62.1917 259.338 62.2657 259.798 62.0719C260.181 61.9936 260.371 61.4558 260.062 60.9203Z"
                    fill="#D3D4E2"
                    opacity="0.5"/>
            <path
                    d="M328.679 2.9811L264.214 -40.8015C263.753 -41.1063 263.293 -40.9126 262.949 -40.6426C262.644 -40.1811 262.837 -39.7217 263.107 -39.3778L327.572 4.40488C328.033 4.70967 328.492 4.5159 328.721 4.16975C329.142 3.78442 329.14 3.28589 328.679 2.9811Z"
                    fill="#D3D4E2"
                    opacity="0.057169"/>
            <path
                    d="M439.566 0.349549L449.752 -26.0796C449.866 -26.5019 449.749 -27.0767 449.212 -27.2661C448.79 -27.3793 448.215 -27.2617 448.025 -26.724L437.839 -0.294836C437.725 0.127508 438.034 0.66305 438.456 0.776257C438.801 1.00485 439.261 0.811079 439.566 0.349549Z"
                    fill="#D3D4E2"
                    opacity="0.2305"/>
            <path
                    d="M207.689 -24.4479L240.874 30.8228C241.067 31.2822 241.681 31.3562 242.14 31.1625C242.6 30.9687 242.674 30.3548 242.481 29.8954L209.296 -25.3753C209.026 -25.7193 208.489 -25.9087 208.069 -25.5234C207.533 -25.2142 207.419 -24.7919 207.689 -24.4479Z"
                    fill="#D3D4E2"
                    opacity="0.211"/>
            <path
                    d="M263.792 -40.9148L184.044 -34.2774C183.545 -34.2752 183.24 -33.8137 183.242 -33.3151C183.244 -32.8166 183.705 -32.5118 184.203 -32.514L263.951 -39.1514C264.449 -39.1535 264.754 -39.6151 264.753 -40.1136C264.559 -40.573 264.175 -40.9931 263.792 -40.9148Z"
                    fill="#D3D4E2"
                    opacity="0.01"/>
            <path
                    d="M242.445 30.7009L264.639 -39.6913C264.753 -40.1136 264.444 -40.6492 264.022 -40.7624C263.6 -40.8756 263.064 -40.5664 262.951 -40.1441L240.757 30.248C240.644 30.6704 240.952 31.2059 241.374 31.3191C241.872 31.317 242.216 31.047 242.445 30.7009Z"
                    fill="#D3D4E2"
                    opacity="0.095349"/>
            <path
                    d="M327.53 3.21626L282.93 67.4168C282.625 67.8783 282.818 68.3377 283.087 68.6816C283.548 68.9864 284.008 68.7927 284.352 68.5227L328.952 4.32216C329.257 3.86063 329.064 3.4013 328.603 3.09651C328.333 2.75254 327.759 2.87011 327.53 3.21626Z"
                    fill="#D3D4E2"
                    opacity="0.01"/>
            <path
                    d="M207.953 -25.5996L152.593 6.77922C152.133 6.97297 152.059 7.58692 152.252 8.04627C152.445 8.50563 153.059 8.57964 153.518 8.38589L208.879 -23.9929C209.338 -24.1867 209.413 -24.8006 209.219 -25.2599C208.911 -25.7955 208.298 -25.8695 207.953 -25.5996Z"
                    fill="#D3D4E2"
                    opacity="0.2309"/>
            <path
                    d="M153.747 8.03978L184.739 -32.823C185.044 -33.2845 184.851 -33.7439 184.581 -34.0879C184.235 -34.3165 183.737 -34.3143 183.317 -33.9289L152.325 6.93382C152.02 7.39535 152.213 7.85472 152.482 8.1987C152.943 8.50348 153.518 8.38593 153.747 8.03978Z"
                    fill="#D3D4E2"
                    opacity="0.3752"/>
            <path
                    d="M259.147 62.3049L283.509 68.7947C283.931 68.9079 284.467 68.5988 284.581 68.1765C284.694 67.7541 284.386 67.2186 283.964 67.1054L259.601 60.6155C259.179 60.5023 258.644 60.8114 258.53 61.2338C258.34 61.7715 258.61 62.1155 259.147 62.3049Z"
                    fill="#D3D4E2"
                    opacity="0.5"/>
            <path
                    d="M318.86 47.8933L329.065 3.89985C329.179 3.4775 328.87 2.94195 328.372 2.94412C327.95 2.83091 327.414 3.14006 327.301 3.5624L317.095 47.5559C316.982 47.9782 317.29 48.5138 317.788 48.5116C318.21 48.6248 318.746 48.3156 318.86 47.8933Z"
                    fill="#D3D4E2"
                    opacity="0.2505"/>
            <path
                    d="M241.028 31.0906L283.163 68.5662C283.433 68.9102 284.123 68.8689 284.352 68.5227C284.696 68.2528 284.655 67.5626 284.309 67.3341L242.174 29.8584C241.905 29.5144 241.215 29.5558 240.986 29.9019C240.757 30.2481 240.567 30.7858 241.028 31.0906Z"
                    fill="#D3D4E2"
                    opacity="0.2409"/>
            <path
                    d="M329.028 4.2068L348.937 -38.18C349.05 -38.6023 348.934 -39.177 348.511 -39.2903C348.089 -39.4035 347.515 -39.2859 347.401 -38.8636L327.492 3.5232C327.379 3.94555 327.496 4.52028 327.918 4.63349C328.34 4.7467 328.799 4.55295 329.028 4.2068Z"
                    fill="#D3D4E2"
                    opacity="0.1807"/>
            <path
                    d="M317.745 46.8244L259.103 60.6178C258.644 60.8116 258.339 61.2731 258.416 61.6563C258.61 62.1156 259.071 62.4204 259.454 62.342L318.095 48.5486C318.555 48.3549 318.86 47.8933 318.782 47.5102C318.78 47.0116 318.128 46.746 317.745 46.8244Z"
                    fill="#D3D4E2"
                    opacity="0.073931"/>
            <path
                    d="M457.418 32.2171L496.125 64.6073C496.586 64.912 497.046 64.7183 497.39 64.4483C497.618 64.1022 497.617 63.6036 497.271 63.375L458.564 30.9849C458.103 30.6802 457.644 30.8739 457.3 31.1438C457.147 31.3746 457.149 31.8732 457.418 32.2171Z"
                    fill="#D3D4E2"
                    opacity="0.3847"/>
            <path
                    d="M458.949 31.4051L449.751 -26.578C449.749 -27.0765 449.288 -27.3813 448.713 -27.2638C448.215 -27.2616 447.91 -26.8001 448.027 -26.2253L457.225 31.7578C457.227 32.2564 457.688 32.5612 458.262 32.4436C458.645 32.3652 458.95 31.9037 458.949 31.4051Z"
                    fill="#D3D4E2"
                    opacity="0.2913"/>
            <path
                    d="M317.477 46.9789L283.198 67.2622C282.738 67.4559 282.664 68.0698 282.857 68.5292C283.05 68.9885 283.664 69.0626 284.123 68.8688L318.402 48.5855C318.862 48.3918 318.936 47.7779 318.743 47.3185C318.435 46.7829 317.821 46.7089 317.477 46.9789Z"
                    fill="#D3D4E2"
                    opacity="0.4833"/>
            <path
                    d="M214.805 64.9912L259.338 62.2657C259.837 62.2636 260.142 61.802 260.14 61.3035C260.139 60.8049 259.678 60.5002 259.179 60.5023L214.761 63.304C214.263 63.3061 213.958 63.7677 213.96 64.2662C213.846 64.6885 214.307 64.9933 214.805 64.9912Z"
                    fill="#D3D4E2"
                    opacity="0.078552"/>
            <path
                    d="M146.34 5.46424L184.739 -32.8231C185.083 -33.093 185.042 -33.7832 184.773 -34.1271C184.503 -34.4711 183.813 -34.4297 183.469 -34.1598L145.071 4.12754C144.727 4.39749 144.767 5.0876 145.113 5.31619C145.421 5.85174 146.035 5.92577 146.34 5.46424Z"
                    fill="#D3D4E2"
                    opacity="0.068505"/>
            <path
                    d="M156.744 -1.2541L208.763 -24.0692C209.223 -24.2629 209.413 -24.8007 209.219 -25.26C209.026 -25.7194 208.489 -25.9088 208.03 -25.715L156.126 -2.82374C155.667 -2.62999 155.477 -2.09228 155.67 -1.63293C155.939 -1.28895 156.285 -1.06035 156.744 -1.2541Z"
                    fill="#D3D4E2"
                    opacity="0.064052"/>
            <path
                    d="M157.089 -1.52387L184.739 -32.8229C184.967 -33.1691 185.042 -33.783 184.696 -34.0116C184.351 -34.2402 183.737 -34.3142 183.508 -33.9681L155.858 -2.66897C155.629 -2.32283 155.555 -1.7089 156.016 -1.40412C156.17 -1.13634 156.783 -1.06234 157.089 -1.52387Z"
                    fill="#D3D4E2"
                    opacity="0.1329"/>
            <path
                    d="M215.532 64.6429L242.293 30.9317C242.598 30.4702 242.596 29.9716 242.135 29.6669C241.674 29.3621 241.176 29.3642 240.871 29.8258L214.111 63.537C213.805 63.9985 213.807 64.4971 214.268 64.8019C214.537 65.1458 215.112 65.0283 215.532 64.6429Z"
                    fill="#D3D4E2"
                    opacity="0.1188"/>
            <path
                    d="M153.86 7.61741L165.256 -58.9693C165.37 -59.3917 165.062 -59.9272 164.563 -59.925C164.141 -60.0382 163.606 -59.7291 163.607 -59.2305L152.211 7.35615C152.097 7.77849 152.406 8.31406 152.904 8.31189C153.326 8.42509 153.862 8.11595 153.86 7.61741Z"
                    fill="#D3D4E2"
                    opacity="0.018812"/>
            <path
                    d="M100.89 102.765L64.6833 142.998C64.3781 143.46 64.3798 143.958 64.8407 144.263C65.1865 144.492 65.6848 144.489 66.0289 144.22L102.236 103.986C102.541 103.524 102.54 103.026 102.079 102.721C101.618 102.416 101.119 102.418 100.89 102.765Z"
                    fill="#D3D4E2"
                    opacity="0.3511"/>
            <path
                    d="M315.62 111.913L284.425 67.4103C284.155 67.0663 283.618 66.8769 283.198 67.2622C282.854 67.5322 282.664 68.0699 283.048 68.4901L314.244 112.993C314.513 113.337 315.05 113.527 315.471 113.141C315.815 112.871 315.889 112.257 315.62 111.913Z"
                    fill="#D3D4E2"
                    opacity="0.2271"/>
            <path
                    d="M242.444 30.2024L231.524 -15.1561C231.33 -15.6155 230.869 -15.9203 230.486 -15.8419C230.027 -15.6482 229.722 -15.1867 229.8 -14.8035L240.72 30.5551C240.913 31.0145 241.374 31.3192 241.833 31.1255C242.217 31.0471 242.522 30.5856 242.444 30.2024Z"
                    fill="#D3D4E2"
                    opacity="0.011552"/>
            <path
                    d="M153.359 6.62238L146.067 4.1231C145.645 4.00989 145.071 4.12745 144.881 4.66517C144.691 5.2029 144.884 5.66227 145.421 5.85167L152.713 8.35096C153.135 8.46417 153.67 8.15503 153.784 7.73268C153.974 7.19496 153.781 6.73559 153.359 6.62238Z"
                    fill="#D3D4E2"
                    opacity="0.397"/>
            <path
                    d="M155.629 -2.32294L152.287 7.24076C152.174 7.66311 152.291 8.23786 152.828 8.42726C153.25 8.54047 153.825 8.42291 154.015 7.88518L157.356 -1.67854C157.47 -2.10088 157.353 -2.67561 156.816 -2.86502C156.279 -3.05442 155.743 -2.74528 155.629 -2.32294Z"
                    fill="#D3D4E2"
                    opacity="0.3543"/>
            <path
                    d="M101.158 102.61L95.4932 105.166C95.0339 105.36 94.844 105.897 95.0371 106.357C95.2303 106.816 95.7676 107.005 96.2269 106.812L101.892 104.256C102.351 104.062 102.541 103.524 102.348 103.065C102.039 102.529 101.617 102.416 101.158 102.61Z"
                    fill="#D3D4E2"
                    opacity="0.5"/>
            <path
                    d="M66.0289 144.219L96.4559 106.465C96.7611 106.004 96.7595 105.505 96.2985 105.201C95.8375 104.896 95.3392 104.898 95.034 105.359L64.6069 143.113C64.3018 143.575 64.4949 144.034 64.7644 144.378C65.3017 144.568 65.6847 144.489 66.0289 144.219Z"
                    fill="#D3D4E2"
                    opacity="0.3954"/>
            <path
                    d="M317.019 47.6712L313.935 112.458C313.937 112.956 314.321 113.376 314.82 113.374C315.318 113.372 315.662 113.102 315.661 112.603L318.745 47.8171C318.743 47.3185 318.358 46.8984 317.86 46.9005C317.553 46.8635 317.133 47.2489 317.019 47.6712Z"
                    fill="#D3D4E2"
                    opacity="0.194"/>
            <path
                    d="M477.908 50.0756L496.24 64.6835C496.701 64.9883 497.2 64.9861 497.505 64.5246C497.81 64.0631 497.808 63.5645 497.347 63.2598L479.015 48.6518C478.554 48.347 478.095 48.5407 477.75 48.8107C477.445 49.2722 477.638 49.7316 477.908 50.0756Z"
                    fill="#D3D4E2"
                    opacity="0.2465"/>
            <path
                    d="M214.805 64.9912L283.701 68.7556C284.199 68.7534 284.62 68.3681 284.618 67.8695C284.616 67.371 284.232 66.9508 283.849 67.0292L214.953 63.2648C214.455 63.267 214.034 63.6523 214.036 64.1508C213.922 64.5732 214.307 64.9934 214.805 64.9912Z"
                    fill="#D3D4E2"
                    opacity="0.1039"/>
            <path
                    d="M101.7 104.295L175.054 88.2897C175.514 88.0959 175.819 87.6344 175.741 87.2512C175.663 86.8681 175.202 86.5633 174.704 86.5654L101.35 102.571C100.89 102.764 100.585 103.226 100.663 103.609C100.741 103.992 101.202 104.297 101.7 104.295Z"
                    fill="#D3D4E2"
                    opacity="0.01"/>
            <path
                    d="M457.418 32.2171L477.793 49.9992C478.254 50.304 478.752 50.3018 479.057 49.8403C479.286 49.4942 479.284 48.9956 479.015 48.6516L458.64 30.8696C458.295 30.641 457.681 30.5669 457.452 30.9131C457.032 31.2984 457.149 31.8732 457.418 32.2171Z"
                    fill="#D3D4E2"
                    opacity="0.2973"/>
            <path
                    d="M293.874 38.3382L282.777 67.6475C282.664 68.0699 282.857 68.5292 283.394 68.7186C283.816 68.8318 284.275 68.6381 284.504 68.292L295.601 38.9826C295.715 38.5602 295.598 37.9855 295.061 37.7961C294.523 37.6067 294.064 37.8004 293.874 38.3382Z"
                    fill="#D3D4E2"
                    opacity="0.1927"/>
            <path
                    d="M294.491 39.4093L317.673 48.4354C318.095 48.5486 318.631 48.2395 318.745 47.8171C318.858 47.3948 318.665 46.9354 318.319 46.7068L295.137 37.6807C294.715 37.5675 294.256 37.7613 294.066 38.299C293.761 38.7605 294.069 39.2961 294.491 39.4093Z"
                    fill="#D3D4E2"
                    opacity="0.4084"/>
            <path
                    d="M163.568 -59.4221L144.881 4.66533C144.767 5.08768 145.076 5.62324 145.498 5.73645C145.92 5.84965 146.455 5.54053 146.569 5.11818L165.257 -58.9693C165.37 -59.3916 165.062 -59.9272 164.64 -60.0404C164.141 -60.0382 163.682 -59.8445 163.568 -59.4221Z"
                    fill="#D3D4E2"
                    opacity="0.2047"/>
            <path
                    d="M214.378 63.3823L174.512 86.6045C174.168 86.8745 173.978 87.4122 174.248 87.7562C174.517 88.1002 175.054 88.2896 175.398 88.0196L215.265 64.7974C215.609 64.5274 215.799 63.9897 215.529 63.6457C215.26 63.3018 214.722 63.1124 214.378 63.3823Z"
                    fill="#D3D4E2"
                    opacity="0.421"/>
            <path
                    d="M198.389 155.453L175.702 87.0595C175.509 86.6002 175.048 86.2954 174.588 86.4892C174.129 86.6829 173.824 87.1444 174.017 87.6038L196.704 155.998C196.897 156.457 197.358 156.762 197.818 156.568C198.277 156.374 198.582 155.913 198.389 155.453Z"
                    fill="#D3D4E2"
                    opacity="0.126"/>
            <path
                    d="M121.989 49.0593C122.792 48.5955 123.636 48.822 124.175 49.5099C124.638 50.3132 124.41 51.1579 123.722 51.6978C122.919 52.1615 122.075 51.9351 121.536 51.2472C120.997 50.5592 121.3 49.5992 121.989 49.0593Z"
                    fill="#D3D4E2"
                    opacity="0.5"/>
            <path
                    d="M122.107 50.1324L110.496 74.4586C110.267 74.8047 110.384 75.3795 110.921 75.5689C111.267 75.7975 111.841 75.6799 112.031 75.1422L123.643 50.816C123.756 50.3937 123.563 49.9343 123.218 49.7057C122.68 49.5163 122.221 49.7101 122.107 50.1324Z"
                    fill="#D3D4E2"
                    opacity="0.4394"/>
            <path
                    d="M122.417 51.1666L183.303 78.8195C183.725 78.9328 184.184 78.739 184.413 78.3928C184.527 77.9705 184.449 77.5873 183.988 77.2826L123.102 49.6296C122.68 49.5164 122.221 49.7102 121.992 50.0563C121.994 50.5548 122.072 50.938 122.417 51.1666Z"
                    fill="#D3D4E2"
                    opacity="0.01"/>
            <path
                    d="M122.911 49.6688L59.3437 34.3378C58.9217 34.2246 58.5013 34.6099 58.3877 35.0322C58.2741 35.4546 58.5436 35.7986 58.9656 35.9118L122.533 51.2428C122.955 51.356 123.375 50.9706 123.489 50.5483C123.602 50.1259 123.333 49.782 122.911 49.6688Z"
                    fill="#D3D4E2"
                    opacity="0.1633"/>
            <path
                    d="M123.451 50.8553L151.648 10.9634C151.877 10.6173 151.76 10.0426 151.414 9.81396C151.069 9.58537 150.57 9.58755 150.265 10.0491L122.068 49.9409C121.839 50.2871 121.841 50.7856 122.302 51.0904C122.763 51.3952 123.146 51.3168 123.451 50.8553Z"
                    fill="#D3D4E2"
                    opacity="0.3731"/>
            <path
                    d="M151.308 35.7773L122.412 49.671C121.953 49.8648 121.763 50.4025 122.033 50.7465C122.226 51.2058 122.648 51.319 123.107 51.1253L152.002 37.2316C152.462 37.0379 152.652 36.5001 152.382 36.1561C152.113 35.8122 151.691 35.699 151.308 35.7773Z"
                    fill="#D3D4E2"
                    opacity="0.3068"/>
            <path
                    d="M152.964 85.1264L123.448 49.8583C123.178 49.5143 122.68 49.5165 122.336 49.7865C121.992 50.0564 121.994 50.555 122.263 50.8989L151.703 86.2824C151.973 86.6264 152.471 86.6242 152.815 86.3543C153.159 86.0843 153.349 85.5466 152.964 85.1264Z"
                    fill="#D3D4E2"
                    opacity="0.1542"/>
            <path
                    d="M155.934 -2.78447L145.186 4.20374C144.842 4.47369 144.652 5.01141 144.921 5.35538C145.191 5.69936 145.728 5.88877 146.072 5.61882L156.821 -1.36939C157.165 -1.63934 157.355 -2.17709 157.085 -2.52106C156.892 -2.98042 156.278 -3.05442 155.934 -2.78447Z"
                    fill="#D3D4E2"
                    opacity="0.5"/>
            <path
                    d="M293.876 38.8367L313.974 112.649C314.167 113.108 314.628 113.413 315.088 113.22C315.547 113.026 315.776 112.68 315.659 112.105L295.561 38.2924C295.368 37.8331 294.907 37.5283 294.447 37.722C293.988 37.9158 293.798 38.4535 293.876 38.8367Z"
                    fill="#D3D4E2"
                    opacity="0.04304"/>
            <path
                    d="M47.6709 16.6712L-1.76705 -26.7935C-2.11279 -27.0221 -2.72632 -27.0961 -2.95518 -26.75C-3.18404 -26.4038 -3.25869 -25.7899 -2.91295 -25.5613L46.525 17.9034C46.8707 18.132 47.4843 18.206 47.7131 17.8598C48.1335 17.4745 48.1319 16.976 47.6709 16.6712Z"
                    fill="#D3D4E2"
                    opacity="0.1684"/>
            <path
                    d="M-2.14499 -25.2195L64.9178 -30.9579C65.4161 -30.9601 65.7212 -31.4216 65.7196 -31.9201C65.718 -32.4187 65.257 -32.7235 64.7587 -32.7213L-2.30413 -26.9829C-2.80244 -26.9808 -3.10759 -26.5192 -3.10596 -26.0207C-3.02804 -25.6375 -2.64331 -25.2173 -2.14499 -25.2195Z"
                    fill="#D3D4E2"
                    opacity="0.1239"/>
            <path
                    d="M156.553 -1.21487L230.837 -14.1178C231.335 -14.12 231.641 -14.5815 231.524 -15.1562C231.522 -15.6548 231.061 -15.9596 230.486 -15.842L156.202 -2.93909C155.704 -2.93692 155.399 -2.47538 155.516 -1.90064C155.709 -1.44128 156.17 -1.1365 156.553 -1.21487Z"
                    fill="#D3D4E2"
                    opacity="0.083172"/>
            <path
                    d="M215.646 64.2206L231.486 -14.8492C231.485 -15.3477 231.215 -15.6917 230.678 -15.8811C230.256 -15.9943 229.836 -15.609 229.722 -15.1866L213.882 63.8832C213.768 64.3055 214.076 64.8411 214.498 64.9543C215.112 65.0283 215.571 64.8345 215.646 64.2206Z"
                    fill="#D3D4E2"
                    opacity="0.038484"/>
            <path
                    d="M156.668 -1.13869L230.209 -18.6787C230.668 -18.8725 230.973 -19.334 230.895 -19.7172C230.702 -20.1765 230.241 -20.4813 229.858 -20.4029L156.317 -2.86294C155.858 -2.66918 155.553 -2.20764 155.631 -1.82448C155.709 -1.44132 156.17 -1.13652 156.668 -1.13869Z"
                    fill="#D3D4E2"
                    opacity="0.074114"/>
            <path
                    d="M288.433 -54.6364L230.142 -15.572C229.798 -15.302 229.608 -14.7643 229.878 -14.4203C230.147 -14.0764 230.684 -13.887 231.029 -14.1569L289.434 -53.1452C289.778 -53.4151 289.968 -53.9529 289.584 -54.373C289.39 -54.8324 288.777 -54.9064 288.433 -54.6364Z"
                    fill="#D3D4E2"
                    opacity="0.1739"/>
            <path
                    d="M48.0573 17.5899L65.7974 -31.5369C65.911 -31.9593 65.7941 -32.534 65.2569 -32.7234C64.8348 -32.8366 64.2602 -32.7191 64.0703 -32.1813L46.3302 16.9455C46.2166 17.3679 46.3335 17.9426 46.8708 18.132C47.4081 18.3214 47.8674 18.1277 48.0573 17.5899Z"
                    fill="#D3D4E2"
                    opacity="0.3772"/>
            <path
                    d="M27.0719 35.5526L-1.4211 -26.5649C-1.61427 -27.0243 -2.15154 -27.2136 -2.68718 -26.9045C-3.14653 -26.7108 -3.26016 -26.2884 -3.06699 -25.8291L25.426 36.2884C25.6192 36.7477 26.1564 36.9371 26.6921 36.628C27.1514 36.4343 27.265 36.0119 27.0719 35.5526Z"
                    fill="#D3D4E2"
                    opacity="0.023578"/>
            <path
                    d="M46.4829 16.7146L15.0835 50.1777C14.8546 50.5238 14.7799 51.1378 15.1257 51.3664C15.4714 51.595 15.9697 51.5928 16.3138 51.3228L47.7133 17.8598C47.9422 17.5136 48.0168 16.8997 47.6711 16.6711C47.4016 16.3271 46.9033 16.3293 46.4829 16.7146Z"
                    fill="#D3D4E2"
                    opacity="0.4621"/>
            <path
                    d="M41.2433 -49.7611L46.3319 17.444C46.3335 17.9425 46.7945 18.2473 47.2928 18.2451C47.7912 18.243 48.0963 17.7814 48.0947 17.2829L42.9298 -49.8068C42.9281 -50.3053 42.4672 -50.6101 41.9689 -50.6079C41.4705 -50.6058 41.1654 -50.1442 41.2433 -49.7611Z"
                    fill="#D3D4E2"
                    opacity="0.1948"/>
            <path
                    d="M260.424 100.956L215.299 63.4934C214.838 63.1886 214.339 63.1908 214.034 63.6523C213.729 64.1139 213.731 64.6124 214.192 64.9172L259.317 102.38C259.778 102.685 260.352 102.567 260.581 102.221C260.771 101.683 260.77 101.185 260.424 100.956Z"
                    fill="#D3D4E2"
                    opacity="0.1496"/>
            <path
                    d="M526.85 -10.9227L477.827 48.6952C477.522 49.1567 477.523 49.6553 477.984 49.9601C478.445 50.2648 478.944 50.2627 479.249 49.8011L528.196 -9.70135C528.501 -10.1629 528.499 -10.6614 528.038 -10.9662C527.692 -11.1948 527.194 -11.1926 526.85 -10.9227Z"
                    fill="#D3D4E2"
                    opacity="0.046154"/>
            <path
                    d="M26.8834 36.5888L47.7131 17.8599C48.0572 17.5899 48.1319 16.976 47.7472 16.5558C47.4777 16.2118 46.8642 16.1378 46.4438 16.5232L25.6141 35.2521C25.2699 35.522 25.3105 36.2122 25.58 36.5561C26.041 36.8609 26.5393 36.8587 26.8834 36.5888Z"
                    fill="#D3D4E2"
                    opacity="0.5"/>
            <path
                    d="M621.114 -21.2284L590.971 44.9032C590.858 45.3256 590.975 45.9003 591.397 46.0135C591.742 46.2421 592.278 45.933 592.507 45.5868L622.649 -20.5449C622.763 -20.9672 622.646 -21.5419 622.224 -21.6551C621.687 -21.8445 621.227 -21.6508 621.114 -21.2284Z"
                    fill="#D3D4E2"
                    opacity="0.137"/>
            <path
                    d="M27.0361 36.358L65.606 -31.4978C65.9111 -31.9593 65.6027 -32.4949 65.2569 -32.7235C64.9112 -32.9521 64.3366 -32.8345 64.1077 -32.4884L25.5379 35.3674C25.2328 35.829 25.4259 36.2883 25.8869 36.5931C26.2716 37.0133 26.8462 36.8957 27.0361 36.358Z"
                    fill="#D3D4E2"
                    opacity="0.076061"/>
            <path
                    d="M304.099 0.327187L289.814 -54.2206C289.621 -54.68 289.16 -54.9848 288.777 -54.9064C288.317 -54.7127 288.012 -54.2511 288.09 -53.868L302.375 0.679862C302.569 1.13922 303.03 1.44401 303.413 1.36564C303.911 1.36346 304.101 0.825728 304.099 0.327187Z"
                    fill="#D3D4E2"
                    opacity="0.1559"/>
            <path
                    d="M128.032 115.071L175.322 88.1351C175.781 87.9413 175.856 87.3274 175.663 86.8681C175.47 86.4087 174.856 86.3347 174.397 86.5284L127.106 113.465C126.647 113.658 126.572 114.272 126.766 114.732C127.074 115.267 127.611 115.457 128.032 115.071Z"
                    fill="#D3D4E2"
                    opacity="0.1282"/>
            <path
                    d="M137.369 -41.5903L144.767 5.08753C144.769 5.58607 145.23 5.89085 145.804 5.77329C146.303 5.77112 146.608 5.30958 146.491 4.73484L139.093 -41.943C139.091 -42.4415 138.63 -42.7463 138.056 -42.6287C137.673 -42.5504 137.368 -42.0888 137.369 -41.5903Z"
                    fill="#D3D4E2"
                    opacity="0.2182"/>
            <path
                    d="M260.542 102.029L295.41 39.0218C295.523 38.5995 295.406 38.0247 294.984 37.9115C294.639 37.6829 294.179 37.8767 293.95 38.2229L259.083 101.23C258.778 101.692 258.971 102.151 259.432 102.456C259.854 102.569 260.429 102.452 260.542 102.029Z"
                    fill="#D3D4E2"
                    opacity="0.1408"/>
            <path
                    d="M25.6531 35.4437L15.0834 50.1778C14.7782 50.6394 14.9713 51.0987 15.2408 51.4427C15.7018 51.7475 16.1612 51.5537 16.5053 51.2838L27.075 36.5496C27.3802 36.0881 27.187 35.6288 26.9175 35.2848C26.4565 34.98 25.882 35.0976 25.6531 35.4437Z"
                    fill="#D3D4E2"
                    opacity="0.5"/>
            <path
                    d="M302.413 0.372903L293.989 38.4143C293.876 38.8367 294.184 39.3723 294.606 39.4855C295.028 39.5987 295.564 39.2895 295.678 38.8672L304.101 0.825722C304.215 0.403378 303.906 -0.132169 303.484 -0.245376C302.947 -0.434781 302.411 -0.125637 302.413 0.372903Z"
                    fill="#D3D4E2"
                    opacity="0.4366"/>
            <path
                    d="M293.837 38.6451L299.045 95.6486C299.047 96.1471 299.508 96.4519 300.006 96.4497C300.505 96.4476 300.81 95.986 300.808 95.4875L295.6 38.484C295.598 37.9855 295.137 37.6807 294.562 37.7982C294.179 37.8766 293.874 38.3381 293.837 38.6451Z"
                    fill="#D3D4E2"
                    opacity="0.2367"/>
            <path
                    d="M222.463 38.8799L214.073 63.8439C213.96 64.2663 214.268 64.8018 214.69 64.915C215.112 65.0282 215.571 64.8345 215.685 64.4121L224.075 39.4481C224.188 39.0258 223.995 38.5664 223.534 38.2616C223.073 37.9569 222.576 38.4576 222.463 38.8799Z"
                    fill="#D3D4E2"
                    opacity="0.1931"/>
            <path
                    d="M224.151 39.3328L231.601 -14.773C231.6 -15.2716 231.215 -15.6917 230.717 -15.6896C230.219 -15.6874 229.874 -15.4174 229.761 -14.9951L222.31 39.1107C222.312 39.6092 222.505 40.0686 223.118 40.1426C223.617 40.1404 224.037 39.7551 224.151 39.3328Z"
                    fill="#D3D4E2"
                    opacity="0.090734"/>
            <path
                    d="M224.035 39.2565L230.743 -19.4864C230.741 -19.9849 230.472 -20.3289 229.934 -20.5183C229.397 -20.7077 229.092 -20.2461 228.902 -19.7084L222.195 39.0345C222.196 39.533 222.466 39.877 223.003 40.0664C223.617 40.1404 224.037 39.7551 224.035 39.2565Z"
                    fill="#D3D4E2"
                    opacity="0.067283"/>
            <path
                    d="M571.044 58.2593L528.269 -10.8138C527.999 -11.1578 527.462 -11.3472 527.118 -11.0772C526.774 -10.8073 526.584 -10.2696 526.853 -9.92561L569.552 59.2629C569.822 59.6069 570.359 59.7963 570.703 59.5263C571.047 59.2564 571.237 58.7187 571.044 58.2593Z"
                    fill="#D3D4E2"
                    opacity="0.031044"/>
            <path
                    d="M44.0373 -27.6837L46.2167 17.3678C46.2183 17.8664 46.6793 18.1711 47.1776 18.169C47.6759 18.1668 47.9811 17.7053 47.9794 17.2067L45.8001 -27.8448C45.7985 -28.3434 45.3375 -28.6481 44.8392 -28.646C44.4561 -28.5676 44.151 -28.1061 44.0373 -27.6837Z"
                    fill="#D3D4E2"
                    opacity="0.1293"/>
            <path
                    d="M223.195 40.0271L294.721 39.5615C295.22 39.5594 295.64 39.174 295.638 38.6755C295.637 38.1769 295.252 37.7568 294.754 37.7589L223.227 38.2245C222.729 38.2267 222.308 38.612 222.31 39.1105C222.312 39.6091 222.696 40.0293 223.195 40.0271Z"
                    fill="#D3D4E2"
                    opacity="0.082663"/>
            <path
                    d="M222.503 39.5702L259.047 102.036C259.317 102.38 259.854 102.569 260.198 102.299C260.542 102.029 260.656 101.607 260.463 101.148L223.919 38.6819C223.649 38.338 223.112 38.1486 222.768 38.4185C222.424 38.6885 222.234 39.2262 222.503 39.5702Z"
                    fill="#D3D4E2"
                    opacity="0.1265"/>
            <path
                    d="M78.3663 60.6779L26.8024 35.2085C26.3804 35.0953 25.8058 35.2128 25.6922 35.6352C25.5785 36.0575 25.6954 36.6323 26.1175 36.7455L77.6814 62.2148C78.1034 62.3281 78.678 62.2105 78.7916 61.7882C78.9052 61.3658 78.7121 60.9065 78.3663 60.6779Z"
                    fill="#D3D4E2"
                    opacity="0.1264"/>
            <path
                    d="M44.1899 -27.9145L25.4243 35.7899C25.3107 36.2122 25.6191 36.7477 26.0411 36.861C26.4631 36.9742 26.9225 36.7804 27.0361 36.3581L45.8017 -27.3463C45.9153 -27.7686 45.6069 -28.3041 45.1848 -28.4174C44.8391 -28.6459 44.3035 -28.3368 44.1899 -27.9145Z"
                    fill="#D3D4E2"
                    opacity="0.098479"/>
            <path
                    d="M8.27669 90.283L16.6188 50.8613C16.6172 50.3627 16.424 49.9034 15.8105 49.8294C15.3885 49.7162 14.9681 50.1015 14.8545 50.5238L6.51228 89.9455C6.51391 90.4441 6.70707 90.9034 7.32063 90.9774C7.81895 90.9753 8.16307 90.7053 8.27669 90.283Z"
                    fill="#D3D4E2"
                    opacity="0.01"/>
            <path
                    d="M128.257 113.728L78.5967 60.8303C78.3272 60.4863 77.6374 60.5277 77.2933 60.7976C76.9492 61.0676 76.8745 61.6815 77.3355 61.9863L126.996 114.884C127.266 115.228 127.879 115.302 128.299 114.917C128.567 114.762 128.642 114.148 128.257 113.728Z"
                    fill="#D3D4E2"
                    opacity="0.1685"/>
            <path
                    d="M126.92 115L155.595 151.038C155.865 151.382 156.478 151.456 156.823 151.186C157.167 150.916 157.241 150.303 156.972 149.959L128.372 113.804C128.103 113.46 127.489 113.386 127.145 113.656C126.725 114.042 126.535 114.579 126.92 115Z"
                    fill="#D3D4E2"
                    opacity="0.4011"/>
            <path
                    d="M8.20043 90.3986L27.1123 36.2427C27.226 35.8204 27.0328 35.361 26.5718 35.0562C26.1498 34.943 25.6904 35.1368 25.3853 35.5983L6.58859 89.8303C6.47498 90.2527 6.66817 90.712 7.12916 91.0168C7.55118 91.13 8.08682 90.8209 8.20043 90.3986Z"
                    fill="#D3D4E2"
                    opacity="0.013316"/>
            <path
                    d="M535.5 8.55964L528.308 -10.6223C528.114 -11.0816 527.577 -11.271 527.118 -11.0773C526.658 -10.8835 526.545 -10.4612 526.623 -10.078L533.815 9.10389C534.009 9.56324 534.546 9.75264 534.929 9.67427C535.504 9.55671 535.693 9.01899 535.5 8.55964Z"
                    fill="#D3D4E2"
                    opacity="0.1346"/>
            <path
                    d="M197.33 112.967L127.605 113.463C127.106 113.465 126.686 113.85 126.688 114.349C126.689 114.847 127.074 115.267 127.572 115.265L197.297 114.769C197.796 114.767 198.101 114.305 198.099 113.807C198.098 113.308 197.828 112.964 197.33 112.967Z"
                    fill="#D3D4E2"
                    opacity="0.031886"/>
            <path
                    d="M533.97 9.37172L569.552 59.263C569.822 59.607 570.435 59.681 570.78 59.411C571.124 59.1411 571.314 58.6033 571.044 58.2594L535.461 8.3681C535.192 8.02412 534.655 7.83471 534.234 8.22005C533.775 8.4138 533.7 9.02774 533.97 9.37172Z"
                    fill="#D3D4E2"
                    opacity="0.045644"/>
            <path
                    d="M198.177 114.19L224.074 39.448C224.188 39.0257 223.995 38.5663 223.534 38.2616C223.112 38.1484 222.653 38.3421 222.347 38.8036L196.45 113.545C196.336 113.968 196.645 114.503 197.067 114.617C197.489 114.73 197.948 114.536 198.177 114.19Z"
                    fill="#D3D4E2"
                    opacity="0.066493"/>
            <path
                    d="M127.337 113.617L77.4832 130.402C77.0239 130.596 76.7187 131.057 76.9119 131.516C77.1051 131.976 77.566 132.281 78.0254 132.087L127.879 115.302C128.338 115.108 128.644 114.647 128.45 114.188C128.334 113.613 127.796 113.423 127.337 113.617Z"
                    fill="#D3D4E2"
                    opacity="0.3006"/>
            <path
                    d="M78.6358 131.164L78.8289 61.4812C78.8273 60.9827 78.4426 60.5625 77.9443 60.5646C77.4459 60.5668 77.0256 60.9522 77.0272 61.4507L76.834 131.133C76.8357 131.632 77.2204 132.052 77.7187 132.05C78.217 132.048 78.6374 131.662 78.6358 131.164Z"
                    fill="#D3D4E2"
                    opacity="0.1278"/>
            <path
                    d="M7.70377 90.8992L78.1796 62.2128C78.6389 62.019 78.8288 61.4813 78.6356 61.0219C78.4425 60.5626 77.9052 60.3732 77.4459 60.5669L7.0853 89.3296C6.62595 89.5233 6.43606 90.0611 6.62923 90.5204C6.89869 90.8644 7.24442 91.093 7.70377 90.8992Z"
                    fill="#D3D4E2"
                    opacity="0.1408"/>
            <path
                    d="M6.89874 90.8642L77.2967 131.936C77.7577 132.241 78.217 132.048 78.5222 131.586C78.751 131.24 78.6341 130.665 78.1731 130.36L7.77521 89.288C7.31422 88.9833 6.85486 89.177 6.54972 89.6385C6.4361 90.0609 6.553 90.6356 6.89874 90.8642Z"
                    fill="#D3D4E2"
                    opacity="0.072027"/>
            <path
                    d="M79.3633 84.2203L78.7135 61.405C78.7119 60.9064 78.3272 60.4863 77.8289 60.4884C77.3306 60.4906 76.9102 60.8759 76.9118 61.3745L77.4464 84.1136C77.448 84.6121 77.909 84.9169 78.4073 84.9147C78.9446 85.1041 79.365 84.7188 79.3633 84.2203Z"
                    fill="#D3D4E2"
                    opacity="0.01"/>
            <path
                    d="M535.5 8.55966L504.644 -49.4824C504.451 -49.9418 503.837 -50.0158 503.378 -49.822C503.034 -49.5521 502.844 -49.0144 502.998 -48.7466L533.854 9.2955C534.048 9.75486 534.661 9.82886 535.121 9.6351C535.58 9.44135 535.694 9.01902 535.5 8.55966Z"
                    fill="#D3D4E2"
                    opacity="0.1626"/>
            <path
                    d="M77.4854 84.3051L76.834 131.133C76.8356 131.632 77.2967 131.936 77.795 131.934C78.2933 131.932 78.5221 131.586 78.6357 131.164L79.2871 84.3356C79.2855 83.8371 78.9008 83.4169 78.4025 83.4191C77.9042 83.4212 77.599 83.8828 77.4854 84.3051Z"
                    fill="#D3D4E2"
                    opacity="0.1946"/>
            <path
                    d="M-1.64266 81.2374L6.66821 90.7119C6.93766 91.0559 7.55125 91.1299 7.89535 90.86C8.23946 90.59 8.31412 89.9761 8.04466 89.6321L-0.266251 80.1576C-0.535705 79.8136 -1.14925 79.7396 -1.56965 80.125C-1.83747 80.2795 -1.91212 80.8934 -1.64266 81.2374Z"
                    fill="#D3D4E2"
                    opacity="0.3422"/>
            <path
                    d="M78.5938 83.3799L-0.766362 79.6611C-1.26468 79.6633 -1.68505 80.0486 -1.68342 80.5472C-1.68178 81.0457 -1.29709 81.4659 -0.798773 81.4637L78.5614 85.1825C79.0598 85.1803 79.4802 84.795 79.4785 84.2964C79.4006 83.9133 79.0159 83.4931 78.5938 83.3799Z"
                    fill="#D3D4E2"
                    opacity="0.131"/>
            <path
                    d="M259.962 65.331L289.192 71.7229C289.614 71.8361 290.15 71.527 290.34 70.9893C290.453 70.5669 290.145 70.0314 289.607 69.842L260.377 63.4501C259.955 63.3369 259.42 63.646 259.23 64.1837C259.155 64.7976 259.54 65.2178 259.962 65.331Z"
                    fill="#D3D4E2"
                    opacity="0.5"/>
            <path
                    d="M204.919 101.237L260.728 65.1743C261.072 64.9044 261.262 64.3666 261.069 63.9073C260.799 63.5633 260.262 63.3739 259.803 63.5677L204.07 99.5146C203.611 99.7083 203.46 100.438 203.845 100.858C203.846 101.356 204.46 101.43 204.919 101.237Z"
                    fill="#D3D4E2"
                    opacity="0.1622"/>
            <path
                    d="M538.458 92.2644L548.337 42.2514C548.335 41.7528 548.027 41.2173 547.529 41.2195C547.107 41.1063 546.571 41.4154 546.381 41.9531L536.502 91.9661C536.504 92.4646 536.812 93.0002 537.31 92.998C537.809 92.9959 538.344 92.6867 538.458 92.2644Z"
                    fill="#D3D4E2"
                    opacity="0.4438"/>
            <path
                    d="M514.466 11.5658L546.652 42.7956C547.037 43.2157 547.612 43.0982 548.032 42.7129C548.261 42.3667 548.336 41.7528 548.066 41.4088L515.995 10.2553C515.61 9.83511 515.035 9.95268 514.615 10.338C514.156 10.5318 514.081 11.1457 514.466 11.5658Z"
                    fill="#D3D4E2"
                    opacity="0.2739"/>
            <path
                    d="M64.1006 12.1126L101.585 22.3034C102.122 22.4928 102.658 22.1837 102.732 21.5698C102.922 21.0321 102.614 20.4965 102 20.4225L64.5924 10.1162C64.0551 9.92682 63.5585 10.4275 63.4449 10.8499C63.3702 11.4638 63.6786 11.9993 64.1006 12.1126Z"
                    fill="#D3D4E2"
                    opacity="0.2829"/>
            <path
                    d="M336.278 99.2062L271.435 80.5444C270.898 80.355 270.286 80.7795 270.287 81.278C270.097 81.8158 270.406 82.3513 270.943 82.5407L335.786 101.203C336.323 101.392 336.859 101.083 336.934 100.469C337.008 99.855 336.7 99.3194 336.278 99.2062Z"
                    fill="#D3D4E2"
                    opacity="0.2171"/>
            <path
                    d="M316.475 92.0828L271.32 80.4681C270.782 80.2787 270.247 80.5878 270.057 81.1256C269.867 81.6633 270.175 82.1988 270.713 82.3882L315.868 94.003C316.405 94.1924 317.017 93.7679 317.015 93.2693C317.321 92.8078 317.012 92.2722 316.475 92.0828Z"
                    fill="#D3D4E2"
                    opacity="0.5"/>
            <path
                    d="M46.3187 13.4558L54.2745 -26.8846C54.3882 -27.3069 54.0034 -27.7271 53.6967 -27.7641C53.2746 -27.8774 52.9305 -27.6074 52.8169 -27.1851L44.8611 13.1554C44.7475 13.5777 45.0169 13.9217 45.439 14.0349C45.861 14.1481 46.2051 13.8781 46.3187 13.4558Z"
                    fill="#D3D4E2"
                    opacity="0.4438"/>
        </g>
    </g>
    <mask style="mask-type:alpha" height="238" id="mask0_2143_1969" maskUnits="userSpaceOnUse"
          width="819"
          x="0" y="0">
        <path
                d="M0 10C0 4.47715 4.47715 0 10 0H809C814.523 0 819 4.47715 819 10V228C819 233.523 814.523 238 809 238H10C4.47715 238 0 233.523 0 228V10Z"
                fill="#EAEBF2"/>
    </mask>
    <path
            d="M0 10C0 4.47715 4.47715 0 10 0H809C814.523 0 819 4.47715 819 10V228C819 233.523 814.523 238 809 238H10C4.47715 238 0 233.523 0 228V10Z"/>
</svg>
