<svg width="793" height="597" viewBox="0 0 793 597" fill="none" xmlns="http://www.w3.org/2000/svg">
<path d="M396.1 596.029C614.86 596.029 792.2 493.643 792.2 367.343C792.2 241.043 614.86 138.656 396.1 138.656C177.34 138.656 0 241.043 0 367.343C0 493.643 177.34 596.029 396.1 596.029Z" fill="#F8F8F8"/>
<path d="M370.136 183.043L482.462 248.307C488.295 251.684 496.76 252.605 504.041 251.026C506.716 250.456 509.216 249.535 511.365 248.307L579.656 208.832C587.682 204.227 587.726 196.727 579.743 192.078L480.576 134.446L467.462 126.814C459.523 122.209 441.453 125.191 433.47 129.841L370.268 166.332C362.241 170.937 362.197 178.437 370.136 183.043Z" fill="#F8F8F8"/>
<path d="M383.208 166.595L495.534 231.859C503.472 236.464 516.411 236.464 524.438 231.859L587.64 195.367C591.675 193.043 593.693 189.973 593.693 186.946L593.736 197.692C593.736 200.762 591.719 203.789 587.684 206.113L524.481 242.605C516.455 247.21 503.516 247.21 495.578 242.605L383.252 177.385C379.305 175.104 377.331 172.078 377.331 169.095L377.287 158.35C377.287 161.288 379.261 164.315 383.208 166.595Z" fill="white"/>
<path d="M383.208 166.595L495.534 231.859C501.367 235.236 509.832 236.157 517.113 234.578C519.789 234.008 522.289 233.087 524.438 231.859L587.64 195.367C595.666 190.762 595.71 183.262 587.728 178.613L488.56 120.981L475.446 113.349C467.507 108.744 454.569 108.744 446.542 113.349L383.34 149.841C375.314 154.49 375.27 161.99 383.208 166.595Z" fill="#D7D7D7"/>
<path d="M572.288 186.859C573.384 186.859 574.393 186.288 574.919 185.324C575.753 183.876 575.27 181.99 573.823 181.157L476.541 124.753C476.059 124.49 475.532 124.358 475.006 124.358C473.91 124.358 472.901 124.928 472.375 125.893C471.541 127.341 472.024 129.227 473.471 130.06L570.753 186.464C571.235 186.727 571.761 186.859 572.288 186.859Z" fill="white"/>
<path d="M559.613 194.183C560.709 194.183 561.718 193.613 562.244 192.648C563.078 191.201 562.595 189.315 561.148 188.481L450.752 124.753C450.27 124.49 449.743 124.358 449.217 124.358C448.121 124.358 447.112 124.928 446.585 125.893C445.752 127.341 446.235 129.227 447.682 130.06L558.078 193.789C558.56 194.052 559.086 194.183 559.613 194.183Z" fill="white"/>
<path d="M546.937 201.508C548.034 201.508 549.042 200.938 549.569 199.973C550.402 198.525 549.92 196.639 548.472 195.806L438.076 132.077C437.594 131.814 437.068 131.683 436.541 131.683C435.445 131.683 434.436 132.253 433.91 133.218C433.076 134.665 433.559 136.551 435.006 137.385L545.402 201.113C545.884 201.376 546.411 201.508 546.937 201.508Z" fill="white"/>
<path d="M454.392 162.692C455.489 162.692 456.497 162.122 457.024 161.157C457.857 159.709 457.375 157.823 455.927 156.99L425.401 139.358C424.918 139.095 424.392 138.964 423.866 138.964C422.769 138.964 421.76 139.534 421.234 140.499C420.401 141.946 420.883 143.832 422.33 144.665L452.857 162.297C453.339 162.56 453.866 162.692 454.392 162.692Z" fill="white"/>
<path d="M510.271 194.973C511.367 194.973 512.376 194.403 512.903 193.438C513.736 191.99 513.253 190.104 511.806 189.271L466.192 162.955C465.709 162.692 465.183 162.56 464.657 162.56C463.56 162.56 462.551 163.13 462.025 164.095C461.192 165.543 461.674 167.429 463.121 168.262L508.736 194.578C509.218 194.841 509.745 194.973 510.271 194.973Z" fill="white"/>
<path d="M534.262 208.833C535.358 208.833 536.367 208.262 536.893 207.297C537.727 205.85 537.244 203.964 535.797 203.131L521.674 194.973C521.192 194.71 520.665 194.578 520.139 194.578C519.042 194.578 518.034 195.148 517.507 196.113C516.674 197.561 517.156 199.446 518.604 200.28L532.727 208.438C533.209 208.701 533.736 208.833 534.262 208.833Z" fill="white"/>
<path d="M431.848 188.087L461.673 205.28C465.006 207.21 470.401 207.21 473.734 205.28L486.76 197.78C490.094 195.85 490.094 192.736 486.76 190.806L456.936 173.613C453.602 171.683 448.207 171.683 444.874 173.613L431.848 181.113C428.514 183.043 428.514 186.157 431.848 188.087Z" fill="white"/>
<path d="M572.55 211.596L578.91 207.911C579.919 207.341 580.708 206.069 580.708 205.061C580.708 204.052 579.919 203.701 578.91 204.315L572.55 207.999C571.541 208.569 570.752 209.841 570.752 210.85C570.752 211.815 571.541 212.166 572.55 211.596Z" fill="#D7D7D7"/>
<path d="M559.04 219.447L565.4 215.762C566.409 215.192 567.198 213.92 567.198 212.911C567.198 211.903 566.409 211.552 565.4 212.166L559.04 215.85C558.032 216.42 557.242 217.692 557.242 218.701C557.242 219.666 558.076 220.017 559.04 219.447Z" fill="#D7D7D7"/>
<path d="M459.259 119.051C457.242 120.235 457.242 122.121 459.259 123.305C461.277 124.49 464.566 124.49 466.628 123.305C468.645 122.121 468.645 120.235 466.628 119.051C464.566 117.867 461.277 117.867 459.259 119.051Z" fill="white"/>
<path d="M466.674 7.60267C469.305 6.06757 472.946 6.28687 476.981 8.61145L481.718 11.3308L590.008 73.8752C598.035 78.4805 604.482 89.7087 604.438 98.9193L603.298 171.332C603.298 175.894 602.596 179.315 600.008 180.85L611.412 174.227C614 172.736 615.622 169.49 615.622 164.929L615.842 92.3403C615.842 88.1736 614.526 83.6121 612.333 79.4016C609.701 74.3138 605.754 69.8401 601.368 67.2962L488.385 1.98858C484.349 -0.335999 480.709 -0.555299 478.077 0.979802L466.674 7.60267Z" fill="#F8F8F8"/>
<path d="M476.98 8.65533C468.954 4.05002 462.463 7.73426 462.419 16.9449L462.199 89.5332C462.156 98.7438 468.647 109.928 476.629 114.577L589.701 179.841C597.727 184.446 604.218 180.762 604.262 171.551L604.481 98.9631C604.525 89.7525 598.034 78.5682 590.051 73.9191L476.98 8.65533Z" fill="#D7D7D7"/>
<path d="M467.814 22.5589L467.99 89.0069C467.99 93.1736 470.665 102.867 479.174 107.077L590.228 171.157C590.359 171.244 590.491 171.288 590.623 171.376C594.307 173.13 598.649 170.499 598.649 166.332V100.454C599.044 92.8227 593.649 85.0595 587.333 81.77L476.236 17.6905C474.437 16.6378 472.42 16.7255 470.797 17.6027C469.086 18.5238 467.814 20.3221 467.814 22.5589Z" fill="white"/>
<path d="M533.779 46.3749C533.779 47.4276 534.657 48.7872 535.709 49.4013C536.762 50.0153 537.639 49.6644 537.639 48.6118C537.639 47.5592 536.762 46.1995 535.709 45.5855C534.613 44.9714 533.779 45.3223 533.779 46.3749Z" fill="white"/>
<path d="M590.182 106.99V179.753C590.182 182.385 588.603 184.49 586.542 185.455C584.831 186.245 582.726 186.245 580.84 185.192L480.708 127.341C476.804 125.104 474.436 120.937 474.436 116.463V43.6995C474.436 38.8749 479.655 35.8924 483.822 38.3047L583.954 96.1122C587.814 98.3491 590.182 102.516 590.182 106.99Z" fill="#D7D7D7"/>
<path d="M577.507 174.578L474.436 114.972C470.532 112.735 468.164 108.568 468.164 104.051L468.427 43.0854L583.955 107.954V167.385C583.955 169.49 582.99 171.201 581.542 172.341C579.569 173.788 577.507 174.578 577.507 174.578Z" fill="#D7D7D7"/>
<path d="M466.367 47.2083L467.727 27.866C467.727 27.866 469.657 26.5941 471.762 25.6292C473.516 24.8397 475.578 24.7958 477.464 25.8923L577.596 83.6998C581.5 85.9367 583.868 90.1034 583.868 94.621V108.525L580.403 109.577L466.367 47.2083Z" fill="#F8F8F8"/>
<path d="M580.446 109.446V109.709V169.315C580.446 171.946 578.867 174.052 576.805 175.016C575.095 175.806 572.99 175.806 571.104 174.753L470.971 116.946C467.068 114.709 464.699 110.542 464.699 106.068V42.5153L580.446 109.446Z" fill="white"/>
<path d="M580.447 96.5508V109.533L464.656 42.7346V33.2608C464.656 28.4362 469.876 25.4537 473.998 27.866L574.131 85.6736C578.034 87.9104 580.447 92.0771 580.447 96.5508Z" fill="#D7D7D7"/>
<path d="M471.279 33.8748C471.279 35.1029 472.156 36.638 473.253 37.2521C474.349 37.8661 475.227 37.3836 475.227 36.1117C475.227 34.8836 474.349 33.3485 473.253 32.7345C472.113 32.1643 471.279 32.6467 471.279 33.8748Z" fill="white"/>
<path d="M478.031 37.7784C478.031 39.0065 478.908 40.5416 480.005 41.1556C481.101 41.7696 481.979 41.2872 481.979 40.0152C481.979 38.7872 481.101 37.2521 480.005 36.638C478.908 36.024 478.031 36.5064 478.031 37.7784Z" fill="white"/>
<path d="M484.787 41.6381C484.787 42.8661 485.664 44.4012 486.761 45.0153C487.857 45.6293 488.735 45.1469 488.735 43.8749C488.735 42.6468 487.857 41.1117 486.761 40.4977C485.664 39.8837 484.787 40.41 484.787 41.6381Z" fill="white"/>
<path d="M502.376 60.5417L571.455 100.411C572.639 101.112 573.604 100.674 573.604 99.4894C573.604 98.3052 572.639 96.7701 571.455 96.0684L502.376 56.1996C501.191 55.4978 500.227 55.9364 500.227 57.1207C500.227 58.3049 501.191 59.84 502.376 60.5417Z" fill="white"/>
<path d="M475.269 265.719L456.365 257.166L476.584 244.929L370.136 183.043C368.82 182.297 367.724 181.464 366.847 180.543L294.214 224.403C279.653 233.175 267.723 245.587 259.696 260.368C252.109 274.228 248.117 289.974 248.03 305.851C247.986 321.728 251.889 337.518 259.346 351.421C267.284 366.246 279.17 378.746 293.644 387.606L306.013 395.194C317.153 401.992 317.548 418.001 306.802 425.413L275.793 446.773C284.565 457.08 348.732 518.572 358.689 525.677L399.391 497.519C405.487 493.309 411.057 488.528 416.057 483.265L442.066 495.063C445.926 496.861 450.488 495.458 452.724 491.949C452.944 491.598 453.119 491.247 453.295 490.896C455.268 486.642 453.382 481.598 449.128 479.668L427.066 469.668C439.523 451.379 446.145 429.361 445.488 406.466C444.479 370.15 425.356 337.123 394.391 318.132C385.575 312.737 385.619 299.93 394.478 294.623L438.821 267.824L468.251 281.158C472.111 282.956 476.672 281.552 478.909 278.044C479.128 277.693 479.304 277.342 479.479 276.991C481.409 272.693 479.523 267.649 475.269 265.719Z" fill="#F8F8F8"/>
<path d="M162.721 500.984L275.003 566.248C280.836 569.625 289.301 570.546 296.582 568.967C299.258 568.397 301.758 567.476 303.907 566.248L372.197 526.774C380.223 522.169 380.267 514.669 372.285 510.019L273.117 452.387L260.003 444.756C252.064 440.15 233.994 443.133 226.011 447.782L162.809 484.23C154.783 488.835 154.739 496.335 162.721 500.984Z" fill="#F8F8F8"/>
<path d="M182.062 489.011L294.387 554.274C302.326 558.88 315.265 558.88 323.291 554.274L386.493 517.783C390.528 515.458 392.546 512.388 392.546 509.362L392.59 520.107C392.59 523.177 390.572 526.204 386.537 528.528L323.335 565.02C315.309 569.625 302.37 569.625 294.431 565.02L182.106 499.756C178.158 497.475 176.184 494.449 176.184 491.467L176.141 480.721C176.141 483.703 178.114 486.686 182.062 489.011Z" fill="white"/>
<path d="M182.062 489.011L294.387 554.274C300.221 557.651 308.686 558.573 315.967 556.994C318.642 556.423 321.142 555.502 323.291 554.274L386.494 517.783C394.52 513.177 394.564 505.677 386.581 501.028L287.414 443.396L274.3 435.764C266.361 431.159 253.422 431.159 245.396 435.764L182.193 472.256C174.167 476.861 174.123 484.361 182.062 489.011Z" fill="#D7D7D7"/>
<path d="M343.424 526.862C344.521 526.862 345.53 526.291 346.056 525.327C346.889 523.879 346.407 521.993 344.96 521.16L247.678 464.756C247.196 464.493 246.669 464.361 246.143 464.361C245.046 464.361 244.038 464.931 243.511 465.896C242.678 467.344 243.16 469.23 244.608 470.063L341.889 526.467C342.328 526.73 342.854 526.862 343.424 526.862Z" fill="white"/>
<path d="M330.75 534.186C331.846 534.186 332.855 533.616 333.381 532.651C334.214 531.204 333.732 529.318 332.285 528.484L221.889 464.756C221.406 464.493 220.88 464.361 220.354 464.361C219.257 464.361 218.249 464.931 217.722 465.896C216.889 467.344 217.371 469.23 218.819 470.063L329.214 533.792C329.653 534.011 330.179 534.186 330.75 534.186Z" fill="white"/>
<path d="M318.074 541.467C319.17 541.467 320.179 540.897 320.705 539.932C321.539 538.485 321.056 536.599 319.609 535.765L209.213 472.08C208.731 471.817 208.204 471.686 207.678 471.686C206.582 471.686 205.573 472.256 205.046 473.221C204.213 474.668 204.696 476.554 206.143 477.388L316.539 541.116C317.021 541.335 317.547 541.467 318.074 541.467Z" fill="white"/>
<path d="M225.529 502.695C226.625 502.695 227.634 502.125 228.16 501.16C228.994 499.712 228.511 497.826 227.064 496.993L196.537 479.361C196.055 479.098 195.529 478.966 195.002 478.966C193.906 478.966 192.897 479.537 192.371 480.502C191.537 481.949 192.02 483.835 193.467 484.668L223.994 502.3C224.476 502.563 225.003 502.695 225.529 502.695Z" fill="white"/>
<path d="M281.408 534.932C282.504 534.932 283.513 534.362 284.039 533.397C284.873 531.949 284.39 530.063 282.943 529.23L237.328 502.914C236.846 502.651 236.32 502.519 235.793 502.519C234.697 502.519 233.688 503.09 233.162 504.054C232.328 505.502 232.811 507.388 234.258 508.221L279.873 534.537C280.311 534.8 280.838 534.932 281.408 534.932Z" fill="white"/>
<path d="M305.397 548.792C306.493 548.792 307.502 548.221 308.028 547.257C308.862 545.809 308.379 543.923 306.932 543.09L292.809 534.932C292.326 534.669 291.8 534.537 291.274 534.537C290.177 534.537 289.168 535.107 288.642 536.072C287.809 537.52 288.291 539.406 289.739 540.239L303.862 548.397C304.344 548.66 304.87 548.792 305.397 548.792Z" fill="white"/>
<path d="M286.713 477.037L316.538 494.23C319.871 496.16 325.266 496.16 328.599 494.23L341.626 486.73C344.959 484.8 344.959 481.686 341.626 479.756L311.801 462.563C308.467 460.633 303.073 460.633 299.739 462.563L286.713 470.063C283.38 471.993 283.38 475.107 286.713 477.037Z" fill="white"/>
<path d="M371.408 533.967L377.767 530.283C378.776 529.713 379.566 528.441 379.566 527.432C379.566 526.423 378.776 526.072 377.767 526.686L371.408 530.371C370.399 530.941 369.609 532.213 369.609 533.221C369.609 534.23 370.399 534.537 371.408 533.967Z" fill="#D7D7D7"/>
<path d="M357.898 541.818L364.258 538.134C365.266 537.564 366.056 536.292 366.056 535.283C366.056 534.274 365.266 533.923 364.258 534.537L357.898 538.221C356.889 538.792 356.1 540.064 356.1 541.072C356.1 542.081 356.933 542.388 357.898 541.818Z" fill="#D7D7D7"/>
<path d="M230.355 459.01C228.337 460.194 228.337 462.08 230.355 463.265C232.373 464.449 235.662 464.449 237.723 463.265C239.741 462.08 239.741 460.194 237.723 459.01C235.662 457.826 232.373 457.826 230.355 459.01Z" fill="white"/>
<path d="M292.898 380.15C293.293 380.194 293.687 380.238 294.126 380.238C298.819 380.238 302.635 376.466 302.635 371.773L302.503 276.158C302.503 271.465 298.731 267.649 294.038 267.649C289.345 267.649 285.529 271.421 285.529 276.114L285.661 371.729C285.661 376.027 288.819 379.536 292.898 380.15Z" fill="#D7D7D7"/>
<path d="M446.671 496.16C447.066 496.203 447.461 496.247 447.899 496.247C452.592 496.247 456.408 492.475 456.408 487.782L456.277 392.167C456.277 387.474 452.505 383.659 447.812 383.659C443.119 383.659 439.303 387.431 439.303 392.124L439.434 487.738C439.434 492.037 442.592 495.589 446.671 496.16Z" fill="#D7D7D7"/>
<path d="M470.706 281.991C471.101 282.035 471.496 282.079 471.934 282.079C476.627 282.079 480.443 278.307 480.443 273.614L480.312 177.999C480.312 173.306 476.54 169.49 471.847 169.49C467.154 169.49 463.338 173.262 463.338 177.955L463.469 273.57C463.469 277.824 466.627 281.377 470.706 281.991Z" fill="#D7D7D7"/>
<path d="M303.643 542.958L195.967 480.809L337.021 383.702C347.766 376.29 347.328 360.281 336.231 353.483L323.863 345.895C309.389 337.035 297.547 324.491 289.564 309.711C282.108 295.807 278.161 280.017 278.248 264.14C278.292 248.263 282.327 232.517 289.915 218.657C297.985 203.876 309.915 191.464 324.433 182.692L578.47 147.999V159.841L424.653 252.912C415.837 258.263 415.793 271.07 424.565 276.421C455.574 295.412 474.653 328.439 475.662 364.755C476.671 401.071 459.434 435.106 429.565 455.808L303.643 542.958Z" fill="#D7D7D7"/>
<path d="M303.643 531.116L195.967 468.966L337.021 371.86C347.766 364.448 347.328 348.439 336.231 341.641L323.863 334.053C309.389 325.193 297.547 312.649 289.564 297.868C282.108 283.965 278.161 268.175 278.248 252.298C278.292 236.42 282.327 220.675 289.915 206.815C297.985 192.034 309.915 179.622 324.433 170.85L468.25 84.0507L578.47 148.043L424.653 241.07C415.837 246.421 415.793 259.228 424.565 264.579C455.574 283.57 474.653 316.597 475.662 352.913C476.671 389.229 459.434 423.264 429.565 443.966L303.643 531.116Z" fill="white"/>
<path d="M307.109 458.089L303.556 458.747C303.03 458.835 302.46 458.747 302.109 458.572L283.162 448.001C282.767 447.782 282.635 447.475 282.811 447.168L283.863 445.15C284.17 444.536 283.907 443.835 283.074 443.396L282.416 443.045C281.846 442.738 281.846 442.168 282.416 441.861L318.293 420.983L371.408 451.905L336.627 472.168C336.057 472.519 335.092 472.519 334.522 472.212L310.267 458.659C309.434 458.045 308.206 457.914 307.109 458.089Z" fill="#D7D7D7"/>
<path d="M311.408 456.861L307.855 457.519C307.329 457.607 306.759 457.519 306.408 457.343L287.461 446.773C287.197 446.642 287.066 446.422 287.022 446.247C287.022 446.159 287.241 445.063 287.241 445.063L288.118 443.922C288.425 443.308 288.162 442.606 287.329 442.168L286.671 441.817C286.364 441.642 286.232 441.422 286.232 441.159C286.276 440.94 286.452 440.15 286.452 440.15L322.549 419.712L375.093 450.501L374.742 451.159L340.882 470.852C340.312 471.203 339.347 471.203 338.777 470.896L314.522 457.343C313.733 456.817 312.505 456.642 311.408 456.861Z" fill="#1E91CF"/>
<path d="M311.627 455.852L308.074 456.51C307.548 456.598 306.978 456.51 306.627 456.335L287.679 445.764C287.284 445.545 287.153 445.238 287.328 444.931L288.381 442.913C288.688 442.299 288.425 441.598 287.591 441.159L286.933 440.808C286.363 440.501 286.363 439.931 286.933 439.624L322.811 418.747L375.925 449.668L341.144 469.931C340.574 470.282 339.609 470.282 339.039 469.975L314.785 456.422C313.907 455.808 312.723 455.633 311.627 455.852Z" fill="#1E91CF"/>
<path d="M323.995 410.369L376.671 440.852C376.671 440.852 379.654 440.37 378.514 445.106C377.549 449.273 374.829 450.238 374.829 450.238L320.662 419.887L323.995 410.369Z" fill="#1E91CF"/>
<path d="M296.059 441.247C296.059 442.08 296.629 442.913 297.725 443.571L335.226 464.887C337.462 466.159 341.015 466.115 343.252 464.843L373.296 447.124C374.393 446.466 374.919 445.633 374.919 444.799V442.957C374.919 443.791 374.393 444.624 373.296 445.282L343.252 463.001C341.059 464.317 337.462 464.317 335.226 463.045L297.725 441.729C296.585 441.071 296.059 440.238 296.059 439.405V441.247Z" fill="#D7D7D7"/>
<path d="M297.724 441.773C295.487 440.501 295.487 438.44 297.68 437.124L327.724 419.404C329.917 418.089 333.514 418.089 335.707 419.361L373.207 440.677C375.444 441.949 375.444 444.01 373.251 445.326L343.207 463.045C341.014 464.361 337.418 464.361 335.181 463.089L297.724 441.773Z" fill="white"/>
<path d="M318.688 443.791L295.398 430.764C295.223 430.545 289.696 432.782 288.907 432.343L288.249 431.992C287.986 431.861 287.854 431.685 287.81 431.466C287.767 431.203 287.986 429.887 287.986 429.843L322.504 411.027L374.96 440.808L374.653 442.036L342.416 461.028C341.846 461.378 340.881 461.378 340.311 461.071L316.056 447.519C315.969 447.475 315.925 447.387 315.969 447.299C316.012 447.168 316.144 446.027 316.144 446.027C317.021 444.887 318.776 444.317 318.688 443.791Z" fill="#1E91CF"/>
<path d="M318.863 442.387L295.573 429.361C295.397 429.141 289.871 431.378 289.082 430.94L288.424 430.589C287.854 430.282 287.854 429.712 288.424 429.405L322.284 409.843C322.635 409.668 323.073 409.668 323.424 409.843L377.811 440.501L374.784 441.027L342.635 459.712C342.065 460.063 341.1 460.063 340.529 459.756L316.275 446.203C315.442 445.677 319.433 442.913 318.863 442.387Z" fill="#1E91CF"/>
<path d="M374.785 440.984C380.355 437.738 381.452 446.817 374.741 451.115C374.741 450.984 374.741 450.37 374.741 450.238C379.785 447.299 379.741 439.536 374.697 442.124C374.697 441.949 374.785 441.115 374.785 440.984Z" fill="#1E91CF"/>
<path d="M374.566 394.229L371.013 394.887C370.487 394.975 369.917 394.887 369.566 394.711L350.619 384.141C350.224 383.922 350.092 383.615 350.268 383.308L351.32 381.29C351.627 380.676 351.364 379.974 350.531 379.536L349.873 379.185C349.303 378.878 349.303 378.308 349.873 378.001L385.75 357.123L438.865 388.045L404.084 408.308C403.514 408.659 402.549 408.659 401.979 408.352L377.724 394.799C376.847 394.185 375.663 394.053 374.566 394.229Z" fill="#D7D7D7"/>
<path d="M378.865 393.001L375.312 393.659C374.786 393.747 374.216 393.659 373.865 393.483L354.918 382.913C354.654 382.782 354.523 382.562 354.479 382.387C354.479 382.299 354.698 381.203 354.698 381.203L355.575 380.062C355.882 379.448 355.619 378.746 354.786 378.308L354.128 377.957C353.821 377.781 353.689 377.562 353.689 377.299C353.733 377.08 353.909 376.29 353.909 376.29L390.006 355.851L442.55 386.641L442.199 387.299L408.339 406.948C407.769 407.299 406.804 407.299 406.234 406.992L381.979 393.439C381.146 392.957 379.962 392.825 378.865 393.001Z" fill="#1E91CF"/>
<path d="M379.084 391.992L375.531 392.65C375.005 392.738 374.435 392.65 374.084 392.475L355.136 381.904C354.741 381.685 354.61 381.378 354.785 381.071L355.838 379.053C356.145 378.439 355.882 377.738 355.048 377.299L354.391 376.948C353.82 376.641 353.82 376.071 354.391 375.764L390.268 354.886L443.383 385.808L408.602 406.071C408.031 406.422 407.066 406.422 406.496 406.115L382.242 392.562C381.364 391.948 380.18 391.817 379.084 391.992Z" fill="#1E91CF"/>
<path d="M391.452 346.509L444.128 376.992C444.128 376.992 447.111 376.509 445.971 381.246C445.006 385.413 442.286 386.378 442.286 386.378L388.119 356.027L391.452 346.509Z" fill="#1E91CF"/>
<path d="M363.514 377.431C363.514 378.264 364.084 379.097 365.18 379.755L402.681 401.071C404.918 402.343 408.47 402.299 410.707 401.027L440.751 383.308C441.848 382.65 442.374 381.817 442.374 380.983V379.141C442.374 379.975 441.848 380.808 440.751 381.466L410.707 399.185C408.514 400.501 404.918 400.501 402.681 399.229L365.18 377.913C364.04 377.255 363.514 376.422 363.514 375.589V377.431Z" fill="#D7D7D7"/>
<path d="M365.181 377.913C362.944 376.641 362.944 374.58 365.137 373.264L395.181 355.544C397.374 354.229 400.971 354.229 403.164 355.501L440.664 376.817C442.901 378.088 442.901 380.15 440.708 381.466L410.664 399.185C408.471 400.501 404.875 400.501 402.638 399.229L365.181 377.913Z" fill="white"/>
<path d="M386.145 379.974L362.855 366.948C362.68 366.729 357.153 368.966 356.364 368.527L355.706 368.176C355.443 368.045 355.311 367.869 355.268 367.65C355.224 367.387 355.443 366.071 355.443 366.027L389.961 347.211L442.417 376.992L442.11 378.22L409.873 397.211C409.303 397.562 408.338 397.562 407.768 397.255L383.513 383.703C383.426 383.659 383.382 383.571 383.426 383.483C383.47 383.352 383.601 382.211 383.601 382.211C384.478 381.027 386.233 380.501 386.145 379.974Z" fill="#1E91CF"/>
<path d="M386.32 378.527L363.03 365.501C362.855 365.281 357.328 367.518 356.539 367.08L355.881 366.729C355.311 366.422 355.311 365.852 355.881 365.544L389.741 345.983C390.092 345.807 390.53 345.807 390.881 345.983L445.268 376.641L442.241 377.167L410.092 395.808C409.522 396.159 408.557 396.159 407.986 395.852L383.732 382.299C382.899 381.817 386.89 379.053 386.32 378.527Z" fill="#1E91CF"/>
<path d="M442.242 377.124C447.812 373.878 448.909 382.957 442.198 387.255C442.198 387.124 442.198 386.51 442.198 386.378C447.242 383.439 447.198 375.676 442.154 378.264C442.154 378.132 442.242 377.299 442.242 377.124Z" fill="#1E91CF"/>
<path d="M339.041 303.614L335.488 304.272C334.962 304.36 334.392 304.272 334.041 304.097L315.093 293.526C314.698 293.307 314.567 293 314.742 292.693L315.795 290.675C316.102 290.061 315.839 289.36 315.005 288.921L314.348 288.57C313.777 288.263 313.777 287.693 314.348 287.386L350.225 266.508L403.34 297.43L368.515 317.562C367.945 317.912 366.98 317.912 366.409 317.605L342.155 304.053C341.321 303.57 340.137 303.439 339.041 303.614Z" fill="#D7D7D7"/>
<path d="M343.34 302.386L339.787 303.044C339.261 303.132 338.691 303.044 338.34 302.868L319.392 292.298C319.129 292.167 318.997 291.947 318.954 291.772C318.954 291.684 319.173 290.588 319.173 290.588L320.05 289.447C320.357 288.833 320.094 288.131 319.261 287.693L318.603 287.342C318.296 287.167 318.164 286.947 318.164 286.684C318.208 286.465 318.383 285.675 318.383 285.675L354.48 265.237L407.024 295.982L406.674 296.64L372.814 316.333C372.243 316.684 371.279 316.684 370.708 316.377L346.454 302.825C345.62 302.342 344.436 302.211 343.34 302.386Z" fill="#1E91CF"/>
<path d="M343.559 301.377L340.007 302.035C339.48 302.123 338.91 302.035 338.559 301.86L319.568 291.246C319.173 291.026 319.041 290.719 319.217 290.412L320.27 288.395C320.577 287.781 320.313 287.079 319.48 286.64L318.822 286.289C318.252 285.982 318.252 285.412 318.822 285.105L354.7 264.228L407.814 295.149L373.033 315.412C372.463 315.763 371.498 315.763 370.928 315.456L346.673 301.772C345.84 301.333 344.656 301.158 343.559 301.377Z" fill="#1E91CF"/>
<path d="M355.927 255.894L408.603 286.377C408.603 286.377 411.585 285.895 410.445 290.631C409.48 294.798 406.761 295.763 406.761 295.763L352.594 265.368L355.927 255.894Z" fill="#1E91CF"/>
<path d="M327.99 286.816C327.99 287.649 328.56 288.482 329.657 289.14L367.157 310.456C369.394 311.728 372.947 311.684 375.184 310.412L405.228 292.693C406.324 292.035 406.851 291.202 406.851 290.368V288.526C406.851 289.36 406.324 290.193 405.228 290.851L375.184 308.57C372.991 309.886 369.394 309.886 367.157 308.614L329.657 287.298C328.517 286.64 327.99 285.807 327.99 284.974V286.816Z" fill="#D7D7D7"/>
<path d="M329.656 287.298C327.419 286.026 327.419 283.965 329.612 282.649L359.656 264.93C361.849 263.614 365.446 263.614 367.639 264.886L405.139 286.202C407.376 287.474 407.376 289.535 405.183 290.851L375.139 308.57C372.946 309.886 369.349 309.886 367.112 308.614L329.656 287.298Z" fill="white"/>
<path d="M350.62 289.36L327.33 276.333C327.154 276.114 321.628 278.351 320.839 277.912L320.181 277.561C319.918 277.43 319.786 277.254 319.742 277.035C319.698 276.772 319.918 275.456 319.918 275.412L354.435 256.596L406.936 286.421L406.629 287.649L374.392 306.64C373.822 306.991 372.857 306.991 372.286 306.684L348.032 293.132C347.944 293.088 347.9 293 347.944 292.912C347.988 292.781 348.12 291.64 348.12 291.64C348.953 290.412 350.707 289.886 350.62 289.36Z" fill="#1E91CF"/>
<path d="M350.794 287.912L327.505 274.886C327.329 274.666 321.803 276.903 321.013 276.465L320.355 276.114C319.785 275.807 319.785 275.237 320.355 274.93L354.215 255.368C354.566 255.193 355.005 255.193 355.356 255.368L409.742 286.026L406.716 286.553L374.566 305.193C373.996 305.544 373.031 305.544 372.461 305.237L348.206 291.684C347.373 291.202 351.364 288.439 350.794 287.912Z" fill="#1E91CF"/>
<path d="M406.717 286.509C412.287 283.263 413.383 292.342 406.673 296.64C406.673 296.509 406.673 295.895 406.673 295.763C411.717 292.824 411.673 285.061 406.629 287.649C406.629 287.517 406.717 286.684 406.717 286.509Z" fill="#1E91CF"/>
<path d="M361.715 213.526L358.163 214.183C357.636 214.271 357.066 214.183 356.715 214.008L337.724 203.394C337.329 203.175 337.198 202.868 337.373 202.561L338.426 200.543C338.733 199.929 338.47 199.227 337.636 198.789L336.978 198.438C336.408 198.131 336.408 197.56 336.978 197.253L372.856 176.376L425.97 207.297L391.189 227.561C390.619 227.912 389.654 227.912 389.084 227.605L364.83 214.052C363.996 213.482 362.812 213.306 361.715 213.526Z" fill="#D7D7D7"/>
<path d="M366.014 212.297L362.461 212.955C361.935 213.043 361.364 212.955 361.014 212.78L342.066 202.21C341.803 202.078 341.671 201.859 341.627 201.683C341.627 201.596 341.847 200.499 341.847 200.499L342.724 199.359C343.031 198.745 342.768 198.043 341.934 197.604L341.276 197.253C340.969 197.078 340.838 196.859 340.838 196.596C340.882 196.376 341.057 195.587 341.057 195.587L377.154 175.148L429.698 205.938L429.347 206.596L395.488 226.289C394.917 226.64 393.952 226.64 393.382 226.333L369.128 212.78C368.294 212.254 367.11 212.078 366.014 212.297Z" fill="#1E91CF"/>
<path d="M366.189 211.289L362.637 211.947C362.11 212.034 361.54 211.947 361.189 211.771L342.242 201.201C341.847 200.982 341.715 200.675 341.891 200.368L342.943 198.35C343.25 197.736 342.987 197.034 342.154 196.596L341.496 196.245C340.926 195.938 340.926 195.367 341.496 195.06L377.374 174.183L430.488 205.104L395.707 225.368C395.137 225.719 394.172 225.719 393.602 225.412L369.303 211.683C368.514 211.245 367.33 211.069 366.189 211.289Z" fill="#1E91CF"/>
<path d="M378.558 165.806L431.234 196.289C431.234 196.289 434.216 195.806 433.076 200.543C432.111 204.71 429.392 205.675 429.392 205.675L375.225 175.323L378.558 165.806Z" fill="#1E91CF"/>
<path d="M350.619 196.683C350.619 197.517 351.189 198.35 352.286 199.008L389.786 220.324C392.023 221.596 395.576 221.552 397.813 220.28L427.857 202.561C428.953 201.903 429.479 201.069 429.479 200.236V198.394C429.479 199.227 428.953 200.061 427.857 200.718L397.813 218.438C395.62 219.754 392.023 219.754 389.786 218.482L352.286 197.166C351.145 196.508 350.619 195.675 350.619 194.841V196.683Z" fill="url(#paint0_linear_1020_356)"/>
<path d="M352.332 197.21C350.095 195.938 350.095 193.876 352.288 192.56L382.332 174.841C384.525 173.525 388.121 173.525 390.314 174.797L427.815 196.113C430.052 197.385 430.052 199.446 427.859 200.762L397.814 218.438C395.621 219.754 392.025 219.754 389.788 218.482L352.332 197.21Z" fill="white"/>
<path d="M373.25 199.227L350.004 186.245C349.828 186.025 344.302 188.262 343.512 187.824L342.855 187.473C342.591 187.341 342.46 187.166 342.416 186.946C342.372 186.683 342.591 185.367 342.591 185.324L377.109 166.508L429.566 196.289L429.259 197.517L397.022 216.508C396.452 216.859 395.487 216.859 394.916 216.552L370.662 202.999C370.574 202.955 370.53 202.868 370.574 202.78C370.618 202.648 370.75 201.508 370.75 201.508C371.627 200.28 373.381 199.754 373.25 199.227Z" fill="#1E91CF"/>
<path d="M373.425 197.824L350.135 184.797C349.96 184.578 344.434 186.815 343.644 186.376L342.986 185.981C342.416 185.674 342.416 185.104 342.986 184.797L376.846 165.236C377.197 165.06 377.636 165.06 377.987 165.236L432.373 195.894L429.347 196.42L397.197 215.104C396.627 215.455 395.662 215.455 395.092 215.148L370.837 201.596C370.004 201.113 374.039 198.35 373.425 197.824Z" fill="#1E91CF"/>
<path d="M429.347 196.42C434.918 193.174 436.014 202.254 429.304 206.552C429.304 206.42 429.304 205.806 429.304 205.675C434.348 202.736 434.304 194.973 429.26 197.56C429.26 197.385 429.347 196.552 429.347 196.42Z" fill="#1E91CF"/>
<path d="M455.927 150.718L452.375 151.376C451.848 151.464 451.278 151.376 450.927 151.2L431.98 140.63C431.585 140.411 431.454 140.104 431.629 139.797L432.682 137.779C432.989 137.165 432.726 136.463 431.892 136.025L431.234 135.674C430.664 135.367 430.664 134.797 431.234 134.49L467.112 113.612L520.226 144.534L485.445 164.797C484.875 165.148 483.91 165.148 483.34 164.841L459.085 151.288C458.208 150.674 457.024 150.499 455.927 150.718Z" fill="#D7D7D7"/>
<path d="M460.226 149.49L456.674 150.148C456.147 150.236 455.577 150.148 455.226 149.972L436.279 139.402C436.016 139.271 435.884 139.051 435.84 138.876C435.84 138.788 436.06 137.692 436.06 137.692L436.937 136.551C437.244 135.937 436.981 135.235 436.147 134.797L435.489 134.446C435.182 134.27 435.051 134.051 435.051 133.788C435.095 133.569 435.27 132.779 435.27 132.779L471.367 112.34L523.911 143.13L523.56 143.788L489.7 163.481C489.13 163.832 488.165 163.832 487.595 163.525L463.341 149.972C462.507 149.446 461.323 149.271 460.226 149.49Z" fill="#1E91CF"/>
<path d="M460.445 148.437L456.892 149.095C456.366 149.183 455.796 149.095 455.445 148.92L436.497 138.349C436.103 138.13 435.971 137.823 436.147 137.516L437.199 135.499C437.506 134.885 437.243 134.183 436.41 133.744L435.752 133.393C435.182 133.086 435.182 132.516 435.752 132.209L471.629 111.332L524.744 142.253L489.963 162.516C489.393 162.867 488.428 162.867 487.858 162.56L463.603 149.007C462.726 148.437 461.542 148.262 460.445 148.437Z" fill="#1E91CF"/>
<path d="M472.771 102.954L525.447 133.437C525.447 133.437 528.429 132.955 527.289 137.692C526.324 141.858 523.605 142.823 523.605 142.823L469.438 112.472L472.771 102.954Z" fill="#1E91CF"/>
<path d="M444.877 133.876C444.877 134.709 445.447 135.542 446.544 136.2L484.044 157.516C486.281 158.788 489.834 158.744 492.07 157.472L522.114 139.753C523.211 139.095 523.737 138.262 523.737 137.428V135.586C523.737 136.42 523.211 137.253 522.114 137.911L492.07 155.63C489.877 156.946 486.281 156.946 484.044 155.674L446.544 134.358C445.403 133.7 444.877 132.867 444.877 132.034V133.876Z" fill="#D7D7D7"/>
<path d="M446.543 134.358C444.306 133.086 444.306 131.025 446.499 129.709L476.543 111.99C478.736 110.674 482.332 110.674 484.525 111.946L522.026 133.262C524.263 134.534 524.263 136.595 522.07 137.911L492.025 155.63C489.832 156.946 486.236 156.946 483.999 155.674L446.543 134.358Z" fill="white"/>
<path d="M467.506 136.42L444.217 123.393C444.041 123.174 438.515 125.411 437.725 124.972L437.067 124.621C436.804 124.49 436.673 124.314 436.629 124.095C436.585 123.832 436.804 122.516 436.804 122.472L471.322 103.656L523.779 133.437L523.472 134.665L491.235 153.657C490.664 154.007 489.699 154.007 489.129 153.7L464.875 140.148C464.787 140.104 464.743 140.016 464.787 139.928C464.831 139.797 464.962 138.656 464.962 138.656C465.84 137.472 467.594 136.946 467.506 136.42Z" fill="#1E91CF"/>
<path d="M467.681 134.972L444.391 121.946C444.216 121.727 438.689 123.963 437.9 123.525L437.242 123.174C436.672 122.867 436.672 122.297 437.242 121.99L471.102 102.428C471.453 102.253 471.891 102.253 472.242 102.428L526.629 133.086L523.603 133.613L491.453 152.297C490.883 152.648 489.918 152.648 489.348 152.341L465.093 138.788C464.26 138.306 468.251 135.542 467.681 134.972Z" fill="#1E91CF"/>
<path d="M523.558 133.613C529.129 130.367 530.225 139.446 523.515 143.744C523.515 143.613 523.515 142.999 523.515 142.867C528.558 139.928 528.515 132.165 523.471 134.753C523.515 134.577 523.558 133.744 523.558 133.613Z" fill="#1E91CF"/>
<path d="M174.477 387.255C177.108 385.72 180.749 385.939 184.784 388.264L189.521 390.983L297.811 453.528C305.837 458.133 312.285 469.361 312.241 478.572L311.101 550.985C311.101 555.546 310.399 558.967 307.811 560.502L319.215 553.879C321.802 552.388 323.425 549.143 323.425 544.581L323.645 471.993C323.645 467.826 322.329 463.265 320.136 459.054C317.504 453.966 313.557 449.493 309.171 446.949L196.187 381.641C192.152 379.316 188.512 379.097 185.88 380.632L174.477 387.255Z" fill="#F8F8F8"/>
<path d="M303.994 557.388C300.485 556.906 297.152 555.853 294.389 554.274L182.063 489.01C178.116 486.73 176.142 483.703 176.142 480.721V488.703C176.142 488.835 176.01 491.379 178.335 493.265L291.362 558.529C296.757 561.643 301.45 560.941 303.994 557.388Z" fill="#D7D7D7"/>
<path d="M184.783 388.264C176.757 383.659 170.265 387.343 170.221 396.553L170.002 469.142C169.958 478.352 176.45 489.537 184.432 494.186L297.459 559.45C305.486 564.055 311.977 560.371 312.021 551.16L312.24 478.572C312.284 469.361 305.793 458.177 297.81 453.528L184.783 388.264Z" fill="#D7D7D7"/>
<path d="M217.326 464.054C217.326 473.133 224.651 484.712 233.73 489.932C242.809 495.151 250.133 492.037 250.133 483.002C250.133 473.923 242.809 462.344 233.73 457.124C224.695 451.861 217.326 454.975 217.326 464.054Z" fill="white"/>
<path d="M156.582 258.307C145.31 251.772 129.74 249.271 115.178 250.719C103.906 244.359 77.8534 257.736 66.1867 247.035C61.1866 242.429 61.0989 255.368 63.5112 259.403C70.0464 270.456 78.9061 264.798 81.3184 265.28C72.4148 275.5 75.3973 288.351 90.222 296.904C108.687 307.562 138.512 307.562 156.845 296.904C175.135 286.246 175.047 268.965 156.582 258.307Z" fill="#F8F8F8"/>
<path d="M173.556 229.227C155.222 239.885 125.398 239.885 106.933 229.227C97.6343 223.877 92.9851 216.815 93.029 209.797L92.8535 270.193C92.8535 277.21 97.4588 284.272 106.757 289.623C125.222 300.281 155.047 300.281 173.381 289.623C182.503 284.316 187.065 277.386 187.065 270.456L187.24 210.061C187.24 216.991 182.679 223.92 173.556 229.227Z" fill="#D7D7D7"/>
<path d="M173.337 190.631C154.872 179.973 125.047 179.973 106.713 190.631C88.38 201.289 88.4677 218.569 106.933 229.227C125.398 239.885 155.223 239.885 173.556 229.227C191.89 218.569 191.802 201.289 173.337 190.631Z" fill="white"/>
<path d="M106.932 229.227C111.318 231.552 115.967 233.263 120.791 234.447C125.572 235.631 130.484 236.333 135.397 236.552C137.853 236.684 140.309 236.684 142.765 236.596C145.221 236.508 147.678 236.289 150.134 235.982C155.002 235.368 159.827 234.271 164.476 232.649C169.081 231.026 173.555 228.833 177.415 225.894C179.345 224.403 181.143 222.78 182.634 220.85C182.985 220.368 183.38 219.885 183.687 219.403L184.169 218.657L184.608 217.868L184.827 217.473L185.002 217.078L185.397 216.245L185.704 215.412L185.88 214.973L186.011 214.534C186.406 213.394 186.581 212.21 186.713 210.982C186.801 209.797 186.757 208.569 186.581 207.385C186.187 205.017 185.31 202.692 183.994 200.631C182.722 198.569 181.099 196.683 179.257 195.017C177.415 193.35 175.397 191.903 173.292 190.587C177.634 192.955 181.669 196.069 184.52 200.28C185.924 202.341 186.932 204.754 187.415 207.254C187.634 208.525 187.722 209.797 187.634 211.069C187.546 212.341 187.371 213.613 186.976 214.841C186.318 217.297 185.003 219.578 183.511 221.596C181.976 223.613 180.09 225.368 178.116 226.903C176.143 228.438 173.95 229.754 171.757 230.938C169.52 232.078 167.195 233.087 164.871 233.92C160.134 235.543 155.222 236.64 150.265 237.254C145.309 237.824 140.309 237.956 135.309 237.605C130.353 237.254 125.397 236.42 120.572 235.105C115.835 233.657 111.142 231.815 106.932 229.227Z" fill="#BCBCBC"/>
<path d="M180.265 210.017C180.265 211.508 179.87 213.043 179.125 214.534C177.546 217.648 174.432 220.631 170.046 223.175C162.326 227.648 151.493 230.236 140.308 230.236C129.08 230.236 118.203 227.648 110.44 223.175C105.966 220.587 102.764 217.517 101.185 214.359C100.44 212.868 100.045 211.333 100.045 209.841C100.045 205.236 103.773 200.455 110.264 196.683C117.984 192.21 128.817 189.622 140.001 189.622C151.23 189.622 162.107 192.21 169.87 196.683C176.449 200.499 180.221 205.368 180.265 210.017Z" fill="#D7D7D7"/>
<path d="M179.082 214.534C177.503 217.648 174.389 220.631 170.003 223.175C162.283 227.648 151.45 230.236 140.266 230.236C129.038 230.236 118.16 227.648 110.397 223.175C105.923 220.587 102.722 217.517 101.143 214.359C102.722 211.245 105.836 208.262 110.222 205.718C117.941 201.245 128.774 198.657 139.959 198.657C151.187 198.657 162.064 201.245 169.827 205.718C174.345 208.306 177.503 211.376 179.082 214.534Z" fill="white"/>
<path d="M141.537 218.043C140.309 211.201 133.511 201.201 134.607 193.789C135.265 189.183 136.362 187.253 134.607 181.639C133.116 176.815 125.002 170.367 123.686 164.972C122.414 159.885 129.695 152.779 127.239 143.92C125.748 138.569 117.151 135.455 117.283 126.507C117.37 120.805 128.555 117.823 126.757 113.174C122.458 101.902 132.634 98.4807 141.099 96.9017C147.064 95.8052 140.836 84.0946 150.923 80.5419C157.897 78.0858 164.915 83.1735 169.652 80.8489C174.564 78.4366 175.046 67.2962 180.134 64.7523C184.739 62.4716 192.722 66.2874 197.985 63.4365C202.371 61.0242 201.275 56.1557 205.617 53.8312C215.31 48.5679 215.003 66.1997 210.705 72.7348C204.915 81.5068 199.959 79.9717 195.924 84.1823C191.845 88.4367 196.187 96.4192 191.582 100.674C185.31 106.507 177.152 105.191 172.459 109.533C168.994 112.735 174.827 120.893 171.187 127.121C166.099 135.849 156.187 135.499 154.037 141.595C152.108 147.078 157.766 150.762 155.748 156.551C152.766 165.192 151.23 169.271 147.809 176.113C145.002 181.683 143.555 188.832 143.336 194.534C143.072 201.113 141.186 215.982 141.537 218.043Z" fill="#1E91CF"/>
<path d="M206.627 62.8224C205.837 64.1821 204.916 65.4102 203.908 66.6383C203.425 67.2523 202.899 67.8225 202.372 68.4365C201.846 69.0067 201.32 69.5769 200.794 70.1471C198.644 72.3839 196.32 74.4892 193.864 76.4629C192.679 77.4717 191.407 78.3928 190.179 79.3577C188.907 80.2787 187.636 81.1559 186.364 82.077C185.048 82.9103 183.776 83.7875 182.416 84.6209L178.425 87.077C173.074 90.2788 168.206 94.2262 163.907 98.7C159.565 103.174 155.749 108.13 151.977 113.042C151.056 114.314 150.179 115.586 149.346 116.902C148.512 118.218 147.767 119.577 147.065 120.937C145.661 123.7 144.521 126.595 143.644 129.577C141.846 135.542 140.881 141.727 140.267 147.911C139.653 154.095 139.346 160.367 139.214 166.595C139.039 172.823 138.995 179.052 139.039 185.324C138.907 179.095 138.907 172.823 138.995 166.595C139.126 160.367 139.389 154.095 140.004 147.911C140.618 141.683 141.539 135.499 143.337 129.49C144.214 126.507 145.354 123.569 146.758 120.762C147.46 119.358 148.249 117.998 149.039 116.683C149.872 115.367 150.749 114.051 151.67 112.823C155.486 107.867 159.346 102.954 163.732 98.4807C168.074 94.0069 173.03 90.0595 178.381 86.8577L182.372 84.4454C183.688 83.6121 185.004 82.7349 186.32 81.9016C187.592 81.0244 188.907 80.1472 190.136 79.2261C191.364 78.305 192.636 77.384 193.864 76.3752C196.32 74.4454 198.644 72.3839 200.837 70.1471C201.408 69.5769 201.89 69.0067 202.46 68.4365C202.987 67.8664 203.513 67.2962 203.995 66.6821C204.873 65.4102 205.837 64.1382 206.627 62.8224Z" fill="white"/>
<path d="M138.687 209.797C146.714 208.131 141.187 206.99 145.222 198.131C147.24 193.745 154.214 187.21 164.17 170.63C170.442 160.192 170.442 145.279 167.328 136.156C165.53 130.893 154.652 126.99 151.933 122.297C149.17 117.56 148.775 89.9718 144.828 85.8928C135.047 75.8927 127.985 84.8402 117.722 80.7174C108.819 77.1647 108.029 65.3663 103.292 62.4716C90.5728 54.6645 86.5377 62.9979 76.6692 60.5417C71.1428 59.1382 67.3708 52.1206 64.6515 47.4276C62.7217 44.1381 54.476 41.6381 47.897 47.6469C39.6513 55.2347 51.8444 58.6996 55.5725 63.2611C61.7129 70.7611 59.7392 84.2262 63.2041 88.6999C66.3621 92.8227 71.8007 94.314 74.6516 95.9806C79.3885 98.7438 68.5551 108.349 80.2218 115.849C90.4412 122.428 100.003 117.165 107.766 123.086C112.415 126.639 106.538 134.358 113.073 139.709C121.977 146.99 129.828 143.437 131.45 150.016C132.766 155.411 141.933 156.815 142.986 162.955C146.143 181.157 137.503 189.71 137.064 195.455C136.67 201.771 140.179 204.49 138.687 209.797Z" fill="white"/>
<path d="M61.582 56.1557C65.2663 62.7786 69.6523 69.0067 74.4769 74.7962C79.3015 80.6296 84.6524 86.0244 90.6174 90.6736C96.5823 95.3227 103.117 99.1824 110.223 101.77C117.372 104.489 123.995 108.481 129.828 113.393C135.662 118.349 140.662 124.183 144.828 130.586C146.89 133.788 148.776 137.121 150.399 140.542C151.232 142.253 151.978 144.007 152.635 145.806C153.293 147.604 153.907 149.402 154.258 151.332C155.004 155.104 155.135 158.964 154.916 162.736C154.653 166.551 153.995 170.323 152.986 174.008C150.969 181.332 147.635 188.306 143.293 194.534C145.355 191.376 147.197 188.043 148.776 184.578C150.311 181.113 151.583 177.56 152.504 173.876C153.425 170.236 154.039 166.464 154.258 162.736C154.434 158.964 154.258 155.192 153.469 151.507C153.074 149.665 152.504 147.911 151.846 146.157C151.188 144.402 150.442 142.648 149.609 140.981C147.986 137.56 146.1 134.27 144.039 131.113C139.916 124.797 134.916 119.051 129.17 114.183C123.425 109.314 116.89 105.367 109.872 102.647C102.723 100.016 96.056 96.0684 90.1349 91.2876C84.17 86.5069 78.8629 81.0244 74.0821 75.1471C71.7137 72.1646 69.4768 69.0944 67.3716 65.9804C65.3101 62.7786 63.3364 59.533 61.582 56.1557Z" fill="#D7D7D7"/>
<path d="M130.354 216.464C129.74 216.157 129.52 215.368 129.827 214.797C130.836 212.999 133.029 209.227 135.266 206.683C136.538 205.236 139.871 206.727 141.012 206.64C143.073 206.464 144.433 204.754 146.231 206.552C148.819 209.096 151.363 212.736 152.634 214.622C152.985 215.148 152.722 216.289 151.801 216.64C148.336 217.912 138.073 220.499 130.354 216.464Z" fill="#D7D7D7"/>
<path d="M562.987 505.458C562.987 516.116 541.057 532.169 536.189 518.748C530.443 502.782 502.285 509.493 499.741 500.677C497.767 493.967 521.452 482.037 535.882 490.984C549.741 499.625 562.987 496.291 562.987 505.458Z" fill="#F8F8F8"/>
<path d="M458.424 337.649C458.599 336.07 459.126 334.667 460.354 334.799C463.029 335.106 487.722 333.395 494.433 333C496.143 330.983 499.214 327.43 502.547 323.527C507.679 317.605 513.6 310.939 516.538 308.088C519.477 305.281 522.503 306.246 523.995 308.614C525.266 310.632 525.398 313.614 523.424 316.202C521.538 318.658 517.898 322.912 514.082 327.298C508.512 333.658 502.415 340.369 500.486 342.518C499.872 343.176 499.126 343.658 498.249 343.878C497.635 344.053 496.933 344.141 496.363 344.185C489.433 344.404 462.503 343.571 459.827 343.088C458.512 342.913 458.292 338.702 458.424 337.649Z" fill="white"/>
<path d="M447.109 335.325C448.03 335.413 449.916 335.106 450.793 334.492C450.574 334.36 448.512 334.097 448.293 334.053C446.363 333.395 447.284 333.088 446.802 332.211C446.319 331.29 446.582 331.684 448.6 331.641C449.433 331.641 451.363 331.597 452.109 331.86C452.591 332.035 453.293 332.386 453.995 332.869C455.925 333.834 456.1 335.062 458.6 335.369C459.083 335.413 460.179 335.413 460.179 335.413C461.846 335.763 462.284 341.992 460.705 342.211C458.995 342.43 457.767 343.351 456.758 343.658C455.442 344.053 453.469 344.272 449.828 344.404C448.688 344.448 446.714 343.658 445.486 342.649C444.258 341.641 443.688 338.702 443.819 336.509C444.082 334.316 444.916 335.106 447.109 335.325Z" fill="white"/>
<path d="M542.505 510.019C541.496 512.081 541.628 511.16 540.005 514.668C539.084 516.642 538.514 519.844 542.856 520.326C545.619 520.633 548.47 519.361 550.268 517.87C551.409 516.905 553.295 514.668 554.128 511.467C554.304 510.809 556.058 509.098 556.716 507.695C557.374 506.335 559.26 502.388 554.304 500.239C549.347 498.089 546.102 503.791 545.356 505.063C544.61 506.335 543.953 507.037 542.505 510.019Z" fill="#D7D7D7"/>
<path d="M557.154 501.51C556.365 499.449 557.242 498.309 555.356 498.133C549.961 497.695 546.628 500.546 546.101 501.905C545.575 503.221 545.312 502.212 543.557 507.081C542.943 508.747 542.285 510.282 541.496 511.291C540.926 512.037 540.356 513.046 540.136 513.616C539.522 515.195 538.601 517.563 541.584 518.616C544.61 519.669 547.812 518.09 549.391 516.905C551.233 515.502 552.373 513.791 553.645 510.589C553.908 509.932 556.803 506.642 557.154 504.756C557.286 504.318 557.724 502.87 557.154 501.51Z" fill="#D7D7D7"/>
<path d="M527.986 498.923C525.136 500.019 523.907 500.721 520.53 501.116C518.864 501.291 513.293 501.861 511.539 499.888C511.232 499.537 511.276 497.826 511.363 497.475C511.714 495.94 514.434 495.677 515.53 495.195C520.092 493.265 519.872 494.317 524.565 493.221C525.443 493.002 530.092 491.817 532.109 491.598C533.469 491.467 538.513 492.431 538.644 492.738C539.697 495.94 536.715 496.686 534.96 497.168C533.162 497.607 531.232 497.651 527.986 498.923Z" fill="#D7D7D7"/>
<path d="M538.249 487.037C538.161 486.51 538.03 486.291 537.898 486.159C536.846 485.282 534.828 487.607 531.539 488.835C529.039 489.756 527.898 486.774 525.968 488.309C525.705 488.528 523.161 490.94 519.433 492.431C519.126 492.563 515.705 493.572 515.617 493.616C513.074 494.537 510.398 496.51 511.626 498.309C513.249 500.721 518.951 499.8 520.617 499.537C522.679 499.23 523.951 499.054 528.074 497.388C531.319 496.072 533.293 496.072 534.96 495.589C536.319 495.239 538.6 494.624 538.688 493.265C538.688 493.265 539.126 491.905 539.039 490.765C538.863 488.747 538.381 487.695 538.249 487.037Z" fill="#D7D7D7"/>
<path d="M519.697 381.641C520.004 377.825 527.416 379.843 530.618 380.939C532.504 381.597 536.934 384.316 538.03 385.983C542.416 392.694 542.811 397.299 542.592 400.72C542.285 406.729 540.048 412.124 538.337 418.571C536.539 425.413 536.013 436.685 536.144 443.44C536.232 446.159 538.337 485.94 537.504 487.475C537.109 488.221 534.828 490.545 532.197 490.677C526.056 490.984 526.1 488.791 526.232 487.826C526.714 483.396 522.547 452.694 521.758 444.317C520.53 436.949 518.6 421.598 518.469 410.852C518.381 399.097 518.907 392.124 519.697 381.641Z" fill="white"/>
<path d="M533.076 384.667C533.207 375.895 546.672 381.29 549.348 381.816C550.927 382.123 557.725 383.571 560.62 389.58C562.813 394.097 559.874 420.369 556.541 444.273C556.102 448.308 556.234 499.274 556.234 499.274C556.234 499.274 556.234 501.598 554.085 502.958C550.401 505.326 547.725 504.668 546.585 504.318C545.225 503.879 545.357 503.309 545.357 501.818C545.269 480.019 541.936 459.58 541.409 446.861C540.664 438.659 539.874 400.852 533.032 398.001C531.278 397.255 533.032 386.466 533.076 384.667Z" fill="white"/>
<path d="M514.085 327.342C517.945 322.956 521.541 318.702 523.427 316.246C525.401 313.658 525.269 310.632 523.997 308.658C523.559 307.561 521.98 306.772 521.541 306.772C519.962 306.772 517.374 309.974 516.322 311.553C514.26 314.667 513.734 320.939 514.085 327.342Z" fill="#D7D7D7"/>
<path d="M515.927 332.035C515.006 323.79 515.269 313.746 518.252 309.623C519.348 308.088 520.182 307.342 521.673 306.772C522.945 306.246 538.647 308.351 543.822 311.07C551.41 315.018 561.278 325.062 563.208 328.834C564.392 331.202 564.831 341.246 564.612 352.562C564.393 365.457 561.015 386.773 560.05 387.913C558.164 390.106 551.41 390.545 551.41 390.545C532.506 391.597 522.068 384.755 519.831 379.623C519.568 379.009 518.997 371.027 518.12 359.229C517.901 356.509 516.41 336.246 515.927 332.035Z" fill="white"/>
<path d="M563.295 329.097C564.918 331.202 564.787 341.246 564.611 352.562C564.523 358.176 563.822 365.413 562.988 371.816C562.374 366.334 563.208 361.86 560.181 351.948C558.558 346.641 553.953 339.448 553.865 333.921C553.822 328.877 560.444 325.325 563.295 329.097Z" fill="#D7D7D7"/>
<path d="M531.365 386.027L533.207 386.466C533.207 386.466 531.759 364.711 532.768 331.86C532.9 327.079 536.54 314.623 536.54 314.623L533.163 311.947C533.163 311.947 531.101 326.333 530.838 331.29C528.996 363.395 531.365 386.027 531.365 386.027Z" fill="#D7D7D7"/>
<path d="M560.708 385.852C560.708 385.852 534.918 391.641 519.391 377.474C519.26 380.15 519.962 381.816 519.962 381.816C519.962 381.816 532.111 395.632 560.62 389.58C561.102 387.606 560.708 385.852 560.708 385.852Z" fill="#D7D7D7"/>
<path d="M534.656 385.106L530.489 383.878C530.095 383.79 529.744 384.053 529.7 384.448L529.568 387.825C529.568 388.132 529.744 388.352 530.007 388.439L534.261 389.536C534.656 389.624 535.007 389.36 535.007 388.966L535.095 385.72C535.095 385.413 534.919 385.194 534.656 385.106Z" fill="#D7D7D7"/>
<path d="M541.146 307.561L540.707 310.325C540.707 310.325 533.514 313.044 531.365 318C531.365 314.842 531.979 312.781 532.155 311.553C537.243 308.482 541.146 307.561 541.146 307.561Z" fill="#D7D7D7"/>
<path d="M546.982 312.912C547.026 313.702 546.236 314.535 545.973 314.798C544.876 315.851 541.017 317.737 536.236 316.509C533.561 315.851 533.21 313.79 533.21 313.79L533.078 309.36L547.991 296.553C547.991 296.553 546.938 308.175 546.938 310.105C546.982 311.246 546.982 312.035 546.982 312.912Z" fill="#FBD5BF"/>
<path d="M524.569 283.438C523.648 285.193 523.648 287.167 523.824 290.281C523.868 290.807 523.517 296.553 523.692 297.912C524.701 304.93 527.42 309.36 528.868 309.93C530.797 310.675 533.034 311.202 535.929 309.974C537.376 309.36 541.499 306.904 543.21 305.675C544.262 304.93 545.14 300.851 545.534 299.667C545.798 298.921 545.885 300.5 546.894 300.5C547.684 300.5 547.947 300.018 548.122 299.842C554.833 290.368 554.219 277.254 546.938 274.359C539.613 271.421 527.596 277.605 524.569 283.438Z" fill="#FBD5BF"/>
<path d="M526.894 278.263C525.753 279.316 525.008 280.544 523.297 278.745C522.771 278.175 521.148 282.912 525.315 283.921C526.499 284.184 528.078 284.974 531.938 285.061C532.508 285.061 537.683 284.71 538.955 284.535C539.262 284.491 539.482 284.535 539.701 284.623C539.92 284.71 540.052 284.886 540.183 285.105C540.797 286.07 540.622 287.956 540.754 288.175C541.499 289.316 543.166 289.491 543.166 291.07C543.166 291.333 542.903 295.895 546.806 295.193C546.061 294.71 545.534 293.702 546.192 292.123C546.719 290.851 547.376 290.017 548.341 289.842C550.096 289.535 550.227 292.342 549.526 295.061C548.736 298.175 547.596 300.149 548.254 299.974C551.412 299.096 553.736 296.333 552.157 296.114C549.745 295.763 556.368 287.43 552.596 278.833C548.078 268.438 533.824 271.947 526.894 278.263Z" fill="#D7D7D7"/>
<path d="M520.445 291.026C520.445 291.684 521.016 291.684 521.016 291.684C521.016 291.684 521.323 291.991 521.323 292.254C521.366 292.517 521.717 294.579 522.551 295.588C523.209 296.377 524.437 296.991 525.884 297.035C526.542 297.079 527.156 296.903 527.507 296.772C527.551 296.772 527.945 296.289 528.033 296.158C528.165 295.939 528.296 295.719 528.34 295.5C528.428 295.149 528.516 294.272 528.472 293.439C528.954 293.219 529.481 293.131 529.963 293.702L530.007 294.053C530.226 294.93 530.358 295.851 530.533 296.246C530.884 297.035 531.893 298.175 533.296 298.57C534.437 298.877 535.445 298.833 536.059 298.482C536.059 298.482 536.41 298.088 536.542 297.912C536.542 297.912 536.542 297.912 536.586 297.868C537.2 297.123 537.068 295.719 537.068 295.412C537.068 295.324 537.112 295.412 537.156 295.412C537.2 295.412 546.191 292.035 546.235 291.947C546.805 290.938 547.112 290.544 547.112 290.544C546.849 290.544 539.744 292.517 537.902 293.482C537.595 293.658 537.244 293.702 536.893 293.57C536.586 293.439 536.191 293.307 535.972 293.219C535.27 292.868 532.463 291.333 530.138 291.86C529.48 291.903 528.735 291.86 527.902 291.421C526.059 290.5 524.568 290.237 523.954 290.324L523.91 289.842C523.691 289.842 520.84 290.5 520.84 290.5C520.84 290.5 520.445 290.938 520.445 291.026ZM530.621 292.693C531.191 292.561 531.893 292.605 532.638 292.737C534.086 293 535.358 293.702 535.928 293.965L536.016 294.009C536.279 294.14 536.586 294.886 536.63 295.281C536.674 295.675 536.674 297.123 536.235 297.605C535.972 297.912 535.182 298.351 534.086 298.132C533.866 298.088 533.691 298.044 533.472 297.956C532.507 297.605 531.849 297.167 531.366 296.158C531.235 295.851 531.016 294.974 530.84 294.14C530.577 293.263 530.577 292.824 530.621 292.693ZM522.2 292.474C522.156 292.079 522.287 291.421 522.507 291.377H522.594C523.121 291.289 524.305 291.114 525.709 291.421C526.454 291.553 527.156 291.816 527.814 292.167C527.902 292.298 527.989 292.781 527.989 293.658C527.989 294.447 527.902 295.149 527.858 295.368C527.638 296.246 526.98 296.553 526.059 296.553C525.84 296.553 525.665 296.509 525.445 296.465C524.349 296.246 523.516 295.675 523.165 295.193C522.551 294.491 522.244 292.824 522.2 292.474Z" fill="white"/>
<path d="M520.401 291.553C520.489 292.167 520.577 292.167 520.577 292.167C520.577 292.167 521.147 292.386 521.191 292.605C521.235 292.868 521.629 294.71 522.463 295.719C523.121 296.509 524.393 297.254 525.84 297.298C527.287 297.342 527.77 296.64 527.945 295.982C528.033 295.631 528.121 294.754 528.077 293.921C528.559 293.702 529.305 293.789 529.831 294.36C530.05 295.237 530.357 296.114 530.533 296.509C530.884 297.298 531.586 298.219 533.121 298.789C534.612 299.316 535.752 299.009 536.235 298.482C536.849 297.781 536.761 295.982 536.717 295.719C536.673 295.456 537.244 295.5 537.244 295.5C537.244 295.5 537.331 295.544 537.244 294.93C537.2 294.403 537.068 294.36 537.068 294.36C537.068 294.36 536.015 294.009 535.621 293.789C534.919 293.438 532.112 291.903 529.787 292.43C529.129 292.474 528.208 292.298 527.55 291.991C525.007 290.544 522.463 290.982 521.805 291.07C521.454 291.114 520.445 291.07 520.445 291.07C520.445 291.07 520.314 291.026 520.401 291.553ZM530.182 293.175C530.752 293.044 531.454 293.088 532.2 293.219C533.647 293.482 534.919 294.184 535.489 294.447L535.577 294.491C535.84 294.623 536.147 295.368 536.191 295.763C536.235 296.158 536.235 297.605 535.796 298.088C535.533 298.395 534.831 298.702 533.735 298.482C533.515 298.439 533.34 298.395 533.121 298.307C532.156 297.956 531.498 297.517 531.015 296.509C530.884 296.202 530.621 295.456 530.401 294.623C530.138 293.746 530.138 293.307 530.182 293.175ZM521.761 292.956C521.717 292.561 521.849 291.903 522.068 291.86H522.156C522.682 291.772 523.866 291.596 525.27 291.903C526.015 292.035 526.717 292.298 527.375 292.649C527.463 292.781 527.55 293.263 527.55 294.14C527.55 294.93 527.463 295.631 527.419 295.851C527.2 296.728 526.629 296.947 525.708 296.903C525.489 296.903 525.314 296.86 525.094 296.816C523.998 296.596 523.164 296.026 522.814 295.544C522.2 294.842 521.805 293.307 521.761 292.956Z" fill="#D7D7D7"/>
<path d="M547.024 308.877C548.515 309.009 549.085 314.623 549.085 314.623C549.085 314.623 545.269 317.956 534.699 319.798C536.103 316.816 536.278 315.105 536.585 313.658C542.813 312.342 546.585 308.833 547.024 308.877Z" fill="#D7D7D7"/>
<path d="M506.145 342.65C506.145 342.606 504.171 321.86 504.171 321.86C504.171 321.553 503.952 321.246 503.513 321.027C502.68 320.676 501.452 320.763 500.706 321.29C500.355 321.509 500.224 321.816 500.18 322.079C500.18 322.123 500.18 322.167 500.18 322.211L502.153 343V343.044C502.197 343.307 502.417 343.571 502.811 343.79C503.645 344.141 504.873 344.053 505.618 343.527C505.969 343.22 506.145 342.913 506.145 342.65Z" fill="#D7D7D7"/>
<path d="M500.926 325.325C501.847 325.763 503.251 325.632 504.084 325.062C504.523 324.755 504.742 324.36 504.654 324.009L504.128 318.877L499.654 319.36L500.181 324.448C500.181 324.491 500.181 324.535 500.181 324.579C500.268 324.842 500.488 325.105 500.926 325.325Z" fill="#D7D7D7"/>
<path d="M494.829 282.342C497.899 281.026 501.495 281.772 504.96 284.403C507.11 286.026 509.127 288.395 510.75 291.07L510.794 291.114V291.158C511.539 292.386 512.197 293.702 512.767 295.105C513.074 295.807 513.338 296.553 513.557 297.298C514.303 299.579 514.785 301.86 514.917 304.009C515.004 305.5 515.004 306.947 514.829 308.307C514.259 312.693 512.285 315.807 509.215 317.123L503.995 319.36L503.294 317.649C505.75 316.728 507.548 314.184 508.074 310.193C508.206 309.14 508.25 308.044 508.206 306.904C508.118 304.667 507.68 302.386 506.934 300.149C506.232 297.956 505.267 295.851 504.083 293.921C502.636 291.553 500.881 289.491 498.908 288C495.75 285.588 492.68 285.105 490.311 286.289L489.609 284.579L494.829 282.342Z" fill="#1E91CF"/>
<path d="M486.101 293.482C485.794 295.982 486.014 298.702 486.672 301.377C487.198 303.57 488.031 305.763 489.04 307.781C490.18 310.018 491.628 312.079 493.251 313.79C493.908 314.491 494.61 315.105 495.356 315.676C499.391 318.746 503.295 318.658 505.751 316.026C503.952 315.983 501.979 315.237 499.961 313.702C499.216 313.132 498.558 312.518 497.856 311.816C496.233 310.149 494.786 308.088 493.645 305.807C492.593 303.789 491.803 301.596 491.277 299.403C490.619 296.684 490.4 293.965 490.707 291.509C491.058 288.965 491.891 286.991 493.119 285.675C489.523 285.631 486.759 288.395 486.101 293.482Z" fill="#D7D7D7"/>
<path d="M484.259 293.263C483.732 297.298 484.478 301.947 486.32 306.421C488.162 310.895 490.969 314.711 494.171 317.123C497.636 319.755 501.233 320.5 504.303 319.184C507.373 317.869 509.347 314.754 509.917 310.368C510.443 306.333 509.698 301.684 507.855 297.21C506.013 292.737 503.206 288.921 500.004 286.509C496.539 283.877 492.943 283.131 489.873 284.447C486.846 285.763 484.829 288.921 484.259 293.263ZM498.908 288C505.004 292.605 509.127 302.561 508.119 310.193C507.11 317.825 501.408 320.281 495.311 315.676C489.215 311.07 485.092 301.114 486.101 293.482C487.066 285.851 492.811 283.395 498.908 288Z" fill="white"/>
<path opacity="0.48" d="M486.89 294.096C485.969 301.202 506.364 316.684 507.285 309.579C508.206 302.474 504.39 293.263 498.732 289.009C493.118 284.754 487.811 286.991 486.89 294.096Z" fill="url(#paint1_linear_1020_356)"/>
<path d="M562.285 345.15C563.425 343.921 564.127 342.606 564.565 341.334C564.522 339.272 564.434 337.386 564.302 335.676C562.679 332.211 558.25 330.895 553.864 335.807C549.521 340.632 535.969 354.711 535.969 354.711C535.706 354.974 535.442 355.237 535.223 355.457C530.925 353.088 522.591 347.079 516.846 342.957C517.197 347.299 517.547 351.992 517.811 355.237C517.898 355.325 517.986 355.413 518.118 355.457C525.267 361.29 532.109 366.597 536.583 366.86C539.872 367.255 542.416 364.404 543.863 362.957C548.381 358.439 557.899 349.93 562.285 345.15Z" fill="#D7D7D7"/>
<path d="M512.065 334.667C514.609 336.114 529.784 347.562 536.144 351.114C536.363 350.895 536.582 350.632 536.889 350.369C536.889 350.369 550.442 336.29 554.784 331.465C562.46 322.912 570.091 333.351 563.205 340.807C558.776 345.588 549.302 354.097 544.784 358.658C543.337 360.106 540.793 362.957 537.503 362.562C532.986 362.299 526.188 356.992 519.038 351.158C512.635 345.939 508.644 343.395 506.933 341.728C506.363 341.202 507.24 336.992 507.986 336.114C509.433 334.448 511.538 334.36 512.065 334.667Z" fill="white"/>
<path d="M501.582 327.825C502.196 328.483 503.117 329.404 505.003 329.272C504.916 329.053 504.696 328.263 504.696 328.044C504.652 326.772 504.433 325.983 504.433 324.711C504.433 324.711 504.784 324.93 505.573 325.632C506.188 326.202 507.679 327.386 508.074 328.088C508.337 328.527 508.6 329.228 508.863 330.106C509.696 332.123 509.565 333.439 511.012 334.667C511.407 334.974 511.495 335.281 511.495 335.281C512.503 336.904 508.688 341.772 507.328 341.114C505.749 340.369 504.916 340.5 503.951 340.062C502.679 339.535 501.056 338.395 498.249 336.114C497.372 335.413 497.679 332.913 497.416 331.334C497.152 329.799 497.766 324.009 498.512 323.877C500.442 323.57 500.047 326.202 501.582 327.825Z" fill="#FBD5BF"/>
<path d="M443.644 359.93C445.618 358.658 447.153 355.72 447.065 353.395L445.311 314.842C444.872 306.991 444.258 304.096 444.258 304.096L478.469 322.518C478.469 322.518 479.565 326.114 479.522 332.825L481.276 371.378C481.364 373.702 479.829 376.641 477.855 377.913L477.636 378.045L443.381 360.018L443.644 359.93Z" fill="#D7D7D7"/>
<path d="M444.654 335.062C444.654 335.062 446.759 333.702 447.768 334.272C448.777 334.842 449.829 337.781 449.742 339.141C449.698 340.456 448.733 342.956 447.812 343.176C446.891 343.395 446.671 343.351 446.233 343.088C445.794 342.781 443.513 337.43 444.654 335.062Z" fill="#FBD5BF"/>
<path d="M211.979 375.018C211.979 381.246 225.049 386.29 241.145 386.29C257.242 386.29 270.312 381.246 270.312 375.018C270.312 368.79 257.242 363.746 241.145 363.746C225.005 363.746 211.979 368.79 211.979 375.018Z" fill="#F8F8F8"/>
<path d="M231.409 366.246C235.532 364.887 239.304 366.904 244.786 366.948C246.409 366.948 250.663 365.15 252.549 368.571C252.418 370.369 251.102 371.729 249.655 372.299C246.979 373.966 243.821 374.623 241.058 373.439C237.768 372.211 233.997 371.202 232.374 371.246C231.496 371.29 229.567 375.764 229.567 375.764C228.602 376.071 228.207 375.808 228.119 375.588C227.418 372.869 226.54 371.115 225.356 369.887C224.523 368.878 224.347 366.641 225.4 365.808C227.198 365.588 228.075 367.343 231.409 366.246Z" fill="white"/>
<path d="M247.943 368.088C247.811 368.395 245.574 370.369 245.223 370.369C241.846 370.72 232.899 368.79 228.556 365.676C225.662 363.571 227.635 359.887 227.635 359.887C228.118 358.79 228.688 357.211 228.688 355.281C228.688 354.404 237.021 353.571 237.285 357.43C237.548 361.027 239.653 363.044 239.916 363.22C241.32 364.273 244.346 364.843 245.004 364.93C245.881 365.15 247.372 365.544 247.767 366.115C247.943 366.422 248.03 367.781 247.943 368.088Z" fill="white"/>
<path d="M227.46 359.711C227.679 359.448 228.644 361.29 228.864 361.553C229.96 363.088 231.978 364.843 233.557 365.72C240.399 369.492 244.258 369.755 246.188 368.483C246.495 368.308 247.504 366.992 246.451 365.764C245.969 365.237 245.574 365.15 245.004 364.974C246.495 365.237 248.03 365.062 250.487 365.895C252.066 366.422 252.723 366.816 252.548 368.571C252.46 369.667 250.136 371.378 248.294 372.255C246.978 372.869 245.487 373.132 244.434 373.045C240.53 372.738 239.565 372.08 237.679 371.641C235.706 371.159 234.609 370.676 233.074 370.457C232.241 370.325 231.715 370.413 230.048 370.72C228.381 370.983 225.793 370.545 225.048 369.053C223.732 366.422 226.188 362.387 226.188 362.387L227.46 359.711Z" fill="#D7D7D7"/>
<path d="M237.24 359.667C237.678 348.307 238.468 340.018 238.863 331.334C239.082 326.29 240.266 312.562 241.406 307.737C242.985 300.939 242.635 271.947 240.749 270.675C232.722 265.237 227.459 287.342 227.459 287.342C230.354 303.219 225.705 311.597 228.775 339.141C229.608 346.465 228.687 355.369 228.643 355.808C228.292 357.913 228.775 360.018 232.985 360.764C234.52 361.027 237.196 360.72 237.24 359.667Z" fill="#FBD5BF"/>
<path d="M239.257 366.466C243.906 368.395 245.178 368.834 250.441 370.895C252.02 371.509 258.38 371.948 256.932 375.15C255.836 377.606 253.774 379.141 252.371 379.36C249.388 379.843 247.546 379.097 244.651 377.474C244.037 377.124 241.406 374.141 237.327 373.132C235.704 372.738 233.072 375.939 232.371 377.08C232.283 377.211 232.108 377.299 231.976 377.255L231.23 377.036C230.967 376.948 230.792 376.685 230.792 376.378C230.879 374.492 230.441 372.387 229.958 371.378C229.476 370.369 229.125 369.36 229.081 367.957C229.037 366.071 230.309 364.448 232.108 364.887C233.73 365.281 236.143 365.194 239.257 366.466Z" fill="white"/>
<path d="M252.766 372.957C252.635 373.308 251.582 374.053 251.187 374.097C249.608 374.141 241.187 372.474 239.521 371.641C237.722 370.72 234.389 368.439 233.687 367.474C232.503 365.808 232.854 363.176 232.678 362.387C232.547 361.816 235.266 358.834 235.266 358.834C236.933 359.229 240.047 360.544 243.249 361.597C243.249 361.597 243.512 365.194 248.731 369.404C249.17 369.755 250.047 370.106 251.056 370.457C251.231 370.72 252.459 371.29 252.679 371.466C252.854 371.597 252.854 372.738 252.766 372.957Z" fill="#FBD5BF"/>
<path d="M232.986 360.895C234.214 359.843 233.863 360.457 234.17 361.816C234.345 362.65 234.521 364.273 235.749 365.939C236.451 366.904 237.723 368.352 239.477 369.404C242.196 371.071 245.486 372.913 250.398 373.264C250.793 373.308 252.065 372.431 251.845 371.466C251.714 370.895 251.319 370.72 251.144 370.501C253.205 371.246 256.1 372.036 257.065 373.352C257.547 374.01 257.109 375.15 256.67 375.632C256.67 375.632 253.468 379.36 249.784 378.615C246.407 377.957 244.477 376.51 239.696 373.088C237.328 371.422 234.126 372.387 232.24 371.509C230.968 370.895 227.986 369.053 229.521 365.413C230.222 363.615 232.152 361.641 232.986 360.895Z" fill="#D7D7D7"/>
<path d="M233.601 267.123C233.338 264.798 226.364 261.158 225.531 259.842C225.136 259.228 224.171 258 223.513 256.815C223.25 256.333 217.811 259.535 217.987 259.842C218.82 261.509 219.566 261.947 219.741 263.965C220.004 266.684 223.25 272.824 223.952 273.789C225.75 276.421 231.715 276.596 233.162 274.754C233.557 274.272 229.566 269.71 230.574 266.772C231.013 265.456 234.39 274.403 233.601 267.123Z" fill="#FBD5BF"/>
<path d="M227.021 197.21C227.679 194.797 226.977 192.648 225.53 191.157C224.082 189.666 221.1 189.885 219.082 192.429C217.81 194.096 210.179 214.271 207.547 223.833C206.977 225.85 206.451 227.78 206.626 231.42C206.626 232.21 206.714 233.043 206.845 233.877C206.845 233.921 206.845 233.921 206.845 233.964C207.547 238.175 209.477 242.912 210.442 245.193C211.889 248.745 214.389 253.263 215.398 255.631C216.363 257.824 217.81 260.807 217.81 260.807C217.81 260.807 219.346 262.166 222.503 261.333C224.521 260.807 225.091 259.666 225.091 259.666C225.091 259.666 220.574 246.07 220.223 244.71C219.258 241.026 218.074 238.175 216.275 231.64C216.626 228.57 217.547 224.929 217.942 223.35C221.363 210.587 226.363 199.71 227.021 197.21Z" fill="#D7D7D7"/>
<path d="M234.871 359.272C234.871 359.272 234.345 363.044 239.784 364.93C243.029 366.071 243.424 361.948 243.424 361.948C249.17 344.886 252.108 337.562 254.959 330.5C259.915 318.395 262.81 312.254 263.643 308.483C264.126 306.246 263.336 284.36 263.468 283.789C264.696 279.272 249.257 281.202 249.257 281.202C249.257 281.202 251.012 304.36 250.442 306.377C248.292 313.921 243.117 332.474 241.845 339.36C239.652 351.246 234.871 359.272 234.871 359.272Z" fill="#FBD5BF"/>
<path d="M293.556 206.727C293.556 206.683 304.565 188.964 304.565 188.964C304.784 188.701 304.784 188.35 304.521 187.911C304.082 187.122 303.03 186.464 302.109 186.42C301.714 186.42 301.407 186.508 301.231 186.727C301.187 186.771 301.187 186.815 301.144 186.815L290.135 204.578C290.003 204.841 290.003 205.148 290.222 205.543C290.661 206.333 291.714 206.99 292.635 207.034C293.073 207.122 293.38 206.99 293.556 206.727Z" fill="#D7D7D7"/>
<path d="M299.872 189.797C300.355 190.674 301.539 191.464 302.548 191.508C303.118 191.552 303.469 191.332 303.644 191.025L306.32 186.639L302.46 184.315L299.784 188.701C299.741 188.745 299.741 188.789 299.697 188.832C299.653 189.008 299.653 189.359 299.872 189.797Z" fill="#D7D7D7"/>
<path d="M321.055 151.902C324.256 152.692 326.713 155.455 327.853 159.665C328.599 162.253 328.774 165.367 328.423 168.481C328.423 168.525 328.423 168.525 328.423 168.569V168.613C328.248 170.06 327.985 171.508 327.59 172.955C327.371 173.701 327.151 174.446 326.932 175.192C326.142 177.429 325.134 179.534 323.949 181.376C323.16 182.604 322.239 183.745 321.274 184.71C318.16 187.867 314.695 189.139 311.449 188.35L305.967 186.99L306.449 185.192C308.949 185.981 311.932 185.017 314.739 182.166C315.484 181.42 316.186 180.543 316.844 179.622C318.116 177.78 319.169 175.674 319.914 173.481C320.66 171.332 321.186 169.051 321.406 166.815C321.669 164.051 321.537 161.332 320.879 158.964C319.827 155.148 317.677 152.911 315.09 152.385L315.572 150.586L321.055 151.902Z" fill="#1E91CF"/>
<path d="M307.371 155.499C305.617 157.297 304.126 159.578 303.029 162.122C302.108 164.183 301.45 166.42 301.055 168.657C300.617 171.157 300.485 173.657 300.748 175.981C300.88 176.946 301.011 177.867 301.275 178.745C302.634 183.657 305.792 185.938 309.345 185.324C307.941 184.227 306.845 182.429 306.143 179.973C305.88 179.095 305.704 178.174 305.617 177.209C305.354 174.885 305.441 172.385 305.924 169.885C306.319 167.648 307.02 165.411 307.897 163.35C309.038 160.806 310.485 158.481 312.24 156.727C314.038 154.885 315.924 153.832 317.678 153.525C314.871 151.288 310.968 151.858 307.371 155.499Z" fill="url(#paint2_linear_1020_356)"/>
<path d="M306.056 154.227C303.205 157.122 300.968 161.288 299.74 165.981C298.512 170.674 298.424 175.367 299.477 179.227C300.661 183.438 303.073 186.201 306.275 186.99C309.477 187.78 312.986 186.508 316.1 183.35C318.951 180.455 321.188 176.288 322.416 171.595C323.644 166.902 323.731 162.209 322.679 158.35C321.495 154.139 319.082 151.376 315.88 150.586C312.635 149.797 309.17 151.069 306.056 154.227ZM320.88 158.876C322.942 166.244 320.179 176.639 314.784 182.122C309.389 187.604 303.336 186.069 301.275 178.745C299.214 171.376 301.977 160.981 307.372 155.499C312.766 150.016 318.819 151.551 320.88 158.876Z" fill="white"/>
<path opacity="0.48" d="M307.637 156.464C302.593 161.551 309.479 186.245 314.523 181.157C319.566 176.069 322.067 166.42 320.181 159.622C318.251 152.779 312.68 151.376 307.637 156.464Z" fill="url(#paint3_linear_1020_356)"/>
<path d="M292.724 197.341C291.846 199.315 292.329 202.692 292.153 204.797C292.11 205.587 290.443 207.517 290.531 207.604C290.838 208.131 295.75 211.42 295.969 211.113C297.154 209.447 297.636 208.219 299.215 207.122C301.452 205.587 302.154 203.745 302.724 202.429C303.25 201.245 303.031 197.034 301.189 194.403C301.189 194.403 299.522 197.297 298.952 197.648C298.732 197.78 293.557 200.192 295.882 195.894C297.241 193.394 295.706 193.218 295.268 193.745C294.785 194.271 293.118 196.464 292.724 197.341Z" fill="#FBD5BF"/>
<path d="M267.46 294.798C267.46 294.798 259.039 300.807 239.784 299.097C231.67 298.351 225.135 293.921 224.872 291.772C223.205 276.552 224.258 272.079 223.249 267.035C221.275 257.166 224.389 249.579 226.582 243.043C226.802 242.429 226.977 241.815 227.109 241.201C227.196 240.807 227.24 240.456 227.328 240.061C227.372 239.885 227.372 239.666 227.416 239.491C227.459 239.271 227.459 239.096 227.459 238.921C227.503 238.526 227.503 238.175 227.503 237.78V237.736C227.591 232.21 225.486 225.631 222.81 213.569C220.924 205.148 222.284 208.92 221.056 202.736C220.749 201.201 219.345 192.604 222.942 190.148C224.302 189.227 228.03 188.745 230.881 188.964C234.784 189.227 239.477 188.832 243.074 190.499C247.109 192.385 250.442 193.306 254.784 196.683C258.162 199.315 256.714 201.025 257.372 203.043C258.556 206.552 260.091 211.113 262.811 217.122C264.126 219.973 259.916 224.315 258.381 225.938C256.1 228.35 256.495 235.587 256.802 238.745C256.846 238.964 256.846 239.228 256.89 239.535C256.977 240.412 257.109 241.421 257.153 241.771C257.153 241.859 257.197 241.903 257.197 241.903C257.942 244.271 262.153 252.342 263.337 257.956C264.434 263.175 264.565 269.491 264.477 276.333C264.302 286.991 267.46 294.798 267.46 294.798Z" fill="white"/>
<path d="M257.153 241.728C251.012 242.298 245.881 242.517 241.67 242.298C234.784 241.991 229.214 240.894 227.284 240.061C227.284 240.061 227.284 240.061 227.24 240.061C227.284 239.885 227.328 239.71 227.328 239.491C227.416 238.921 227.416 238.35 227.416 237.78V237.736C231.889 238.833 240.574 240.894 256.802 239.491C256.977 240.368 257.109 241.333 257.153 241.728Z" fill="#D7D7D7"/>
<path d="M231.802 189.885L231.539 177.034L244.872 180.148L244.171 190.938C244.171 190.938 242.372 193.087 235.837 192.604C233.513 192.517 232.065 190.631 231.802 189.885Z" fill="#FBD5BF"/>
<path d="M227.59 167.429C228.993 180.06 240.002 177.341 239.915 178.131C239.827 179.315 240.529 179.885 241.099 180.06C241.581 180.236 242.195 179.929 242.546 179.709C243.029 179.359 242.195 181.288 244.608 183.35C247.195 185.543 251.055 185.411 251.45 183.35C251.757 181.815 252.283 180.104 252.809 178.964C253.292 177.911 252.722 177.297 252.985 176.201C253.292 175.016 254.783 174.929 254.783 173.701C254.783 172.692 252.415 169.534 252.152 168.832C251.932 168.262 252.722 166.595 252.634 165.981C251.713 160.104 251.494 156.069 242.985 155.192C232.897 154.227 226.669 159.008 227.59 167.429Z" fill="#FBD5BF"/>
<path d="M223.162 173.174C222.592 170.323 222.987 165.806 223.952 162.341C225.75 155.806 230.662 153.174 237.505 153.086C244.61 152.999 249.128 154.007 251.671 158.262C251.935 158.701 252.417 160.806 252.417 161.464C252.636 162.78 252.899 165.104 251.364 168.92C249.127 174.534 245.18 174.885 244.654 175.587C244.391 175.938 244.785 172.034 244.171 170.806C243.645 169.709 242.856 169.359 242.11 169.402C240.18 169.578 239.522 173.218 240.268 177.034C241.189 181.683 236.32 183.043 233.864 182.824C229.873 182.517 224.259 178.964 223.162 173.174Z" fill="#D7D7D7"/>
<path d="M231.32 165.894C231.32 169.183 228.645 171.815 225.399 171.771C222.11 171.771 219.478 169.095 219.522 165.85C219.522 162.56 222.197 159.929 225.443 159.972C228.733 159.929 231.364 162.604 231.32 165.894Z" fill="white"/>
<path d="M220.091 164.666C220.091 164.666 207.328 164.095 206.933 178.701C206.539 193.306 202.811 194.929 202.811 194.929C202.811 194.929 208.863 200.587 215.091 196.946C221.276 193.306 223.776 191.464 222.811 182.078C221.846 172.692 222.767 168.35 224.872 167.823C226.977 167.297 224.302 164.051 220.091 164.666Z" fill="#D7D7D7"/>
<path d="M267.372 231.727C264.258 226.377 257.723 216.157 254.828 211.552C252.241 207.429 251.188 204.929 251.232 202.341C251.232 199.841 252.153 197.561 254.083 196.771C256.934 195.675 259.127 197.955 261.144 201.596C261.451 202.166 269.346 215.85 273.688 222.78C277.065 219.929 280.223 217.78 282.46 215.587C287.153 210.894 290.881 205.806 290.881 205.806C290.881 205.806 291.89 203.745 295.618 205.85C297.416 206.903 297.68 209.622 297.68 209.622C297.68 209.622 292.592 216.727 291.715 217.824C287.022 223.657 284.872 226.552 280.048 231.333C276.627 234.666 274.083 236.157 272.153 235.894C270.179 235.587 268.03 232.868 267.372 231.727Z" fill="#D7D7D7"/>
<defs>
<linearGradient id="paint0_linear_1020_356" x1="418.267" y1="181.101" x2="379.118" y2="204.868" gradientUnits="userSpaceOnUse">
<stop offset="0.8197" stop-color="#E6EDF7"/>
<stop offset="0.912" stop-color="#D0DAE6"/>
<stop offset="1" stop-color="#BFCCD9"/>
</linearGradient>
<linearGradient id="paint1_linear_1020_356" x1="509.33" y1="301.657" x2="486.344" y2="295.85" gradientUnits="userSpaceOnUse">
<stop stop-color="white"/>
<stop offset="0.9693" stop-color="#B4B4B4"/>
</linearGradient>
<linearGradient id="paint2_linear_1020_356" x1="313.277" y1="184.476" x2="306.827" y2="153.557" gradientUnits="userSpaceOnUse">
<stop stop-color="#E6EDF7"/>
<stop offset="0.2563" stop-color="#E0E8F3"/>
<stop offset="0.5866" stop-color="#D0DBE6"/>
<stop offset="0.8408" stop-color="#BFCCD9"/>
</linearGradient>
<linearGradient id="paint3_linear_1020_356" x1="320.92" y1="176.065" x2="306.145" y2="157.523" gradientUnits="userSpaceOnUse">
<stop stop-color="white"/>
<stop offset="0.9693" stop-color="#B4B4B4"/>
</linearGradient>
</defs>
</svg>
