<svg fill="none" height="41" viewBox="0 0 35 41" width="35" xmlns="http://www.w3.org/2000/svg">
    <defs>
        <clipPath id="clip0">
            <path d="M0 0h34.878v41H0z" fill="#fff"/>
        </clipPath>
    </defs>
    <g clip-path="url(#clip0)" fill="#1E91CF">
        <path
                d="M17.286 22.092h.272c2.488-.043 4.5-.917 5.986-2.59 3.269-3.684 2.725-10.001 2.666-10.604-.213-4.525-2.352-6.69-4.118-7.7C20.776.44 19.239.033 17.524 0h-.144c-.943 0-2.793.153-4.568 1.163-1.783 1.01-3.957 3.176-4.169 7.735-.06.603-.603 6.92 2.666 10.604 1.478 1.673 3.49 2.547 5.977 2.59zM10.91 9.11c0-.025.009-.05.009-.068.28-6.087 4.601-6.741 6.452-6.741h.102c2.293.05 6.19.985 6.453 6.741 0 .026 0 .051.008.068.009.06.603 5.833-2.097 8.873-1.07 1.205-2.496 1.8-4.372 1.816h-.085c-1.868-.016-3.303-.61-4.364-1.816-2.692-3.023-2.114-8.822-2.106-8.873z"/>
        <path
                d="M34.87 32.569v-.025c0-.068-.008-.136-.008-.213-.052-1.68-.162-5.612-3.847-6.868-.025-.009-.06-.017-.085-.026-3.829-.976-7.013-3.184-7.047-3.21a1.145 1.145 0 10-1.316 1.877c.145.102 3.524 2.454 7.752 3.54 1.978.705 2.2 2.82 2.259 4.755 0 .077 0 .145.008.212.008.765-.042 1.945-.178 2.624-1.376.781-6.767 3.481-14.969 3.481-8.168 0-13.593-2.708-14.977-3.49-.136-.679-.195-1.859-.178-2.623 0-.068.008-.136.008-.212.06-1.936.28-4.05 2.259-4.755 4.228-1.087 7.607-3.447 7.752-3.54a1.145 1.145 0 10-1.316-1.876c-.034.025-3.201 2.232-7.047 3.209-.034.008-.06.017-.085.025C.17 26.72.059 30.65.008 32.323c0 .076 0 .144-.008.212v.026c-.008.441-.017 2.708.433 3.846.085.22.238.407.442.535.254.17 6.359 4.058 16.573 4.058s16.318-3.897 16.573-4.058c.195-.128.356-.315.441-.535.425-1.13.416-3.396.408-3.838z"/>
    </g>
</svg>
