<svg width="18" height="18" viewBox="0 0 18 18" fill="none" xmlns="http://www.w3.org/2000/svg">
<g clip-path="url(#clip0_2918_310)">
<path d="M17.485 10.9424C17.2252 10.9424 17.0126 11.1561 17.0126 11.4174V15.6253C17.0126 16.4089 16.3795 17.0453 15.5953 17.0501H2.35748C1.57795 17.0501 0.944882 16.4137 0.940157 15.6253V3.26749C0.940157 2.48385 1.57323 1.84744 2.35748 1.84269H6.54803C6.80787 1.84269 7.02047 1.62897 7.02047 1.36776C7.02047 1.10654 6.80787 0.892822 6.54803 0.892822H2.35748C1.05827 0.897572 0 1.95667 0 3.26749V15.6253C0 16.9361 1.05827 17.9952 2.35748 17.9952H15.5953C16.8992 17.9952 17.9528 16.9313 17.9528 15.6253V11.4126C17.9575 11.1514 17.7449 10.9424 17.485 10.9424Z" fill="#B4C1E3"/>
<path d="M7.375 8.44432L14.2679 1.51978L16.4884 3.75197L9.6002 10.6765L7.375 8.44432Z" fill="#B4C1E3"/>
<path d="M6.25488 11.8069L8.71158 11.123L6.9352 9.33728L6.25488 11.8069Z" fill="#B4C1E3"/>
<path d="M17.1021 0.346735C16.6391 -0.113951 15.8926 -0.113951 15.4344 0.346735L14.9336 0.850165L17.1541 3.08236L17.6549 2.57892C18.1131 2.11349 18.1131 1.36309 17.6549 0.902408L17.1021 0.346735Z" fill="#B4C1E3"/>
</g>
<defs>
<clipPath id="clip0_2918_310">
<rect width="18" height="18" fill="white"/>
</clipPath>
</defs>
</svg>
