<svg fill="none" height="14" viewBox="0 0 14 14" width="14" xmlns="http://www.w3.org/2000/svg">
    <path
            d="M6.99805 9.82259C6.75655 9.82259 6.56055 9.62659 6.56055 9.38509V5.92993C6.56055 5.68843 6.75655 5.49243 6.99805 5.49243C7.23955 5.49243 7.43555 5.68843 7.43555 5.92993V9.38509C7.43555 9.62681 7.23977 9.82259 6.99805 9.82259Z"
            fill="#999B9F"/>
    <path
            d="M6.99805 5.05529C6.88211 5.05529 6.77055 5.00936 6.68961 4.92623C6.60648 4.84529 6.56055 4.73373 6.56055 4.61779C6.56055 4.50186 6.60648 4.39029 6.68961 4.30936C6.85148 4.14529 7.14461 4.14529 7.30648 4.30717C7.38961 4.39029 7.43555 4.50186 7.43555 4.61779C7.43555 4.73154 7.38961 4.84529 7.30648 4.92623C7.22555 5.00936 7.11398 5.05529 6.99805 5.05529Z"
            fill="#999B9F"/>
    <path
            d="M6.98341 12.6868C6.48576 12.6868 5.99248 12.622 5.51713 12.4941C3.46876 11.943 1.86488 10.2462 1.4311 8.17091C0.989008 6.05669 1.80495 3.83419 3.5101 2.50878C4.49579 1.7425 5.73895 1.32031 7.01076 1.32031C7.89123 1.32031 8.76557 1.52506 9.53951 1.91203C11.4507 2.86819 12.6856 4.86581 12.6856 7.00147C12.6856 8.74403 11.8633 10.4236 10.486 11.4942C9.49685 12.2633 8.25282 12.6868 6.98341 12.6868ZM7.01098 2.19531C5.93276 2.19531 4.88013 2.55187 4.04735 3.19959C2.60426 4.32134 1.91345 6.20238 2.28773 7.99175C2.65479 9.74722 4.0117 11.1829 5.74463 11.649C6.14582 11.7569 6.56276 11.8118 6.98341 11.8118H6.98363C8.05945 11.8118 9.11251 11.4537 9.94923 10.8033C11.1149 9.89728 11.8108 8.47606 11.8108 7.00147C11.8108 5.19438 10.7658 3.50388 9.14838 2.69472C8.4952 2.36813 7.75626 2.19531 7.01098 2.19531Z"
            fill="#999B9F"/>
</svg>
