<svg fill="none" height="20" viewBox="0 0 20 20" width="20" xmlns="http://www.w3.org/2000/svg">
    <path
            d="M19.1667 9.16667C18.7067 9.16667 18.3333 9.54 18.3333 10C18.3333 14.595 14.595 18.3333 10 18.3333C5.405 18.3333 1.66667 14.595 1.66667 10C1.66667 5.405 5.405 1.66667 10 1.66667C12.2371 1.66667 14.3371 2.54083 15.9133 4.12833C16.2375 4.45458 16.7654 4.45667 17.0917 4.1325C17.4183 3.80833 17.42 3.28042 17.0958 2.95375C15.2046 1.04917 12.6842 0 10 0C4.48583 0 0 4.48583 0 10C0 15.5142 4.48583 20 10 20C15.5137 20 20 15.5142 20 10C20 9.54 19.6267 9.16667 19.1667 9.16667Z"
            fill="#F44444"/>
    <path
            d="M11.1776 9.99998L13.0884 8.08914C13.4138 7.76373 13.4138 7.23623 13.0884 6.91081C12.763 6.58539 12.2355 6.58539 11.9101 6.91081L9.99924 8.82164L8.08841 6.91081C7.76341 6.58539 7.23508 6.58539 6.91008 6.91081C6.58466 7.23623 6.58466 7.76373 6.91008 8.08914L8.82091 9.99998L6.91008 11.9108C6.58466 12.2362 6.58466 12.7637 6.91008 13.0891C7.07258 13.2521 7.28591 13.3333 7.49924 13.3333C7.71258 13.3333 7.92591 13.2521 8.08841 13.0891L9.99924 11.1783L11.9101 13.0891C12.073 13.2521 12.2859 13.3333 12.4992 13.3333C12.7126 13.3333 12.9255 13.2521 13.0884 13.0891C13.4138 12.7637 13.4138 12.2362 13.0884 11.9108L11.1776 9.99998Z"
            fill="#F44444"/>
</svg>
