<svg fill="none" height="24" viewBox="0 0 21 24" width="21" xmlns="http://www.w3.org/2000/svg">
    <path
            d="M19.733 2.854L10.32.03a.703.703 0 00-.404 0L.501 2.854A.703.703 0 000 3.527v10.356c0 1.347.545 2.726 1.62 4.098.822 1.048 1.958 2.1 3.378 3.128a30.298 30.298 0 004.832 2.83.703.703 0 00.575 0 30.297 30.297 0 004.831-2.83c1.42-1.028 2.556-2.08 3.378-3.128 1.075-1.373 1.62-2.751 1.62-4.098V3.527a.703.703 0 00-.5-.673zm-.905 11.029c0 2.384-2.392 4.619-4.398 6.074-1.799 1.305-3.623 2.23-4.313 2.563-.69-.333-2.514-1.258-4.313-2.563-2.006-1.455-4.398-3.69-4.398-6.074V4.05l8.711-2.613 8.711 2.613v9.833z"
            fill="#1E91CF"/>
</svg>
