<svg fill="none" height="11" viewBox="0 0 11 11" width="11" xmlns="http://www.w3.org/2000/svg">
    <path
            d="M5.5 0A5.505 5.505 0 000 5.5C0 8.533 2.467 11 5.5 11S11 8.533 11 5.5 8.533 0 5.5 0zm0 10C3.02 10 1 7.98 1 5.5S3.02 1 5.5 1 10 3.02 10 5.5 7.98 10 5.5 10z"
            fill="#1E91CF"/>
    <path
            d="M5.5 2.333c-.367 0-.667.3-.667.667 0 .367.3.667.667.667.367 0 .667-.3.667-.667 0-.367-.3-.667-.667-.667zm0 2.334a.5.5 0 00-.5.5v3a.5.5 0 101 0v-3a.5.5 0 00-.5-.5z"
            fill="#1E91CF"/>
</svg>
