<svg fill="none" height="22" viewBox="0 0 17 22" width="17" xmlns="http://www.w3.org/2000/svg">
    <path
            d="M10.68 9.555l-2.43 2.43-2.43-2.43-.972.972 2.43 2.43-2.43 2.431.972.972 2.43-2.43 2.43 2.43.973-.972-2.43-2.43 2.43-2.431-.972-.972z"
            fill="#1E91CF"/>
    <path
            d="M16.299 5.701l-5.5-5.5A.687.687 0 0010.313 0H1.374C.617 0 0 .617 0 1.375v19.25C0 21.383.617 22 1.375 22h13.75c.758 0 1.375-.617 1.375-1.375V6.187a.687.687 0 00-.201-.486zM11 2.347L14.153 5.5H11V2.347zm4.125 18.278H1.375V1.375h8.25V5.5c0 .758.617 1.375 1.375 1.375h4.125v13.75z"
            fill="#1E91CF"/>
</svg>
