<svg fill="none" height="42" viewBox="0 0 40 42" width="40" xmlns="http://www.w3.org/2000/svg">
    <path
            d="M38.85 30.07l-1.004-.215c-.502-.072-.86-.43-1.075-.86-.215-.43-.143-.932.143-1.362l.645-.86c.216-.287.216-.717-.071-.932l-1.434-1.434c-.215-.215-.645-.287-.932-.071l-.86.573c-.43.287-.932.358-1.362.143-.43-.215-.788-.573-.86-1.075l-.143-1.075c-.072-.358-.358-.573-.717-.573h-2.007c-.358 0-.645.215-.717.573l-.286 1.362c-.072.502-.43.86-.86 1.003-.43.215-.932.144-1.362-.143l-1.147-.788c-.287-.215-.645-.144-.932.071l-1.434 1.434c-.215.215-.286.645-.071.932l.645.86c.287.43.358.86.143 1.362-.215.43-.573.788-1.075.86l-1.004.215c-.358.072-.573.358-.573.717v2.007c0 .358.287.645.573.716l1.076.144c.501.071.86.358 1.075.86.215.43.143.932-.144 1.362l-.573.86c-.215.287-.143.645.072.932l1.433 1.433c.215.215.645.287.932.072l.86-.645c.43-.287.86-.358 1.362-.143.43.215.788.573.86 1.075l.215 1.003c.072.359.359.574.717.574h2.007c.358 0 .645-.287.717-.574l.143-.788c.072-.502.43-.932.86-1.075a1.33 1.33 0 011.362.143l.645.43c.287.215.717.215.932-.072l1.434-1.433c.215-.215.286-.645.071-.932l-.573-.86c-.287-.43-.358-.932-.143-1.362.215-.43.573-.789 1.075-.86l1.075-.144c.358-.071.573-.358.573-.716v-2.007c.287-.359.072-.645-.286-.717zm-.86 2.078l-.502.072a2.725 2.725 0 00-2.15 1.649c-.359.932-.287 1.935.286 2.724l.287.358-.574.573-.143-.071a2.986 2.986 0 00-2.795-.359c-.932.359-1.577 1.219-1.72 2.222v.144h-.79l-.07-.43c-.216-.932-.861-1.72-1.721-2.08a2.846 2.846 0 00-2.724.36l-.358.286-.645-.645.286-.358c.574-.789.645-1.864.287-2.724-.358-.932-1.218-1.505-2.15-1.649l-.574-.072v-.788l.43-.072c.932-.215 1.72-.86 2.079-1.72a2.846 2.846 0 00-.358-2.724l-.287-.358.573-.573.645.43c.789.573 1.792.645 2.652.286.86-.358 1.506-1.147 1.72-2.078l.144-.789h.789l.071.502a2.725 2.725 0 001.649 2.15c.932.359 1.935.287 2.724-.287l.358-.286.574.573-.287.359a2.846 2.846 0 00-.359 2.723c.359.932 1.147 1.577 2.08 1.72l.43.072v.86h.142z"
            fill="#1E91CF"/>
    <path
            d="M30.105 27.991a3.55 3.55 0 00-3.584 3.584 3.55 3.55 0 003.584 3.584 3.55 3.55 0 003.584-3.584 3.55 3.55 0 00-3.584-3.584zm0 5.734c-1.219 0-2.15-.931-2.15-2.15 0-1.218.931-2.15 2.15-2.15 1.218 0 2.15.931 2.15 2.15 0 1.219-.932 2.15-2.15 2.15zm-12.185-4.3H16.2c-.36 0-.717 0-1.004-.072h-.645c-.43 0-.86-.072-1.29-.143h-.215a66.402 66.402 0 01-1.434-.215h-.072c-2.437-.359-4.516-.932-6.164-1.577-.359-.144-.645-.287-.932-.359 0 0-.072 0-.072-.071-.215-.144-.43-.215-.645-.359-.071 0-.143-.071-.215-.071-.215-.144-.358-.215-.502-.359-.071-.072-.143-.072-.215-.143-.143-.072-.286-.215-.358-.287-.072-.071-.143-.143-.215-.143l-.287-.287c-.071-.072-.143-.143-.143-.215-.072-.072-.143-.143-.143-.287-.072-.071-.072-.143-.072-.215 0-.071-.072-.143-.072-.286-.071-.072-.071-.144-.071-.287V18.17l.071.072c.144.143.287.287.502.43 2.652 2.007 8.1 3.584 15.913 3.584 7.813 0 13.188-1.577 15.912-3.584.215-.143.43-.287.574-.502v2.652c0 .43.286.717.716.717s.717-.287.717-.717V6.488c0-.144-.072-.215-.072-.359C34.907 3.047 28.743.037 17.92.037 7.096.037.932 3.047.072 6.129c0 .144-.072.215-.072.359v26.521c0 .143 0 .215.072.286.788 3.44 7.67 5.52 14.192 6.021h.072c.358 0 .716-.286.716-.645a.78.78 0 00-.645-.788c-7.956-.574-12.615-3.01-12.973-5.018v-6.092l.071.071a3.1 3.1 0 00.502.43c2.652 2.007 8.1 3.584 15.913 3.584.43 0 .716-.286.716-.716s-.286-.717-.716-.717zM1.864 9.928c.215.144.43.359.716.502.072 0 .144.072.144.072.215.143.43.286.645.358.072.072.143.072.287.143.286.144.501.287.86.359.071 0 .071.072.143.072l1.075.43c.072.071.215.071.287.071.287.072.573.215.932.287.143 0 .215.072.358.072.43.143.86.215 1.29.358.072 0 .144 0 .215.072.43.071.789.143 1.219.215.143 0 .287.071.43.071.43.072.86.144 1.219.215.143 0 .215 0 .358.072a11.72 11.72 0 001.649.143h.43c.43 0 .931.072 1.361.072h4.803c.502 0 .932-.072 1.362-.072h.43c.573-.071 1.147-.071 1.648-.143.144 0 .216 0 .359-.072l1.29-.215c.143 0 .287-.071.43-.071.43-.072.86-.144 1.219-.215.071 0 .143 0 .215-.072.43-.072.86-.215 1.29-.358.143 0 .215-.072.358-.072.287-.072.646-.215.932-.287.072 0 .215-.072.287-.072l1.075-.43c.072 0 .072-.071.143-.071.287-.144.574-.287.86-.359.072-.071.144-.071.287-.143.215-.143.43-.287.645-.358.072 0 .144-.072.144-.072.286-.143.502-.358.716-.502l.144-.143c.072-.072.215-.143.287-.215v5.877c0 .144 0 .216-.072.359 0 .072-.072.143-.072.287 0 .071-.071.143-.071.215-.072.071-.072.143-.144.286-.072.072-.072.144-.143.215-.072.072-.144.215-.287.287-.072.072-.143.143-.215.143-.143.072-.215.215-.358.287-.072.072-.144.072-.215.143-.144.144-.359.215-.502.359-.072 0-.072.072-.143.072-.215.143-.43.215-.645.358 0 0-.072 0-.072.072-.287.143-.574.286-.86.358-1.649.645-3.728 1.219-6.165 1.577h-.071c-.502.072-.932.143-1.434.215h-.215c-.43.072-.86.072-1.29.143h-.645c-.359 0-.645.072-1.004.072h-3.44c-.359 0-.717 0-1.004-.072h-.645c-.43 0-.86-.071-1.29-.143h-.215c-.502-.072-1.004-.143-1.434-.215h-.071c-2.438-.358-4.516-.932-6.165-1.577-.502-.215-.788-.358-1.075-.43 0 0-.072 0-.072-.072-.215-.143-.43-.215-.645-.358-.071 0-.143-.072-.215-.072-.215-.143-.358-.215-.502-.358-.071-.072-.143-.072-.215-.143-.143-.072-.286-.216-.358-.287-.072-.072-.143-.144-.215-.144l-.287-.286c-.071-.072-.143-.144-.143-.215-.072-.072-.143-.144-.143-.287-.072-.072-.072-.143-.072-.215 0-.072-.072-.144-.072-.287-.071-.072-.071-.143-.071-.287V9.57c.071.072.215.143.286.215l.144.143zM17.92 1.47c9.748 0 16.486 2.867 16.486 5.376 0 2.509-6.738 5.376-16.486 5.376-9.749 0-16.486-2.867-16.486-5.376 0-2.509 6.737-5.376 16.486-5.376z"
            fill="#1E91CF"/>
</svg>
