<svg width="19" height="20" viewBox="0 0 19 20" fill="none" xmlns="http://www.w3.org/2000/svg">
<path d="M18.6007 6.7836C17.3996 2.75999 13.6998 0.00197934 9.50084 0C6.30182 0.0130636 3.32094 1.62464 1.55814 4.29438C1.39425 4.5889 1.29488 4.9151 1.26678 5.25079V1.90017H0V6.96728H5.06711V5.7005H2.20419C3.62259 2.97178 6.42613 1.24421 9.50084 1.20344C14.0703 1.23432 17.7674 4.93133 17.7982 9.50083C17.767 14.0703 14.0703 17.7674 9.50084 17.7982C5.85449 17.7559 2.65786 15.3498 1.60881 11.857L0.392701 12.2181C1.89344 17.246 7.1858 20.1053 12.2137 18.605C17.2416 17.1047 20.1014 11.8115 18.6007 6.7836Z" fill="#656D82"/>
</svg>
