<svg width="22" height="22" viewBox="0 0 22 22" fill="none" xmlns="http://www.w3.org/2000/svg">
<path fill-rule="evenodd" clip-rule="evenodd" d="M0 11C0 17.0751 4.92487 22 11 22C17.0751 22 22 17.0751 22 11C22 4.92487 17.0751 0 11 0C4.92487 0 0 4.92487 0 11ZM20 11C20 15.9706 15.9706 20 11 20C6.02944 20 2 15.9706 2 11C2 6.02944 6.02944 2 11 2C15.9706 2 20 6.02944 20 11Z" fill="#1E91CF"/>
<path fill-rule="evenodd" clip-rule="evenodd" d="M9.35 12.3555L15.1722 6.53327L16.7278 8.08891L9.35 15.4667L5.27218 11.3889L6.82782 9.83327L9.35 12.3555Z" fill="#1E91CF"/>
</svg>
