<svg width="587" height="587" viewBox="0 0 587 587" fill="none" xmlns="http://www.w3.org/2000/svg">
<g clip-path="url(#clip0_2879_39)">
<path d="M477.988 41.687H454.681V13.3182C454.681 5.96197 448.719 0 441.363 0C434.012 0 428.045 5.96197 428.045 13.3182V41.8171H159.153V13.3182C159.153 5.96197 153.191 0 145.834 0C138.478 0 132.516 5.96197 132.516 13.3182V41.8171H109.875C73.1045 41.8327 43.2998 71.6373 43.2842 108.408V520.076C43.2998 556.846 73.1045 586.651 109.875 586.667H477.858C514.629 586.651 544.433 556.846 544.449 520.076V108.278C544.449 71.5541 514.717 41.7598 477.988 41.687ZM517.943 519.94C517.88 541.983 500.031 559.833 477.988 559.895H109.875C87.8377 559.833 69.983 541.983 69.9206 519.94V108.278C69.983 86.2353 87.8377 68.3858 109.875 68.3234H132.516V88.9666C132.516 96.3228 138.478 102.285 145.834 102.285C153.191 102.285 159.153 96.3228 159.153 88.9666V68.3234H428.045V88.9666C428.045 96.3228 434.012 102.285 441.363 102.285C448.719 102.285 454.681 96.3228 454.681 88.9666V68.3234H477.988C500.031 68.3858 517.88 86.2353 517.943 108.278V519.94Z" fill="#4772D6"/>
<path d="M212.691 282.346L163.549 329.225L140.908 306.584C135.721 301.397 127.314 301.397 122.127 306.584C116.94 311.771 116.94 320.178 122.127 325.365L153.961 357.193C156.458 359.711 159.87 361.105 163.413 361.058C166.852 361.09 170.161 359.747 172.606 357.328L231.071 301.392C234.53 298.12 235.972 293.245 234.837 288.62C233.703 283.995 230.171 280.332 225.593 279.037C221.009 277.736 216.083 279.001 212.691 282.346Z" fill="#4772D6"/>
<path d="M456.414 306.584H303.254C295.898 306.584 289.936 312.546 289.936 319.902C289.936 327.258 295.898 333.22 303.254 333.22H456.414C463.77 333.22 469.732 327.258 469.732 319.902C469.732 312.546 463.77 306.584 456.414 306.584Z" fill="#4772D6"/>
<path d="M212.691 149.164L163.549 196.043L140.908 173.402C135.721 168.215 127.314 168.215 122.127 173.402C116.94 178.589 116.94 186.996 122.127 192.183L153.961 224.011C156.458 226.529 159.87 227.923 163.413 227.876C166.852 227.908 170.161 226.565 172.606 224.146L231.071 168.21C234.53 164.938 235.972 160.063 234.837 155.438C233.703 150.813 230.171 147.15 225.593 145.855C221.009 144.554 216.083 145.819 212.691 149.164Z" fill="#4772D6"/>
<path d="M456.414 173.402H303.254C295.898 173.402 289.936 179.364 289.936 186.72C289.936 194.076 295.898 200.038 303.254 200.038H456.414C463.77 200.038 469.732 194.076 469.732 186.72C469.732 179.364 463.77 173.402 456.414 173.402Z" fill="#4772D6"/>
<path d="M212.691 415.528L163.549 462.407L140.908 439.766C135.721 434.579 127.314 434.579 122.127 439.766C116.94 444.953 116.94 453.36 122.127 458.547L153.961 490.375C156.458 492.893 159.87 494.287 163.413 494.24C166.852 494.272 170.161 492.929 172.606 490.51L231.071 434.574C234.53 431.302 235.972 426.427 234.837 421.802C233.703 417.177 230.171 413.514 225.593 412.219C221.009 410.918 216.083 412.183 212.691 415.528Z" fill="#4772D6"/>
<path d="M456.414 439.766H303.254C295.898 439.766 289.936 445.728 289.936 453.084C289.936 460.44 295.898 466.402 303.254 466.402H456.414C463.77 466.402 469.732 460.44 469.732 453.084C469.732 445.728 463.77 439.766 456.414 439.766Z" fill="#4772D6"/>
</g>
<defs>
<clipPath id="clip0_2879_39">
<rect width="586.667" height="586.667" fill="white"/>
</clipPath>
</defs>
</svg>
