<svg fill="none" height="18" viewBox="0 0 18 18" width="18" xmlns="http://www.w3.org/2000/svg">
    <path
            d="M7.928 0C3.558 0 0 3.558 0 7.928s3.558 7.927 7.928 7.927 7.927-3.554 7.927-7.927C15.852 3.558 12.298 0 7.928 0zm0 14.39a6.469 6.469 0 01-6.462-6.462c0-3.562 2.897-6.465 6.462-6.465s6.462 2.9 6.462 6.461c0 3.561-2.9 6.465-6.462 6.465z"
            fill="#999B9F"/>
    <path
            d="M17.785 16.752l-4.194-4.198a.732.732 0 00-1.033 1.034l4.194 4.194a.727.727 0 001.034 0 .728.728 0 000-1.03z"
            fill="#999B9F"/>
</svg>
