<svg fill="none" height="18" viewBox="0 0 23 18" width="23" xmlns="http://www.w3.org/2000/svg">
    <defs>
        <clipPath id="clip0">
            <path d="M0 0h22.5v18H0z" fill="#fff"/>
        </clipPath>
    </defs>
    <g clip-path="url(#clip0)" fill="#1E91CF">
        <path
                d="M21.84 2.243h-7.663a1.637 1.637 0 00-.352-.524L12.612.493A1.628 1.628 0 0011.435 0c-.444 0-.866.173-1.178.493L9.044 1.719a1.637 1.637 0 00-.352.524H.66a.662.662 0 00-.66.666c0 .369.294.666.66.666h8.032c.08.191.198.369.352.524l1.213 1.226c.316.32.734.493 1.178.493.443 0 .865-.173 1.177-.493l1.213-1.226c.154-.155.273-.333.352-.524h7.664a.661.661 0 00.659-.666.662.662 0 00-.66-.666zm-8.946.915L11.68 4.383a.344.344 0 01-.246.103.344.344 0 01-.247-.103L9.976 3.158a.354.354 0 010-.498l1.212-1.226a.344.344 0 01.247-.102c.092 0 .18.036.246.102l1.213 1.226a.354.354 0 010 .498zM21.84 8.42H8.97a1.685 1.685 0 00-.352-.524L7.405 6.671a1.643 1.643 0 00-1.178-.493c-.444 0-.866.173-1.178.493L3.836 7.896a1.637 1.637 0 00-.351.524H.659A.662.662 0 000 9.087c0 .368.294.666.66.666h2.82c.08.19.198.368.352.524l1.213 1.226c.316.32.734.492 1.178.492.444 0 .865-.173 1.177-.492l1.213-1.226a1.64 1.64 0 00.352-.524H21.84a.662.662 0 00.659-.666.665.665 0 00-.66-.667zm-14.158.915l-1.213 1.226a.344.344 0 01-.246.102.344.344 0 01-.246-.102L4.764 9.335a.354.354 0 010-.497l1.213-1.226a.344.344 0 01.246-.102c.092 0 .18.035.246.102l1.213 1.226a.351.351 0 01.1.249.32.32 0 01-.1.248zm14.158 5.09h-3.264a1.637 1.637 0 00-.352-.524l-1.213-1.226a1.643 1.643 0 00-1.177-.493c-.444 0-.866.173-1.178.493l-1.213 1.226a1.637 1.637 0 00-.352.524H.66a.662.662 0 00-.66.665c0 .369.294.666.66.666h12.43c.08.191.198.369.352.524l1.213 1.226c.316.32.734.493 1.178.493.443 0 .865-.173 1.177-.493l1.213-1.226c.154-.155.273-.333.352-.524h3.265a.661.661 0 00.659-.666.662.662 0 00-.66-.666zm-4.547.915l-1.213 1.226a.344.344 0 01-.246.102.344.344 0 01-.247-.102l-1.213-1.226a.354.354 0 010-.498l1.213-1.225a.343.343 0 01.247-.103c.092 0 .18.036.246.103l1.213 1.225a.354.354 0 010 .498z"/>
    </g>
</svg>
