<svg fill="none" height="24" viewBox="0 0 22 24" width="22" xmlns="http://www.w3.org/2000/svg">
    <path
            d="M18.137 2.954A10.019 10.019 0 0011.008 0a10.02 10.02 0 00-7.131 2.954 10.02 10.02 0 00-2.954 7.13 10.098 10.098 0 003.605 7.728l5.982 5.982a.702.702 0 00.995 0l5.982-5.982a10.095 10.095 0 003.605-7.727c0-2.694-1.049-5.226-2.954-7.131zm-1.624 13.84L11.007 22.3 5.5 16.794a.739.739 0 00-.046-.043 8.686 8.686 0 01-3.124-6.667c0-4.784 3.892-8.676 8.677-8.676 4.784 0 8.676 3.892 8.676 8.677a8.686 8.686 0 01-3.17 6.71z"
            fill="#1E91CF"/>
    <path
            d="M13.21 7.775h-2.5a.704.704 0 00-.704.704v4.359a.704.704 0 101.408 0v-1.475h1.796a1.795 1.795 0 00.001-3.588zm0 2.18h-1.796v-.772h1.796a.386.386 0 010 .772zm-4.582-2.18a.704.704 0 00-.704.704v4.359a.704.704 0 001.408 0V8.479a.704.704 0 00-.704-.704z"
            fill="#1E91CF"/>
</svg>
