<svg width="20" height="20" viewBox="0 0 20 20" fill="none" xmlns="http://www.w3.org/2000/svg">
<path d="M10 20C15.5228 20 20 15.5228 20 10C20 4.47715 15.5228 0 10 0C4.47715 0 0 4.47715 0 10C0 15.5228 4.47715 20 10 20Z" fill="#FF8484"/>
<path fill-rule="evenodd" clip-rule="evenodd" d="M11.6319 13.3576C11.6319 13.4497 11.6671 13.5381 11.7296 13.6032C11.7921 13.6684 11.8769 13.705 11.9654 13.705C12.0538 13.705 12.1386 13.6684 12.2012 13.6032C12.2637 13.5381 12.2988 13.4497 12.2988 13.3576V8.44096C12.2988 8.34883 12.2637 8.26047 12.2012 8.19533C12.1386 8.13018 12.0538 8.09358 11.9654 8.09358C11.8769 8.09358 11.7921 8.13018 11.7296 8.19533C11.6671 8.26047 11.6319 8.34883 11.6319 8.44096V13.3576ZM9.66654 13.3576C9.66654 13.4497 9.70167 13.5381 9.76421 13.6032C9.82674 13.6684 9.91156 13.705 10 13.705C10.0884 13.705 10.1733 13.6684 10.2358 13.6032C10.2983 13.5381 10.3335 13.4497 10.3335 13.3576V8.44096C10.3335 8.34883 10.2983 8.26047 10.2358 8.19533C10.1733 8.13018 10.0884 8.09358 10 8.09358C9.91156 8.09358 9.82674 8.13018 9.76421 8.19533C9.70167 8.26047 9.66654 8.34883 9.66654 8.44096V13.3576ZM7.70115 13.3576C7.70115 13.4497 7.73628 13.5381 7.79882 13.6032C7.86135 13.6684 7.94617 13.705 8.03461 13.705C8.12305 13.705 8.20787 13.6684 8.2704 13.6032C8.33294 13.5381 8.36807 13.4497 8.36807 13.3576V8.44096C8.36807 8.34883 8.33294 8.26047 8.2704 8.19533C8.20787 8.13018 8.12305 8.09358 8.03461 8.09358C7.94617 8.09358 7.86135 8.13018 7.79882 8.19533C7.73628 8.26047 7.70115 8.34883 7.70115 8.44096V13.3576ZM11.9601 5.00002C12.0261 4.99949 12.0915 5.01257 12.1526 5.03851C12.2137 5.06445 12.2693 5.10273 12.3161 5.15114C12.3629 5.19956 12.4001 5.25716 12.4255 5.32061C12.4508 5.38407 12.4639 5.45212 12.4639 5.52086C12.4639 5.5896 12.4508 5.65766 12.4255 5.72111C12.4001 5.78456 12.3629 5.84216 12.3161 5.89058C12.2693 5.93899 12.2137 5.97728 12.1526 6.00321C12.0915 6.02915 12.0261 6.04223 11.9601 6.04171H8.03993C7.97395 6.04223 7.90852 6.02915 7.84741 6.00321C7.78631 5.97728 7.73074 5.93899 7.6839 5.89058C7.63707 5.84216 7.59989 5.78456 7.57453 5.72111C7.54916 5.65766 7.5361 5.5896 7.5361 5.52086C7.5361 5.45212 7.54916 5.38407 7.57453 5.32061C7.59989 5.25716 7.63707 5.19956 7.6839 5.15114C7.73074 5.10273 7.78631 5.06445 7.84741 5.03851C7.90852 5.01257 7.97395 4.99949 8.03993 5.00002H11.9601ZM13.2771 14.716C13.2723 14.793 13.2395 14.8652 13.1855 14.9179C13.1314 14.9706 13.0601 15 12.9861 15H7.01391C6.93986 15 6.86859 14.9706 6.81455 14.9179C6.76051 14.8652 6.72774 14.793 6.72289 14.716L6.25055 7.12183C6.24811 7.08039 6.25383 7.03887 6.26734 6.99982C6.28085 6.96076 6.30187 6.92499 6.32911 6.89469C6.35636 6.8644 6.38925 6.84022 6.42579 6.82363C6.46232 6.80704 6.50171 6.7984 6.54156 6.79823H13.4585C13.4983 6.7984 13.5377 6.80704 13.5742 6.82363C13.6108 6.84022 13.6437 6.8644 13.6709 6.8947C13.6981 6.92499 13.7192 6.96076 13.7327 6.99982C13.7462 7.03888 13.7519 7.08039 13.7495 7.12183C13.592 9.65331 13.4346 12.1847 13.2771 14.716Z" fill="white"/>
</svg>
