<svg fill="none" height="24" viewBox="0 0 24 24" width="24" xmlns="http://www.w3.org/2000/svg">
    <path
            d="M20.75 12.607h-9.355V3.255a.677.677 0 00-.68-.68C4.808 2.575 0 7.382 0 13.287 0 19.193 4.808 24 10.715 24S21.43 19.193 21.43 13.287a.684.684 0 00-.68-.68zM10.714 22.64c-5.156 0-9.354-4.198-9.354-9.353 0-4.928 3.83-8.979 8.673-9.326v9.326c0 .378.303.68.68.68h9.33c-.348 4.843-4.4 8.673-9.33 8.673z"
            fill="#1E91CF"/>
    <path
            d="M24 10.677a10.73 10.73 0 00-2.681-7.054A10.722 10.722 0 0013.284 0a.677.677 0 00-.68.68v10.033c0 .378.302.68.68.68h10.034c.378 0 .68-.303.68-.68v-.036zm-10.035-.64V1.391a9.352 9.352 0 016.33 3.139 9.342 9.342 0 012.319 5.507h-8.649z"
            fill="#1E91CF"/>
</svg>
