<svg fill="none" height="18" viewBox="0 0 26 18" width="26" xmlns="http://www.w3.org/2000/svg">
    <path
            d="M17.689 12.9145C20.1252 10.4782 23.5094 8.32087 25.1738 5.90872C25.5742 5.32837 25.2937 4.5242 24.6139 4.33712C23.7324 4.09456 22.2869 3.84887 20.0475 3.84887C15.6253 3.84887 1.98999 4.70082 0 0C0 0 1.17927 5.10183 9.80265 5.54404C18.426 5.98624 17.9456 5.39928 20.6016 5.91255C23.0969 6.39479 22.0744 7.9394 21.0057 9.00811C19.9369 10.0769 18.2049 11.5141 17.689 12.9145Z"
            fill="#1E91CF"/>
    <path
            d="M14.8878 18C15.8646 18 16.6565 17.2081 16.6565 16.2313C16.6565 15.2545 15.8646 14.4626 14.8878 14.4626C13.911 14.4626 13.1191 15.2545 13.1191 16.2313C13.1191 17.2081 13.911 18 14.8878 18Z"
            fill="#1E91CF"/>
    <path
            d="M6.55968 18C7.53648 18 8.32834 17.2081 8.32834 16.2313C8.32834 15.2545 7.53648 14.4626 6.55968 14.4626C5.58287 14.4626 4.79102 15.2545 4.79102 16.2313C4.79102 17.2081 5.58287 18 6.55968 18Z"
            fill="#1E91CF"/>
</svg>
