<svg fill="none" height="22" viewBox="0 0 22 22" width="22" xmlns="http://www.w3.org/2000/svg">
    <defs>
        <clipPath id="clip0">
            <rect fill="white" height="22" width="22"/>
        </clipPath>
    </defs>
    <g clip-path="url(#clip0)">
        <path
                d="M20.0962 5.28919V3.80774C20.0962 2.75796 19.2421 1.90389 18.1923 1.90389H9.28235L8.94985 1.36092C8.83448 1.17256 8.62954 1.05774 8.40865 1.05774H1.90385C0.854065 1.05774 0 1.9118 0 2.96159V19.0385C0 20.0883 0.854065 20.9424 1.90385 20.9424H20.0962C21.1459 20.9424 22 20.0883 22 19.0385V7.19303C22 6.14325 21.1459 5.28919 20.0962 5.28919ZM18.1923 3.17312C18.5422 3.17312 18.8269 3.45781 18.8269 3.80774V5.28851H11.3551L10.5058 3.90162L10.0596 3.17312H18.1923ZM20.7308 19.0385C20.7308 19.3884 20.4461 19.6731 20.0962 19.6731H1.90385C1.55392 19.6731 1.26923 19.3884 1.26923 19.0385V2.96159C1.26923 2.61166 1.55392 2.32697 1.90385 2.32697H8.05314L8.3856 2.86982C8.38564 2.86986 8.38564 2.8699 8.38568 2.86995L9.60909 4.86767L10.4588 6.25524C10.5742 6.44359 10.7792 6.55842 11 6.55842H20.0962C20.4461 6.55842 20.7308 6.84311 20.7308 7.19303V19.0385H20.7308Z"
                fill="#1E91CF"/>
    </g>
</svg>
