<svg fill="none" height="24" viewBox="0 0 24 24" width="24" xmlns="http://www.w3.org/2000/svg">
    <path
            d="M12.755 24H11.25a2.209 2.209 0 01-2.208-2.208v-.51a9.784 9.784 0 01-1.505-.624l-.36.36a2.212 2.212 0 01-3.127 0l-1.064-1.063a2.212 2.212 0 010-3.127l.36-.36a9.597 9.597 0 01-.623-1.505h-.515A2.209 2.209 0 010 12.755V11.25a2.21 2.21 0 012.208-2.208h.51a9.786 9.786 0 01.624-1.505l-.36-.36a2.208 2.208 0 010-3.127l1.063-1.064a2.212 2.212 0 013.127 0l.36.36a9.794 9.794 0 011.505-.623v-.515A2.21 2.21 0 0111.245 0h1.505a2.21 2.21 0 012.208 2.208v.51a9.787 9.787 0 011.504.624l.361-.36a2.212 2.212 0 013.127 0l1.064 1.063c.849.849.877 2.25 0 3.127l-.36.36c.248.484.459.985.623 1.505h.51c1.22 0 2.208.99 2.208 2.208v1.505a2.208 2.208 0 01-2.207 2.208h-.507a9.785 9.785 0 01-.623 1.504l.36.361a2.208 2.208 0 010 3.127l-1.063 1.064a2.212 2.212 0 01-3.127 0l-.36-.36a9.695 9.695 0 01-1.505.623v.51A2.21 2.21 0 0112.755 24zm-4.988-4.819c.67.399 1.392.699 2.147.89.31.08.53.362.53.68v1.037c0 .44.36.801.801.801h1.505c.44 0 .802-.36.802-.801v-1.036a.7.7 0 01.53-.68 8.45 8.45 0 002.146-.89.702.702 0 01.853.107l.736.736a.8.8 0 001.135 0l1.064-1.064a.8.8 0 000-1.134l-.736-.736a.702.702 0 01-.108-.854c.398-.67.698-1.392.89-2.146.08-.31.361-.53.68-.53h1.036c.44 0 .802-.361.802-.802v-1.504a.805.805 0 00-.802-.802h-1.036a.701.701 0 01-.68-.53 8.45 8.45 0 00-.89-2.146.702.702 0 01.108-.854l.736-.736a.8.8 0 000-1.134L18.952 3.99a.8.8 0 00-1.135 0l-.736.736a.702.702 0 01-.853.108 8.123 8.123 0 00-2.147-.89.706.706 0 01-.53-.68V2.208a.804.804 0 00-.801-.802h-1.505a.804.804 0 00-.801.802v1.036c0 .318-.216.6-.53.68a8.448 8.448 0 00-2.147.89.702.702 0 01-.853-.108l-.736-.736a.8.8 0 00-1.134 0L3.98 5.034a.8.8 0 000 1.135l.736.736a.702.702 0 01.107.853 8.123 8.123 0 00-.89 2.147.706.706 0 01-.68.53H2.208c-.44 0-.802.36-.802.8v1.506c0 .44.361.801.802.801h1.036c.318 0 .6.216.68.53.196.755.496 1.476.89 2.147a.702.702 0 01-.108.853l-.736.736a.8.8 0 000 1.134l1.064 1.064a.8.8 0 001.135 0l.736-.736c.173-.15.525-.29.862-.089z"
            fill="#1E91CF"/>
    <path
            d="M12 17.222A5.23 5.23 0 016.778 12 5.23 5.23 0 0112 6.778 5.23 5.23 0 0117.222 12 5.23 5.23 0 0112 17.222zm0-9.038A3.819 3.819 0 008.184 12 3.819 3.819 0 0012 15.816 3.819 3.819 0 0015.816 12 3.819 3.819 0 0012 8.184z"
            fill="#1E91CF"/>
</svg>
