<svg fill="none" height="22" viewBox="0 0 22 22" width="22" xmlns="http://www.w3.org/2000/svg">
    <defs>
        <clipPath id="clip0">
            <path d="M0 0h22v22H0z" fill="#fff"/>
        </clipPath>
    </defs>
    <g clip-path="url(#clip0)" fill="#1E91CF">
        <path
                d="M.86 8.078h1.718c.473 0 .86-.387.86-.86a.862.862 0 00-.86-.859H.86A.862.862 0 000 7.22c0 .472.387.86.86.86zm3.046-3.605a.856.856 0 00.606.254.861.861 0 00.606-1.47L3.915 2.054A.861.861 0 002.699 3.27l1.207 1.203zm4.516-1.035c.473 0 .86-.387.86-.86V.86A.862.862 0 008.421 0a.862.862 0 00-.86.86v1.718c0 .473.387.86.86.86zm6.359 15.125a.862.862 0 00-.86.859v1.719c0 .472.388.859.86.859.473 0 .86-.387.86-.86v-1.718a.862.862 0 00-.86-.86zm5.036-9.183l2.106-4.598a.858.858 0 00-.782-1.216h-2.75V.859a.87.87 0 00-.396-.726.855.855 0 00-.825-.056l-4.64 2.148a.861.861 0 00-.499.782v2.785c-.503.232-1.01.464-1.508.692-3.755 1.718-7.3 3.343-9.208 5.229l-.004.004A4.44 4.44 0 000 14.88v3.682A3.442 3.442 0 003.438 22h3.746a4.44 4.44 0 003.15-1.298c1.56-1.43 2.862-3.915 4.331-7.206.095-.215.194-.43.288-.649a.86.86 0 10-1.572-.696l-.284.64c-1.083 2.42-2.252 4.822-3.515 6.222l-4.68-4.666a.86.86 0 00-1.215 1.216l4.52 4.52a2.74 2.74 0 01-1.027.198H3.438c-.95 0-1.72-.77-1.72-1.719V14.88c0-.735.289-1.427.804-1.947 1.693-1.676 5.264-3.308 8.714-4.89a322.81 322.81 0 001.517-.696L14.992 9.5a.862.862 0 00.713.378h3.33a.854.854 0 00.782-.498zm-3.734-1.216L13.75 5.916V3.557l2.922-1.353v2.221c0 .473.387.86.86.86H19.8l-1.32 2.879h-2.397zm5.057 4.555h-1.718a.862.862 0 00-.86.86c0 .472.387.858.86.858h1.719a.861.861 0 00.859-.859.862.862 0 00-.86-.86zm-2.401 4.163a.861.861 0 00-1.216 1.216l1.203 1.204a.856.856 0 00.606.253.86.86 0 00.606-1.47l-1.2-1.203z"/>
    </g>
</svg>
