<svg width="48" height="62" viewBox="0 0 48 62" fill="none" xmlns="http://www.w3.org/2000/svg"><path fill-rule="evenodd" clip-rule="evenodd" d="M28.709 1.678c.994.922 1.818 2.432 1.832 3.356.014.922.556 2.33 1.205 3.125.648.797 1.179 2.339 1.179 3.427s-.714 2.58-1.587 3.313c-.873.733-1.413 1.597-1.199 1.917.214.322 1.791.073 3.506-.553 2.737-.998 3.182-1.509 3.641-4.178.288-1.673 1.098-4.165 1.8-5.538.702-1.374 1.982-2.848 2.846-3.278.863-.429 1.751-.611 1.974-.405.221.206-.419 1.407-1.423 2.669-1.28 1.606-1.933 3.658-2.181 6.853l-.356 4.56-4.313 1.771c-3.049 1.252-4.314 2.19-4.314 3.199 0 1.094.93 1.633 4 2.317 2.2.49 5.463 1.875 7.251 3.078 1.788 1.202 3.847 3.348 4.576 4.767.728 1.419 1.055 2.83.726 3.136-.33.306-1.882-.877-3.449-2.63-1.567-1.75-4.167-3.81-5.78-4.573-1.611-.763-4.163-1.505-5.67-1.65-2.443-.232-2.855 0-3.8 2.15-1.013 2.304-.971 2.431.947 2.878 1.104.257 2.91 1.464 4.012 2.68 1.102 1.218 2.005 2.85 2.005 3.627 0 1.067 1.055 1.698 4.31 2.577l4.311 1.164.97 5.58c.91 5.236.854 5.858-.894 10.044-1.025 2.454-2.136 4.462-2.47 4.462-.333 0-.606-.355-.606-.788 0-.434.404-2.278.897-4.097.537-1.979.675-5.237.344-8.106-.52-4.505-.704-4.847-3.024-5.598-1.36-.44-2.773-.8-3.141-.8-.369 0-1.619 1.761-2.78 3.915-1.16 2.154-3.526 5.677-5.26 7.83-1.88 2.339-3.767 3.915-4.684 3.915-.95 0-2.785-1.619-4.802-4.235-1.797-2.33-4.076-5.86-5.064-7.845-1.652-3.32-1.985-3.578-4.13-3.218-1.282.216-2.785.742-3.338 1.167-.553.427-1.248 2.714-1.544 5.084-.363 2.909-.148 5.698.664 8.584.726 2.582.877 4.176.38 4.022-.452-.14-1.67-2.124-2.708-4.409-1.74-3.832-1.819-4.552-1.011-9.295.482-2.828 1.278-5.507 1.769-5.952.491-.446 2.43-1.215 4.307-1.709 2.464-.648 3.413-1.287 3.413-2.3 0-.773.902-2.401 2.005-3.618 1.102-1.217 2.876-2.417 3.941-2.665 1.525-.355 1.841-.808 1.492-2.132-.244-.925-.763-2.063-1.153-2.529-.501-.599-1.7-.641-4.076-.146-1.851.386-4.56 1.387-6.017 2.224-1.458.837-3.59 2.664-4.737 4.061-1.147 1.397-2.404 2.54-2.794 2.54-.388 0-.707-.4-.707-.887s.763-1.913 1.694-3.169c.933-1.256 2.955-3.19 4.494-4.296 1.54-1.107 4.713-2.382 7.053-2.833 3.693-.712 4.199-1.02 3.83-2.33-.263-.934-2.067-2.183-4.733-3.278L8.03 16.86v-3.89c0-2.822-.56-4.78-2.04-7.126C4.865 4.065 4.34 2.61 4.82 2.61s1.731.797 2.78 1.769c1.047.973 2.293 3.07 2.769 4.66.475 1.591.866 3.634.869 4.54.004 1.276.731 1.851 3.222 2.544 1.77.492 3.425.701 3.68.465.255-.237-.29-1.13-1.21-1.984-.92-.855-1.672-2.16-1.672-2.903 0-.742.53-2 1.179-2.796.648-.796 1.19-2.37 1.204-3.498.015-1.129.84-2.807 1.833-3.73L21.28 0l.253 2.05c.212 1.706.643 2.052 2.557 2.052 1.915 0 2.345-.346 2.557-2.051L26.902 0l1.807 1.678z" fill="#1E91CF"/></svg>