<svg width="41" height="39" viewBox="0 0 41 39" fill="none" xmlns="http://www.w3.org/2000/svg">
<path d="M40.1486 29.8425L25.6653 2.96776C23.3383 -0.986625 17.6658 -0.991879 15.3357 2.96776L0.853071 29.8425C-1.52573 33.8832 1.35428 39 6.01667 39H34.9838C39.6423 39 42.5274 33.8873 40.1486 29.8425ZM20.5005 34.1501C19.1762 34.1501 18.0981 33.0619 18.0981 31.7251C18.0981 30.3883 19.1762 29.3002 20.5005 29.3002C21.8248 29.3002 22.9028 30.3883 22.9028 31.7251C22.9028 33.0619 21.8248 34.1501 20.5005 34.1501ZM22.9028 24.4502C22.9028 25.787 21.8248 26.8752 20.5005 26.8752C19.1762 26.8752 18.0981 25.787 18.0981 24.4502V12.3254C18.0981 10.9886 19.1762 9.90048 20.5005 9.90048C21.8248 9.90048 22.9028 10.9886 22.9028 12.3254V24.4502Z" fill="#FF8484"/>
</svg>
