<svg width="512" height="512" viewBox="0 0 512 512" fill="none" xmlns="http://www.w3.org/2000/svg">
<g clip-path="url(#clip0_2879_34)">
<path d="M508.707 488.684C508.613 488.52 508.516 488.359 508.41 488.199L422.582 357.313C446.094 315.363 461.82 268.996 469.312 219.367C477.402 165.801 475.41 111.403 463.398 57.6956C462.758 54.8206 460.887 52.3713 458.285 50.9924C397.758 18.926 319.219 0.824491 237.149 0.0276161C152.422 -0.823946 73.6838 17.3714 15.4494 51.1838C13.0197 52.594 11.2893 54.9534 10.676 57.6956C-9.3904 147.469 -0.988056 241.586 34.34 322.707C67.8439 399.641 123.207 459.926 190.961 493.641C189.817 496.883 189.258 501.066 191.637 505.195C195.555 512 203.617 512 206.66 512L495.328 511.855C498.367 511.855 506.422 511.852 510.336 505.07C514.254 498.285 510.223 491.313 508.707 488.684ZM29.3908 66.4221C139.879 4.71121 323.887 4.80887 444.734 66.6448C464.555 160.121 451.941 257.871 410.039 338.18L388.469 305.281C391.547 298.469 394.434 291.52 397.055 284.543C419.195 225.473 425.617 160.012 415.625 95.2463C415.094 91.8049 412.816 88.8791 409.613 87.5159C360.285 66.5315 298.914 54.6174 236.809 53.9768C172.777 53.2893 111.539 64.8792 64.3752 86.5432C61.3127 87.9534 59.1525 90.801 58.6291 94.133C49.3244 153.27 53.7932 213.66 71.5471 268.77C73.2541 274.063 78.9299 276.973 84.2228 275.27C89.5197 273.563 92.4259 267.887 90.7228 262.594C74.465 212.137 69.9963 156.949 77.7228 102.641C166.996 63.8362 299.035 64.3518 396.531 103.891C404.801 163.422 398.488 223.32 378.195 277.469C377.238 280.008 376.238 282.543 375.215 285.07L364.227 268.317C362.621 265.547 358.633 259.039 351.047 259.031C351.043 259.031 351.039 259.031 351.035 259.031C343.43 259.031 339.383 265.629 337.754 268.426L231.277 430.828C222.379 426.809 213.684 422.176 205.344 416.992C176.512 399.047 151.344 374.594 130.531 344.313C127.383 339.727 121.11 338.567 116.527 341.719C111.942 344.867 110.781 351.137 113.93 355.723C136.324 388.301 163.496 414.668 194.703 434.098C202.895 439.191 211.41 443.789 220.109 447.859L201.43 476.352C66.5314 410.285 -6.74196 236.453 29.3908 66.4221ZM215.352 491.855L351.027 284.918L402.148 362.879C402.234 363.027 402.336 363.168 402.43 363.313L486.629 491.719L215.352 491.855Z" fill="#F44444"/>
<path d="M350.988 348.324C345.426 348.324 340.918 352.832 340.918 358.394V424.484C340.918 430.047 345.426 434.555 350.988 434.555C356.551 434.555 361.062 430.047 361.062 424.484V358.394C361.062 352.832 356.551 348.324 350.988 348.324Z" fill="#F44444"/>
<path d="M350.988 451.391C345.426 451.391 340.918 455.902 340.918 461.461V461.976C340.918 467.539 345.426 472.047 350.988 472.047C356.551 472.047 361.062 467.539 361.062 461.976V461.461C361.062 455.902 356.551 451.391 350.988 451.391Z" fill="#F44444"/>
<path d="M107.266 304.082C104.766 299.113 98.711 297.109 93.7422 299.609C88.7696 302.109 86.7696 308.16 89.2696 313.133L89.3555 313.301C91.1251 316.82 94.6719 318.852 98.3594 318.852C99.8829 318.852 101.426 318.504 102.879 317.773C107.848 315.277 109.848 309.223 107.352 304.254L107.266 304.082Z" fill="#F44444"/>
</g>
<defs>
<clipPath id="clip0_2879_34">
<rect width="512" height="512" fill="white"/>
</clipPath>
</defs>
</svg>
