<svg fill="none" height="24" viewBox="0 0 24 24" width="24" xmlns="http://www.w3.org/2000/svg">
    <path
            d="M21.831 11.283L19.84 9.291a1.013 1.013 0 00-1.433 1.433l1.992 1.992c2.104 2.104 2.102 5.553 0 7.683-2.104 2.104-5.553 2.102-7.684 0l-1.992-1.991a1.013 1.013 0 10-1.432 1.432l1.997 1.997a7.5 7.5 0 005.28 2.162c1.911 0 3.82-.724 5.268-2.172 2.886-2.926 2.884-7.655-.005-10.544zM14.708 4.16L12.71 2.163C9.786-.722 5.057-.72 2.163 2.173c-2.886 2.925-2.884 7.655.005 10.543l1.992 1.992a1.009 1.009 0 001.432 0 1.012 1.012 0 000-1.432L3.6 11.284C1.496 9.18 1.498 5.73 3.6 3.6c2.105-2.104 5.553-2.102 7.684 0l1.992 1.992a1.012 1.012 0 101.432-1.433z"
            fill="#1E91CF"/>
    <path
            d="M15.282 13.85L10.15 8.718a1.012 1.012 0 10-1.432 1.432l5.131 5.132a1.01 1.01 0 001.433 0 1.012 1.012 0 000-1.432z"
            fill="#1E91CF"/>
</svg>
