<svg fill="none" height="22" viewBox="0 0 16 22" width="16" xmlns="http://www.w3.org/2000/svg">
    <path
            d="M13.45 0H2.439a2.444 2.444 0 000 4.889h11.01a2.444 2.444 0 000-4.889zm0 3.667H2.439c-.67 0-1.217-.549-1.217-1.223A1.22 1.22 0 012.44 1.222h11.01a1.222 1.222 0 01.001 2.445zm0 4.888H2.439a2.444 2.444 0 000 4.89h11.01a2.444 2.444 0 000-4.89zm0 3.667H2.439A1.22 1.22 0 011.222 11 1.22 1.22 0 012.44 9.778h11.01a1.222 1.222 0 01.001 2.444zm0 4.889H2.439a2.444 2.444 0 000 4.889h11.01a2.444 2.444 0 000-4.889zm0 3.667H2.439c-.67 0-1.217-.548-1.217-1.223a1.22 1.22 0 011.217-1.222h11.01c.671 0 1.217.549 1.217 1.223a1.22 1.22 0 01-1.216 1.222z"
            fill="#1E91CF"/>
</svg>
