<svg fill="none" height="129" viewBox="0 0 110 129" width="110" xmlns="http://www.w3.org/2000/svg">
    <path
            d="M106.888 15.34L55.896.16a3.834 3.834 0 00-2.189 0L2.714 15.34A3.783 3.783 0 000 18.96v55.66c0 7.24 2.953 14.65 8.778 22.027 4.45 5.634 10.604 11.291 18.294 16.814 12.918 9.279 25.638 14.971 26.173 15.209a3.831 3.831 0 003.113 0c.535-.238 13.255-5.93 26.173-15.209 7.69-5.523 13.844-11.18 18.293-16.814 5.825-7.376 8.778-14.787 8.778-22.027V18.96a3.783 3.783 0 00-2.714-3.62zm-4.903 59.28c0 12.812-12.955 24.826-23.823 32.648-9.743 7.013-19.624 11.989-23.36 13.777-3.736-1.788-13.618-6.764-23.361-13.777C20.573 99.446 7.617 87.432 7.617 74.62V21.77L54.801 7.725l47.184 14.046V74.62z"
            fill="#fff"/>
    <path clip-rule="evenodd"
          d="M59.709 35.416c.994.923 1.818 2.433 1.832 3.356.014.923.556 2.33 1.205 3.126.648.796 1.179 2.338 1.179 3.426 0 1.089-.714 2.58-1.587 3.314-.873.733-1.413 1.596-1.199 1.917.214.321 1.791.072 3.506-.553 2.737-.998 3.182-1.51 3.641-4.179.288-1.672 1.098-4.165 1.8-5.538.701-1.373 1.982-2.848 2.846-3.277.863-.429 1.751-.612 1.974-.406.221.207-.419 1.407-1.424 2.67-1.279 1.605-1.932 3.658-2.18 6.852l-.356 4.56-4.313 1.772c-3.049 1.252-4.314 2.19-4.314 3.198 0 1.095.93 1.634 4 2.318 2.2.49 5.463 1.875 7.251 3.078 1.788 1.202 3.847 3.347 4.576 4.766.728 1.42 1.055 2.83.726 3.137-.33.306-1.882-.878-3.448-2.63-1.568-1.751-4.168-3.81-5.78-4.573-1.613-.764-4.164-1.506-5.671-1.65-2.443-.232-2.855 0-3.8 2.15-1.013 2.304-.971 2.43.947 2.877 1.104.258 2.91 1.464 4.012 2.681 1.102 1.217 2.005 2.849 2.005 3.627 0 1.067 1.055 1.698 4.31 2.577l4.311 1.163.97 5.581c.91 5.235.854 5.858-.894 10.043-1.025 2.454-2.136 4.463-2.47 4.463-.333 0-.606-.355-.606-.789 0-.434.404-2.277.897-4.097.537-1.978.675-5.237.344-8.106-.52-4.505-.704-4.846-3.024-5.597-1.36-.44-2.773-.8-3.141-.8-.369 0-1.619 1.76-2.78 3.915-1.16 2.153-3.526 5.676-5.26 7.83-1.88 2.339-3.767 3.915-4.684 3.915-.95 0-2.785-1.62-4.803-4.236-1.796-2.33-4.075-5.86-5.063-7.845-1.652-3.32-1.985-3.578-4.13-3.217-1.282.216-2.785.741-3.338 1.167-.553.427-1.248 2.714-1.544 5.084-.363 2.908-.148 5.697.664 8.584.726 2.582.877 4.175.38 4.022-.452-.14-1.67-2.124-2.708-4.41-1.74-3.832-1.819-4.552-1.011-9.295.482-2.828 1.277-5.506 1.769-5.951.491-.446 2.43-1.215 4.307-1.709 2.464-.648 3.413-1.287 3.413-2.301 0-.773.902-2.4 2.005-3.618 1.102-1.217 2.876-2.416 3.941-2.664 1.525-.355 1.842-.808 1.492-2.132-.244-.925-.763-2.063-1.153-2.53-.501-.598-1.7-.64-4.076-.145-1.851.386-4.56 1.387-6.017 2.223-1.458.837-3.59 2.665-4.737 4.062-1.147 1.396-2.404 2.539-2.793 2.539-.39 0-.708-.4-.708-.886 0-.488.763-1.914 1.694-3.17.933-1.255 2.955-3.189 4.494-4.296 1.54-1.106 4.713-2.381 7.053-2.833 3.693-.711 4.199-1.019 3.83-2.328-.262-.935-2.067-2.184-4.733-3.28L39.03 50.6v-3.89c0-2.823-.56-4.78-2.04-7.126-1.124-1.78-1.65-3.235-1.17-3.235s1.731.796 2.78 1.769c1.047.973 2.294 3.07 2.769 4.66.475 1.591.866 3.633.869 4.54.004 1.276.731 1.85 3.222 2.543 1.77.492 3.425.702 3.68.466.255-.237-.29-1.13-1.21-1.985-.92-.854-1.672-2.16-1.672-2.902s.53-2 1.179-2.797c.649-.795 1.19-2.37 1.204-3.498.015-1.128.84-2.806 1.833-3.729l1.807-1.677.253 2.05c.212 1.706.643 2.051 2.557 2.051 1.915 0 2.345-.345 2.557-2.05l.254-2.051 1.807 1.677z"
          fill="#fff"
          fill-rule="evenodd"/>
</svg>
