<svg width="844" height="782" viewBox="0 0 844 782" fill="none" xmlns="http://www.w3.org/2000/svg"><rect width="844" height="782" rx="30" fill="#E8E8E8"/><g clip-path="url(#clip0)"><path d="M384.893 577.799l-75.358-43.172c-8.5-4.906-22.394-4.906-30.895 0l-71.761 40.882c-4.087 2.453-6.212 5.397-6.375 8.504-.164 1.799 0 8.994 0 10.793 0 3.27 2.125 6.377 6.375 8.83l75.358 43.172c8.5 4.905 22.395 4.905 30.895 0l71.761-40.882c4.087-2.453 6.212-5.397 6.375-8.504.164-1.799 0-8.994 0-10.793 0-3.27-2.125-6.377-6.375-8.83z" fill="#1E91CF"/><path d="M384.893 577.308c8.5 4.906 8.664 12.919.164 17.825l-71.762 40.882c-8.5 4.906-22.395 4.906-30.895 0l-75.358-43.172c-8.5-4.905-8.663-12.918-.163-17.824l71.761-40.882c8.501-4.906 22.395-4.906 30.896 0l75.357 43.171z" fill="#fff"/><path d="M391.269 639.776c-.164 3.107-2.126 6.214-6.376 8.667l-71.761 40.882c-8.5 4.906-22.395 4.906-30.895 0l-75.358-43.171c-4.25-2.453-6.375-5.56-6.375-8.831v4.089c0 3.27 2.125 6.377 6.375 8.83l75.358 43.171c8.5 4.906 22.395 4.906 30.895 0l71.761-40.882c4.087-2.453 6.212-5.396 6.376-8.503.163-1.799 0-2.453 0-4.252z" fill="#1E91CF"/><path d="M391.269 616.555c0-.163 0-.163 0 0-.164 3.107-2.126 6.214-6.376 8.667l-71.761 40.882c-8.5 4.906-22.395 4.906-30.895 0l-75.358-43.171c-4.25-2.453-6.375-5.56-6.375-8.831v4.088c0 3.271 2.125 6.378 6.375 8.831l75.358 43.171c8.5 4.906 22.395 4.906 30.895 0l71.761-40.882c4.087-2.453 6.212-5.396 6.376-8.503.163-1.963 0-2.453 0-4.252zm390.193-35.486l-75.358-43.171c-8.5-4.906-22.395-4.906-30.895 0l-71.762 40.882c-4.086 2.453-6.211 5.396-6.375 8.503-.163 1.799 0 8.994 0 10.793 0 3.271 2.125 6.378 6.375 8.831l75.358 43.171c8.5 4.906 22.395 4.906 30.895 0l71.762-40.882c4.086-2.453 6.211-5.396 6.375-8.503.163-1.799 0-8.994 0-10.793 0-3.107-2.125-6.378-6.375-8.831z" fill="#1E91CF"/><path d="M781.461 580.742c8.5 4.906 8.664 12.919.164 17.825l-71.762 40.882c-8.5 4.906-22.395 4.906-30.895 0l-75.358-43.171c-8.5-4.906-8.663-12.919-.163-17.825l71.761-40.882c8.501-4.906 22.395-4.906 30.895 0l75.358 43.171z" fill="#fff"/><path d="M240.226 445.014l-75.358-43.172c-8.5-4.905-22.395-4.905-30.895 0l-71.762 40.882c-4.086 2.453-6.211 5.397-6.375 8.504-.163 1.799 0 8.994 0 10.793 0 3.27 2.125 6.377 6.376 8.83l75.521 43.172c8.5 4.906 22.395 4.906 30.895 0l71.761-40.882c4.087-2.453 6.212-5.397 6.375-8.504.164-1.799 0-8.994 0-10.793 0-3.27-2.125-6.377-6.538-8.83z" fill="#1E91CF"/><path d="M240.226 444.523c8.5 4.906 8.664 12.919.163 17.825l-71.761 40.882c-8.5 4.906-22.395 4.906-30.895 0l-75.195-43.008c-8.5-4.906-8.663-12.919-.163-17.825l71.762-40.882c8.5-4.905 22.394-4.905 30.895 0l75.194 43.008z" fill="#fff"/><path d="M246.765 483.77c0-.163 0-.163 0 0-.164 3.107-2.125 6.214-6.375 8.667l-71.762 40.882c-8.5 4.906-22.395 4.906-30.895 0l-75.194-43.335c-4.25-2.453-6.375-5.56-6.375-8.83v4.088c0 3.271 2.125 6.378 6.375 8.83l75.194 43.335c8.5 4.906 22.395 4.906 30.895 0l71.762-40.882c4.086-2.453 6.211-5.396 6.375-8.503v-4.252z" fill="#1E91CF"/><path d="M691.228 365.866l-69.636-38.92v.818c0 1.145.654 2.126 1.471 2.617l64.405 37.12c2.126 1.309 4.904 1.309 7.03 0l45.606-26.491c1.308-.654 1.962-2.126 1.962-3.598v-2.126l-50.838 30.58z" fill="#D7D7D7"/><path d="M742.229 335.286L694.17 366.03c-1.798 1.144-4.086 1.144-6.048.163l-65.386-37.611c-1.308-.818-1.471-2.78 0-3.598l48.059-30.743 71.434 41.045z" fill="#fff"/><path d="M674.391 245.019a3.459 3.459 0 00-3.106 0l-.817.49 68.655 40.555 1.472 50.367 1.634-.981V287.7c0-2.126-1.144-4.252-3.106-5.233l-64.732-37.448z" fill="#D7D7D7"/><path d="M737.489 283.448c1.798 1.145 3.106 3.107 3.106 5.233v47.75l-71.271-41.209v-47.75c0-1.472 1.634-2.453 3.106-1.799l65.059 37.775z" fill="#fff"/><path d="M733.893 334.632c.653.327.817 1.636.163 2.29l-22.395 14.39c-1.961 1.145-3.596.164-5.231-.817l-60.482-34.832c-1.308-.818-.981-1.962 0-2.616l22.068-13.9c1.308-.654 2.615-.982 3.596-.491l62.281 35.976z" fill="#D7D7D7"/><path d="M680.603 338.72c1.962 1.145 1.962 2.944 0 4.089l-8.991 5.233c-1.961 1.144-5.231 1.144-7.192 0l-14.058-8.177c-1.962-1.145-1.962-2.943 0-4.088l8.99-5.233c1.962-1.145 5.231-1.145 7.193 0l14.058 8.176z" fill="#1E91CF"/><path d="M673.901 290.97l61.3 35.322v-37.448l-61.3-35.322v37.448z" fill="#D7D7D7"/><path d="M244.313 244.365l47.078-27.146c1.308-.818 2.615-.818 3.596-.491.164 0 4.414 2.29 5.394 2.944.818.491 1.308 1.635 1.308 3.107v101.878c0 3.271-2.288 7.032-5.067 8.667l-47.078 27.309c-1.308.818-2.616.818-3.433.327-.981-.49-4.414-2.289-5.231-2.78-.817-.49-1.308-1.635-1.471-3.27V253.032c0-3.107 2.125-7.032 4.904-8.667z" fill="#fff"/><path d="M249.38 247.145c-2.779 1.635-4.904 5.56-4.904 8.667V357.69c0 3.27 2.289 4.415 5.068 2.943l47.078-27.145c2.779-1.636 5.067-5.56 5.067-8.667V222.779c0-3.271-2.452-4.415-5.231-2.943l-47.078 27.309z" fill="#D7D7D7"/><path d="M277.823 234.226c.818-.491 1.471-.164 1.471.818 0 .817-.653 1.962-1.471 2.453-.817.49-1.471.163-1.471-.818.164-.981.817-1.962 1.471-2.453z" fill="#1E91CF"/><path d="M296.622 229.647v85.852c0 1.472-1.308 3.598-2.452 4.416l-44.627 25.837V259.9c0-1.472 1.145-3.598 2.452-4.415l44.627-25.838z" fill="#fff"/><path d="M270.794 339.211l8.173-4.742c.164-.164.327 0 .327.163v3.434c0 .164-.163.491-.327.654l-8.173 4.743c-.164.163-.327 0-.327-.164v-3.434c-.164-.327 0-.654.327-.654zm-4.904-97.463l8.173-4.742c.164-.164.327 0 .327.163v1.309c0 .163-.163.49-.327.654l-8.173 4.742c-.164.164-.327 0-.327-.163v-1.309c0-.163.163-.49.327-.654zM569.773 94.246c-7.846 4.579-15.529 8.994-23.376 13.573 3.106-1.799 7.193-2.126 11.77-.654l23.376-13.573c-4.577-1.472-8.664-1.145-11.77.654z" fill="#1E91CF"/><path d="M558.167 107.328l23.376-13.572c-4.577-1.472-8.664-1.309-11.933.654l-23.213 13.409c3.106-1.799 7.193-1.962 11.77-.491z" fill="#1E91CF"/><path d="M588.572 82.799c4.74-2.78 11.279-2.453 18.635 1.799 11.77 6.868 21.741 21.422 25.01 35.649l-23.375 13.573c-3.27-14.227-13.241-28.781-25.011-35.65-7.192-4.251-13.894-4.578-18.635-1.798 7.847-4.58 15.693-9.158 23.376-13.573z" fill="#1E91CF"/><path d="M625.678 160.802l23.376-13.573c-1.144-10.302-8.173-21.913-16.837-26.982l-23.376 13.573c8.664 5.069 15.693 16.679 16.837 26.982z" fill="#1E91CF"/><path d="M625.678 160.802l23.376-13.573c-1.144-10.302-8.173-21.913-16.837-26.982l-23.376 13.573c8.664 5.069 15.693 16.679 16.837 26.982zm10.953 39.41l23.376-13.573c3.105-1.799 4.904-5.56 4.904-10.793 0-10.465-7.03-22.894-15.857-28.617l-23.375 13.573c8.827 5.723 16.019 18.315 15.856 28.617.163 5.397-1.798 9.158-4.904 10.793z" fill="#1E91CF"/><path d="M636.631 200.212l23.376-13.573c3.105-1.799 4.904-5.56 4.904-10.793 0-10.465-7.03-22.894-15.857-28.617l-23.375 13.573c8.827 5.723 16.019 18.315 15.856 28.617.163 5.397-1.798 9.158-4.904 10.793z" fill="#1E91CF"/><path d="M583.831 98.17c-12.586-7.358-23.212-3.107-25.664 9.158-10.625-3.598-18.635 2.616-18.635 15.535 0 14.881 10.462 33.033 23.376 40.392 9.971 5.723 53.453 30.907 61.79 35.649 9.317 5.396 17 1.145 17-9.648 0-10.466-7.029-22.894-15.856-28.618-1.144-10.302-8.173-21.913-16.837-26.982-3.433-14.063-13.404-28.617-25.174-35.486zm24.356 366.958c0-2.944-1.961-5.887-5.884-8.177l-127.994-73.914c-7.846-4.579-20.597-4.579-28.28 0L331.93 449.429c-3.923 2.29-5.885 5.233-5.885 8.177v40.228c0 2.943 1.962 6.05 5.885 8.339l127.994 73.915c7.846 4.579 20.597 4.579 28.279 0l114.1-66.392c3.759-2.29 5.721-5.07 5.884-8.013v-40.555z" fill="#fff"/><path d="M598.87 450.574c0-.491-.163-.981-.654-1.145l-127.993-73.915c-2.616-1.471-6.212-2.289-10.135-2.289s-7.52.818-10.135 2.289l-114.099 66.393c-.327.163-.491.654-.491 1.145v14.554c0 .49.164.981.654 1.144l127.994 73.915c2.615 1.472 6.212 2.289 10.135 2.289s7.519-.817 9.971-2.289l114.099-66.392c.327-.164.491-.655.491-1.145.163-.491.163-14.064.163-14.554z" fill="#1E91CF"/><path d="M608.187 402.987c0-2.943-1.961-5.887-5.884-8.176l-127.994-73.915c-7.846-4.579-20.597-4.579-28.28 0L331.93 387.288c-3.923 2.29-5.885 5.233-5.885 8.177v40.228c0 2.943 1.962 6.05 5.885 8.34l127.994 73.915c7.846 4.578 20.597 4.578 28.279 0l114.1-66.393c3.759-2.289 5.721-5.069 5.884-8.013v-40.555z" fill="#fff"/><path d="M598.87 388.433c0-.49-.163-.981-.654-1.145L470.223 313.21c-2.616-1.472-6.212-2.289-10.135-2.289s-7.52.817-10.135 2.289l-114.099 66.393c-.327.163-.491.654-.491 1.144v14.554c0 .491.164.982.654 1.145l127.994 73.915c2.615 1.472 6.212 2.289 10.135 2.289s7.519-.817 9.971-2.289l114.099-66.393c.327-.163.491-.654.491-1.144.163-.327.163-14.064.163-14.391z" fill="#1E91CF"/><path d="M608.187 340.683c0-2.944-1.961-5.887-5.884-8.177l-127.994-73.914c-7.846-4.579-20.597-4.579-28.28 0L331.93 324.984c-3.923 2.29-5.885 5.233-5.885 8.177v40.228c0 2.943 1.962 6.05 5.885 8.339l127.994 73.915c7.846 4.579 20.597 4.579 28.279 0l114.1-66.392c3.759-2.29 5.721-5.07 5.884-8.013v-40.555z" fill="#fff"/><path d="M598.87 326.129c0-.491-.163-.981-.654-1.145l-127.993-73.915c-2.616-1.471-6.212-2.289-10.135-2.289s-7.52.818-10.135 2.289l-114.099 66.393c-.327.163-.491.654-.491 1.145v14.554c0 .49.164.981.654 1.144l127.994 73.915c2.615 1.472 6.212 2.289 10.135 2.289s7.519-.817 9.971-2.289l114.099-66.392c.327-.164.491-.655.491-1.145.163-.327.163-14.064.163-14.554z" fill="#1E91CF"/><path d="M608.187 278.542c0-2.943-1.961-5.887-5.884-8.176l-127.994-73.915c-7.846-4.579-20.597-4.579-28.28 0L331.93 262.843c-3.923 2.29-5.885 5.233-5.885 8.177v40.228c0 2.943 1.962 6.05 5.885 8.34l127.994 73.914c7.846 4.579 20.597 4.579 28.279 0l114.1-66.392c3.759-2.289 5.721-5.069 5.884-8.013v-40.555z" fill="#fff"/><path d="M336.017 270.366l127.994 73.914c2.615 1.472 6.211 2.29 10.135 2.29 3.923 0 7.519-.818 9.971-2.29l114.099-66.392c.818-.491.818-1.799 0-2.289l-127.994-73.915c-2.615-1.472-6.211-2.29-10.134-2.29-3.924 0-7.52.818-10.135 2.29l-114.099 66.392c-.654.327-.654 1.799.163 2.29z" fill="#D7D7D7"/><path d="M338.469 475.921c-.981-.654-1.962-2.126-1.962-3.271 0 1.145.818 2.617 1.962 3.271z" fill="#fff"/><path d="M372.633 506.01c.981.654 1.962 2.126 1.962 3.271 0 1.144-.818 1.635-1.962 1.144l-32.039-18.642c-.981-.654-1.962-2.126-1.962-3.271 0-1.144.818-1.635 1.962-1.144l32.039 18.642z" fill="#D7D7D7"/><path d="M342.065 409.692c.327.163.654.817.654 1.145v6.377c0 .491-.327.654-.654.327l-6.539-3.761c-.327-.163-.653-.818-.653-1.145v-6.214c0-.49.326-.654.653-.327l6.539 3.598z" fill="#1E91CF"/><path d="M342.065 421.629c.327.164.654.818.654 1.145v6.378c0 .49-.327.654-.654.327l-6.539-3.761c-.327-.164-.653-.818-.653-1.145v-6.378c0-.49.326-.654.653-.327l6.539 3.761z" fill="#D7D7D7"/><path d="M353.508 416.56c.327.163.654.818.654 1.145v6.377c0 .491-.327.654-.654.327l-6.539-3.761c-.327-.163-.654-.817-.654-1.145v-6.377c0-.491.327-.654.654-.327l6.539 3.761zm0 11.937c.327.164.654.818.654 1.145v6.378c0 .49-.327.654-.654.327l-6.539-3.761c-.327-.164-.654-.818-.654-1.145v-6.378c0-.49.327-.654.654-.327l6.539 3.761z" fill="#1E91CF"/><path d="M364.95 423.428c.327.164.654.818.654 1.145v6.377c0 .491-.327.654-.654.327l-6.538-3.761c-.327-.163-.654-.817-.654-1.144v-6.378c0-.491.327-.654.654-.327l6.538 3.761z" fill="#D7D7D7"/><path d="M364.95 435.366c.327.163.654.817.654 1.144v6.378c0 .491-.327.654-.654.327l-6.538-3.761c-.327-.164-.654-.818-.654-1.145v-6.377c0-.491.327-.655.654-.327l6.538 3.761zm11.443-5.233c.327.163.654.817.654 1.144v6.378c0 .491-.327.654-.654.327l-6.538-3.761c-.327-.164-.654-.818-.654-1.145v-6.377c0-.491.327-.655.654-.327l6.538 3.761z" fill="#1E91CF"/><path d="M376.393 442.07c.327.164.654.818.654 1.145v6.378c0 .49-.327.654-.654.327l-6.538-3.761c-.327-.164-.654-.818-.654-1.145v-6.378c0-.49.327-.654.654-.327l6.538 3.761zm11.606-4.579c.327.164.654.818.654 1.145v6.378c0 .49-.327.654-.654.327l-6.538-3.761c-.327-.164-.654-.818-.654-1.145v-6.378c0-.49.327-.654.654-.327l6.538 3.761z" fill="#D7D7D7"/><path d="M387.999 449.429c.327.164.654.818.654 1.145v6.377c0 .491-.327.655-.654.328l-6.538-3.762c-.327-.163-.654-.817-.654-1.144v-6.378c0-.49.327-.654.654-.327l6.538 3.761z" fill="#1E91CF"/><path d="M399.442 444.196c.326.164.653.818.653 1.145v6.377c0 .491-.327.655-.653.327l-6.539-3.761c-.327-.163-.654-.817-.654-1.144v-6.378c0-.491.327-.654.654-.327l6.539 3.761z" fill="#D7D7D7"/><path d="M399.442 456.134c.326.163.653.818.653 1.145v6.377c0 .491-.327.654-.653.327l-6.539-3.761c-.327-.163-.654-.818-.654-1.145V452.7c0-.491.327-.654.654-.327l6.539 3.761zm-57.377-164.51c.327.164.654.818.654 1.145v6.378c0 .49-.327.654-.654.327l-6.539-3.761c-.327-.164-.653-.818-.653-1.145v-6.378c0-.49.326-.654.653-.327l6.539 3.761zm0 11.938c.327.164.654.818.654 1.145v6.377c0 .491-.327.654-.654.327l-6.539-3.761c-.327-.163-.653-.817-.653-1.145v-6.377c0-.491.326-.654.653-.327l6.539 3.761z" fill="#1E91CF"/><path d="M353.508 298.329c.327.163.654.818.654 1.145v6.377c0 .491-.327.654-.654.327l-6.539-3.761c-.327-.163-.654-.817-.654-1.145v-6.377c0-.491.327-.654.654-.327l6.539 3.761z" fill="#D7D7D7"/><path d="M353.508 310.267c.327.163.654.817.654 1.144v6.378c0 .49-.327.654-.654.327l-6.539-3.761c-.327-.164-.654-.818-.654-1.145v-6.378c0-.49.327-.654.654-.327l6.539 3.762zm11.442-5.07c.327.164.654.818.654 1.145v6.378c0 .49-.327.654-.654.327l-6.538-3.762c-.327-.163-.654-.817-.654-1.144v-6.378c0-.49.327-.654.654-.327l6.538 3.761z" fill="#1E91CF"/><path d="M364.95 317.135c.327.163.654.817.654 1.144v6.378c0 .491-.327.654-.654.327l-6.538-3.761c-.327-.164-.654-.818-.654-1.145v-6.377c0-.491.327-.654.654-.327l6.538 3.761zm11.443-5.07c.327.164.654.818.654 1.145v6.378c0 .49-.327.654-.654.327l-6.538-3.761c-.327-.164-.654-.818-.654-1.145v-6.378c0-.49.327-.654.654-.327l6.538 3.761zm0 11.938c.327.164.654.818.654 1.145v6.377c0 .491-.327.654-.654.327l-6.538-3.761c-.327-.163-.654-.817-.654-1.144v-6.378c0-.491.327-.654.654-.327l6.538 3.761z" fill="#D7D7D7"/><path d="M387.999 319.261c.327.163.654.817.654 1.144v6.378c0 .49-.327.654-.654.327l-6.538-3.761c-.327-.164-.654-.818-.654-1.145v-6.377c0-.491.327-.655.654-.328l6.538 3.762zm0 11.937c.327.164.654.818.654 1.145v6.378c0 .49-.327.654-.654.327l-6.538-3.762c-.327-.163-.654-.817-.654-1.144v-6.378c0-.49.327-.654.654-.327l6.538 3.761zm11.443-5.069c.326.163.653.817.653 1.144v6.378c0 .491-.327.654-.653.327l-6.539-3.761c-.327-.164-.654-.818-.654-1.145v-6.377c0-.491.327-.654.654-.327l6.539 3.761z" fill="#1E91CF"/><path d="M399.442 338.066c.326.164.653.818.653 1.145v6.378c0 .49-.327.654-.653.327l-6.539-3.761c-.327-.164-.654-.818-.654-1.145v-6.378c0-.49.327-.654.654-.327l6.539 3.761zm42.828 5.887c1.308.655 2.125 2.453 2.125 3.925v26.655c0 1.472-.981 1.963-2.289 1.308-1.307-.654-2.288-2.452-2.288-3.924v-26.655c.163-1.472 1.144-1.963 2.452-1.309zm-8.337-4.905c1.308.654 2.125 2.453 2.125 3.924v26.655c0 1.472-.981 1.963-2.289 1.309-1.307-.654-2.288-2.453-2.288-3.925v-26.655c.163-1.472 1.144-1.963 2.452-1.308zm-8.336-4.906c1.307.654 2.125 2.453 2.125 3.924v26.656c0 1.471-.981 1.962-2.289 1.308-1.308-.654-2.288-2.453-2.288-3.925V335.45c.163-1.472 1.144-1.962 2.452-1.308zm-8.501-4.906c1.308.654 2.125 2.453 2.125 3.925v26.655c0 1.471-.981 1.962-2.288 1.308-1.308-.654-2.289-2.453-2.289-3.925v-26.655c.327-1.472 1.308-1.962 2.452-1.308zm25.174 138.018c1.308.654 2.125 2.453 2.125 3.925v26.655c0 1.471-.981 1.962-2.289 1.308-1.307-.654-2.288-2.453-2.288-3.925v-26.655c.163-1.472 1.144-1.962 2.452-1.308zm-8.337-4.906c1.308.654 2.125 2.453 2.125 3.925v26.655c0 1.472-.981 1.962-2.289 1.308-1.307-.654-2.288-2.453-2.288-3.925v-26.655c.163-1.472 1.144-1.962 2.452-1.308zm-8.336-4.906c1.307.654 2.125 2.453 2.125 3.925v26.655c0 1.472-.981 1.962-2.289 1.308-1.308-.654-2.288-2.453-2.288-3.925V458.75c.163-1.471 1.144-1.962 2.452-1.308zm-8.501-4.906c1.308.654 2.125 2.453 2.125 3.925v26.655c0 1.472-.981 1.962-2.288 1.308-1.308-.654-2.289-2.453-2.289-3.924v-26.655c.327-1.472 1.308-1.963 2.452-1.309zm25.174 78.003c1.308.654 2.125 2.453 2.125 3.925v26.655c0 1.472-.981 1.962-2.289 1.308-1.307-.654-2.288-2.453-2.288-3.925v-26.655c.163-1.308 1.144-1.962 2.452-1.308zm-8.337-4.742c1.308.654 2.125 2.453 2.125 3.925v26.655c0 1.471-.981 1.962-2.289 1.308-1.307-.654-2.288-2.453-2.288-3.925v-26.655c.163-1.472 1.144-2.126 2.452-1.308zm-8.336-4.906c1.307.654 2.125 2.453 2.125 3.925v26.655c0 1.472-.981 1.962-2.289 1.308-1.308-.654-2.288-2.453-2.288-3.925v-26.655c.163-1.471 1.144-2.126 2.452-1.308zm-8.501-4.906c1.308.654 2.125 2.453 2.125 3.925v26.655c0 1.472-.981 1.962-2.288 1.308-1.308-.654-2.289-2.453-2.289-3.924v-26.656c.327-1.471 1.308-2.125 2.452-1.308zm153.168-208.498c-1.308.654-2.125 2.453-2.125 3.924v26.655c0 1.472.981 1.963 2.288 1.309 1.308-.654 2.289-2.453 2.289-3.925v-26.655c-.164-1.472-1.145-1.962-2.452-1.308zm8.337-4.906c-1.308.654-2.125 2.453-2.125 3.924v26.656c0 1.471.98 1.962 2.288 1.308 1.308-.654 2.289-2.453 2.289-3.925v-26.655c-.164-1.472-1.145-1.962-2.452-1.308zm8.336-4.906c-1.308.654-2.125 2.453-2.125 3.925v26.655c0 1.471.981 1.962 2.289 1.308 1.307-.654 2.288-2.453 2.288-3.925v-26.655c-.163-1.472-1.144-1.962-2.452-1.308zm8.337-4.906c-1.308.654-2.125 2.453-2.125 3.925v26.655c0 1.472.981 1.962 2.288 1.308 1.308-.654 2.289-2.453 2.289-3.925v-26.655c-.164-1.471-1.144-1.962-2.452-1.308z" fill="#D7D7D7"/><path d="M336.344 353.275c-.817-.491-1.635-1.799-1.635-2.78.164.981.818 2.289 1.635 2.78z" fill="#1E91CF"/><path d="M344.354 354.092c.817.491 1.635 1.799 1.635 2.78 0 .981-.654 1.472-1.635.981l-8.01-4.579c-.817-.49-1.635-1.798-1.635-2.779 0-.982.654-1.472 1.635-.982l8.01 4.579zm-8.01 7.359c-.817-.491-1.635-1.799-1.635-2.78.164.981.818 2.126 1.635 2.78z" fill="#1E91CF"/><path d="M338.47 358.835c.817.49 1.634 1.798 1.634 2.78 0 .981-.653 1.471-1.634.981l-1.962-1.309c-.817-.49-1.634-1.798-1.634-2.779 0-.982.653-1.472 1.634-.982l1.962 1.309zm9.643 13.572c.818.491 1.635 1.799 1.635 2.78 0 .982-.654 1.472-1.635.982l-11.606-6.705c-.817-.491-1.634-1.799-1.634-2.78 0-.981.653-1.472 1.634-.981l11.606 6.704z" fill="#1E91CF"/><path d="M357.431 369.954c.817.491 1.635 1.799 1.635 2.78 0 .982-.654 1.472-1.635.982l-13.241-7.686c-.817-.491-1.634-1.799-1.634-2.78 0-.981.654-1.472 1.634-.981l13.241 7.685z" fill="#D7D7D7"/><path d="M355.633 376.823c.817.49 1.635 1.798 1.635 2.78 0 .981-.654 1.471-1.635.981l-1.635-.981c-.817-.491-1.634-1.799-1.634-2.78 0-.982.654-1.472 1.634-.982l1.635.982zm-2.779-17.825c.817.491 1.634 1.799 1.634 2.78 0 .981-.653 1.472-1.634.981l-2.289-1.308c-.817-.491-1.634-1.799-1.634-2.78 0-.981.654-1.472 1.634-.981l2.289 1.308zm10.952 6.378c.817.49 1.635 1.798 1.635 2.78 0 .981-.654 1.471-1.635.981l-4.741-2.78c-.817-.491-1.634-1.799-1.634-2.78 0-.981.654-1.472 1.634-.981l4.741 2.78z" fill="#1E91CF"/><path d="M370.835 373.389c-.817-.491-1.634-1.799-1.634-2.78.163 1.144.817 2.289 1.634 2.78z" fill="#D7D7D7"/><path d="M378.845 374.37c.817.49 1.635 1.799 1.635 2.78 0 .981-.654 1.471-1.635.981l-8.01-4.579c-.817-.491-1.634-1.799-1.634-2.78 0-.981.654-1.472 1.634-.981l8.01 4.579z" fill="#D7D7D7"/><path d="M370.835 381.565c-.817-.491-1.634-1.799-1.634-2.78.163.981.817 2.289 1.634 2.78z" fill="#1E91CF"/><path d="M372.96 379.112c.818.491 1.635 1.799 1.635 2.78 0 .981-.654 1.472-1.635.981l-8.827-5.233c-.817-.49-1.634-1.799-1.634-2.78 0-.981.653-1.471 1.634-.981l8.827 5.233z" fill="#1E91CF"/><path d="M382.605 392.521l-11.606-6.704-8.827-5.233c-.818-.491-1.635-.164-1.635.981 0 .981.654 2.289 1.635 2.78l8.827 5.233 11.606 6.704c.817.491 1.635.164 1.635-.981 0-.981-.818-2.289-1.635-2.78z" fill="#D7D7D7"/><path d="M398.297 393.666c.818.491 1.635 1.799 1.635 2.78 0 .981-.654 1.472-1.635.981l-19.615-11.283c-.818-.491-1.635-1.799-1.635-2.78 0-.981.654-1.472 1.635-.981l19.615 11.283z" fill="#1E91CF"/><path d="M398.298 401.679c.817.491 1.634 1.799 1.634 2.78 0 .981-.654 1.472-1.634.981l-1.799-.981c-.817-.491-1.634-1.799-1.634-2.78 0-.981.654-1.472 1.634-.981l1.799.981z" fill="#D7D7D7"/><path d="M390.124 397.1c.818.491 1.635 1.799 1.635 2.78 0 .981-.654 1.472-1.635.981l-1.634-.981c-.818-.491-1.635-1.799-1.635-2.78 0-.981.654-1.472 1.635-.981l1.634.981zm-2.779-17.824c.817.49 1.635 1.798 1.635 2.78 0 .981-.654 1.471-1.635.981l-2.288-1.308c-.818-.491-1.635-1.799-1.635-2.78 0-.982.654-1.472 1.635-.982l2.288 1.309z" fill="#1E91CF"/><path d="M398.298 385.653c.817.491 1.634 1.799 1.634 2.78 0 .981-.654 1.472-1.634.981l-4.741-2.78c-.817-.49-1.635-1.798-1.635-2.78 0-.981.654-1.471 1.635-.981l4.741 2.78zm-9.809 130.332c.164.164.327.327.327.654v3.271c0 .163-.163.327-.327.163l-9.644-5.723c-.163-.164-.327-.327-.327-.654v-3.271c0-.163.164-.327.327-.163l9.644 5.723z" fill="#D7D7D7"/><path d="M669.651 475.757l-61.463-35.485v3.107c0 .981-.327 1.962-.818 2.943l59.502 34.341c4.904 2.78 7.519 6.378 7.519 9.975 0 3.598-2.615 7.195-7.356 9.975L494.252 601.02c-5.231 3.107-12.424 4.742-19.943 4.742-7.683 0-14.712-1.635-20.106-4.742L260.496 489.166c-4.904-2.779-7.52-6.377-7.52-9.975 0-3.597 2.616-7.195 7.356-9.975l65.714-38.266v-6.541l-68.493 39.901c-6.538 3.761-10.135 9.158-10.135 14.718 0 5.723 3.76 10.956 10.299 14.881l193.707 112.017c6.212 3.597 14.221 5.56 22.885 5.56 8.5 0 16.674-1.963 22.722-5.56l172.783-100.407c6.539-3.761 10.135-9.157 10.135-14.717 0-5.887-3.596-11.12-10.298-15.045z" fill="#1E91CF"/><path opacity=".6" d="M669.651 430.46l-69.31-40.065-1.471.818v1.472l3.433 1.962c3.106 1.799 5.067 4.088 5.721 6.541l59.011 34.014c4.904 2.78 7.52 6.378 7.52 9.975 0 3.598-2.616 7.196-7.356 9.976L494.415 555.559c-5.23 3.107-12.423 4.742-19.942 4.742-7.683 0-14.712-1.635-20.107-4.742L260.659 443.706c-4.904-2.78-7.519-6.378-7.519-9.976 0-3.597 2.615-7.195 7.356-9.975l72.088-41.863-.49-.327c-1.798-.981-3.106-2.289-4.087-3.434l-70.29 40.882c-6.539 3.761-10.135 9.157-10.135 14.717 0 5.724 3.76 10.957 10.298 14.881l193.707 111.854c6.212 3.597 14.222 5.56 22.886 5.56 8.5 0 16.673-1.963 22.721-5.56l172.784-100.407c6.538-3.761 10.135-9.157 10.135-14.717-.164-5.724-3.76-11.12-10.462-14.881z" fill="#1E91CF"/><path opacity=".25" d="M669.651 382.055l-61.463-35.485v6.377l58.684 33.851c4.904 2.78 7.519 6.377 7.519 9.975s-2.615 7.195-7.356 9.975L494.252 507.155c-5.231 3.107-12.424 4.742-19.943 4.742-7.683 0-14.712-1.635-20.106-4.742L260.496 395.301c-4.904-2.78-7.52-6.377-7.52-9.975s2.616-7.195 7.356-9.975l65.714-38.266v-4.088c0-.981.163-1.799.653-2.78l-69.146 40.228c-6.538 3.761-10.135 9.158-10.135 14.717 0 5.724 3.76 10.957 10.299 14.882l193.707 111.853c6.212 3.597 14.221 5.56 22.885 5.56 8.5 0 16.674-1.963 22.722-5.56l172.783-100.406c6.539-3.762 10.135-9.158 10.135-14.718 0-5.723-3.596-10.956-10.298-14.718z" fill="#1E91CF"/><path d="M401.894 139.38a2.267 2.267 0 00-1.798.327l-13.241 7.685c.49-.327.981-.327 1.798-.327 4.741.655 9.154.655 13.731-1.962l13.241-7.686c-4.577 2.617-8.991 2.617-13.731 1.963z" fill="#1E91CF"/><path d="M469.078 275.762l13.241-7.686c19.779-11.447 28.116-33.85 31.549-53.8l-13.241 7.685c-3.269 19.951-11.769 42.191-31.549 53.801z" fill="#fff"/><path d="M389.307 147.229c11.116 1.799 19.289-4.088 22.068-15.535.49-2.29 2.288-3.107 4.577-2.29 10.462 3.925 21.25 8.994 32.203 15.372a283.125 283.125 0 0134.327 23.385c2.126 1.798 3.924 4.742 4.578 7.522 2.778 14.554 10.952 29.762 21.904 40.718l.817.818c2.125 2.126 3.433 5.233 3.106 7.686l-.163.817c-4.087 30.253-17.818 67.211-60.646 72.116-.981.164-2.125-.163-3.269-.817-1.145-.654-2.289-1.635-3.27-2.944-42.664-54.291-56.232-107.111-60.155-141.779l-.164-.981c-.327-2.78.981-4.415 3.106-4.088h.981z" fill="#fff"/><path d="M526.128 217.056c.327-2.617-1.145-5.724-3.106-7.686-26.809-29.272-18.308-42.027-27.136-49.059-11.279-8.83-22.885-16.68-34.327-23.384-3.76-2.126-31.549-17.498-35.309-15.372-4.414 2.616-8.827 5.233-13.241 7.686 3.76-2.126 31.386 13.082 35.309 15.372 5.558 3.27 34.818 20.931 38.087 28.29.164.163.164.327.327.654.981 2.616 1.308 8.176 5.722 17.988 10.625 23.875 21.741 24.529 20.433 33.85-3.106 23.221-11.933 50.367-35.309 64.104l13.241-7.686c21.741-12.592 33.347-41.046 35.309-64.757z" fill="#1E91CF"/><path d="M505.858 219.345c-1.471-.818-2.779-.164-2.779 1.635s1.144 3.925 2.779 4.743c1.471.817 2.779.163 2.779-1.636-.164-1.799-1.308-3.924-2.779-4.742zm-23.703-47.423c-1.471-.818-2.779-.164-2.779 1.635s1.145 3.925 2.779 4.742c1.472.818 2.779.164 2.779-1.635-.163-1.799-1.307-3.925-2.779-4.742zm-90.886-19.787c-1.472-.818-2.779-.164-2.779 1.635s1.144 3.925 2.779 4.742c1.471.818 2.779.164 2.779-1.635-.164-1.635-1.308-3.761-2.779-4.742zm25.827-18.152c-1.471-.817-2.779-.163-2.779 1.635 0 1.799 1.144 3.925 2.779 4.743 1.471.817 2.779.163 2.779-1.635-.164-1.799-1.308-3.925-2.779-4.743zm32.039 152.572c-1.471-.818-2.779-.164-2.779 1.635s1.145 3.925 2.779 4.743c1.472.817 2.779.163 2.779-1.636s-1.307-3.924-2.779-4.742z" fill="#1E91CF"/><path d="M448.972 282.63c34.655-5.396 47.405-34.995 51.655-60.832-11.116-12.755-19.616-28.781-23.539-44.643-9.481-7.196-19.289-13.737-28.934-19.297-8.99-5.233-18.144-9.648-26.644-13.082-3.924 11.447-12.587 17.661-23.866 17.498 4.25 30.906 16.673 74.895 51.328 120.356z" fill="#D7D7D7"/><path d="M417.096 133.983c-1.471-.817-2.779-.163-2.779 1.635 0 1.799 1.144 3.925 2.779 4.743 1.471.817 2.779.163 2.779-1.635-.164-1.799-1.308-3.925-2.779-4.743z" fill="#1E91CF"/></g><defs><clipPath id="clip0"><path fill="#fff" transform="translate(56 81)" d="M0 0h732v660H0z"/></clipPath></defs></svg>