<svg fill="none" height="660" viewBox="0 0 732 660" width="732" xmlns="http://www.w3.org/2000/svg">
    <defs>
        <clipPath id="clip0_30_579">
            <rect fill="white" height="660" width="732"/>
        </clipPath>
    </defs>
    <g clip-path="url(#clip0_30_579)">
        <path
                d="M328.894 496.799L253.536 453.627C245.036 448.721 231.141 448.721 222.641 453.627L150.879 494.509C146.793 496.962 144.668 499.906 144.504 503.013C144.341 504.812 144.504 512.007 144.504 513.806C144.504 517.076 146.629 520.183 150.879 522.636L226.237 565.808C234.737 570.713 248.632 570.713 257.132 565.808L328.894 524.926C332.98 522.473 335.105 519.529 335.269 516.422C335.432 514.623 335.269 507.428 335.269 505.629C335.269 502.359 333.144 499.252 328.894 496.799Z"
                fill="#1E91CF"/>
        <path
                d="M328.893 496.308C337.393 501.214 337.557 509.227 329.057 514.133L257.295 555.015C248.795 559.921 234.9 559.921 226.4 555.015L151.042 511.843C142.542 506.938 142.379 498.925 150.879 494.019L222.64 453.137C231.141 448.231 245.035 448.231 253.536 453.137L328.893 496.308Z"
                fill="white"/>
        <path
                d="M335.269 558.776C335.105 561.883 333.143 564.99 328.893 567.443L257.132 608.325C248.632 613.231 234.737 613.231 226.237 608.325L150.879 565.154C146.629 562.701 144.504 559.594 144.504 556.323C144.504 558.286 144.504 558.613 144.504 560.412C144.504 563.682 146.629 566.789 150.879 569.242L226.237 612.413C234.737 617.319 248.632 617.319 257.132 612.413L328.893 571.531C332.98 569.078 335.105 566.135 335.269 563.028C335.432 561.229 335.269 560.575 335.269 558.776Z"
                fill="#1E91CF"/>
        <path
                d="M335.269 535.555C335.269 535.392 335.269 535.392 335.269 535.555C335.105 538.662 333.143 541.769 328.893 544.222L257.132 585.104C248.632 590.01 234.737 590.01 226.237 585.104L150.879 541.933C146.629 539.48 144.504 536.373 144.504 533.102C144.504 535.064 144.504 535.392 144.504 537.19C144.504 540.461 146.629 543.568 150.879 546.021L226.237 589.192C234.737 594.098 248.632 594.098 257.132 589.192L328.893 548.31C332.98 545.857 335.105 542.914 335.269 539.807C335.432 537.844 335.269 537.354 335.269 535.555Z"
                fill="#1E91CF"/>
        <path
                d="M725.461 500.069L650.103 456.898C641.603 451.992 627.709 451.992 619.208 456.898L547.447 497.78C543.36 500.233 541.235 503.176 541.072 506.283C540.908 508.082 541.072 515.277 541.072 517.076C541.072 520.347 543.197 523.454 547.447 525.907L622.805 569.078C631.305 573.984 645.199 573.984 653.7 569.078L725.461 528.196C729.548 525.743 731.673 522.8 731.836 519.693C732 517.894 731.836 510.699 731.836 508.9C731.836 505.793 729.711 502.522 725.461 500.069Z"
                fill="#1E91CF"/>
        <path
                d="M725.462 499.742C733.962 504.648 734.125 512.661 725.625 517.567L653.864 558.449C645.363 563.355 631.469 563.355 622.969 558.449L547.611 515.278C539.111 510.372 538.947 502.359 547.447 497.453L619.209 456.571C627.709 451.665 641.604 451.665 650.104 456.571L725.462 499.742Z"
                fill="white"/>
        <path
                d="M184.226 364.014L108.868 320.842C100.368 315.937 86.4732 315.937 77.973 320.842L6.21149 361.724C2.12485 364.177 -0.000210807 367.121 -0.163677 370.228C-0.327142 372.027 -0.163677 379.222 -0.163677 381.021C-0.163677 384.291 1.96138 387.398 6.21149 389.851L81.7327 433.023C90.2329 437.929 104.128 437.929 112.628 433.023L184.389 392.141C188.476 389.688 190.601 386.744 190.764 383.637C190.928 381.838 190.764 374.643 190.764 372.844C190.764 369.574 188.639 366.467 184.226 364.014Z"
                fill="#1E91CF"/>
        <path
                d="M184.226 363.523C192.726 368.429 192.89 376.442 184.389 381.348L112.628 422.23C104.128 427.136 90.2331 427.136 81.7328 422.23L6.53854 379.222C-1.96168 374.316 -2.12514 366.303 6.37508 361.397L78.1366 320.515C86.6368 315.61 100.531 315.61 109.032 320.515L184.226 363.523Z"
                fill="white"/>
        <path
                d="M190.764 402.77C190.764 402.607 190.764 402.607 190.764 402.77C190.601 405.877 188.639 408.984 184.389 411.437L112.628 452.319C104.127 457.225 90.2328 457.225 81.7325 452.319L6.53825 408.984C2.28814 406.531 0.163086 403.424 0.163086 400.154C0.163086 402.116 0.163086 402.443 0.163086 404.242C0.163086 407.513 2.28814 410.62 6.53825 413.072L81.7325 456.407C90.2328 461.313 104.127 461.313 112.628 456.407L184.389 415.525C188.476 413.072 190.601 410.129 190.764 407.022C190.764 405.06 190.764 404.569 190.764 402.77Z"
                fill="#1E91CF"/>
        <path
                d="M635.228 284.866L565.592 245.946V246.764C565.592 247.909 566.246 248.89 567.063 249.381L631.468 286.501C633.594 287.81 636.372 287.81 638.498 286.501L684.104 260.01C685.412 259.356 686.066 257.884 686.066 256.412V254.286L635.228 284.866Z"
                fill="#D7D7D7"/>
        <path
                d="M686.23 254.286L638.171 285.03C636.373 286.174 634.084 286.174 632.123 285.193L566.736 247.582C565.429 246.764 565.265 244.802 566.736 243.984L614.795 213.241L686.23 254.286Z"
                fill="white"/>
        <path
                d="M618.391 164.019C617.41 163.528 616.266 163.528 615.285 164.019L614.468 164.509L683.123 205.064L684.595 255.431L686.229 254.45V206.7C686.229 204.574 685.085 202.448 683.123 201.467L618.391 164.019Z"
                fill="#D7D7D7"/>
        <path
                d="M681.489 202.448C683.288 203.593 684.595 205.555 684.595 207.681V255.431L613.324 214.222V166.472C613.324 165 614.959 164.019 616.43 164.673L681.489 202.448Z"
                fill="white"/>
        <path
                d="M677.893 253.632C678.547 253.959 678.71 255.268 678.057 255.922L655.662 270.312C653.7 271.457 652.065 270.476 650.431 269.495L589.948 234.663C588.641 233.845 588.968 232.701 589.948 232.047L612.016 218.147C613.324 217.493 614.632 217.165 615.613 217.656L677.893 253.632Z"
                fill="#D7D7D7"/>
        <path
                d="M624.603 257.72C626.565 258.865 626.565 260.664 624.603 261.809L615.612 267.042C613.651 268.186 610.381 268.186 608.42 267.042L594.362 258.865C592.4 257.72 592.4 255.922 594.362 254.777L603.352 249.544C605.314 248.399 608.583 248.399 610.545 249.544L624.603 257.72Z"
                fill="#1E91CF"/>
        <path d="M617.9 209.97L679.2 245.292V207.844L617.9 172.522V209.97Z" fill="#D7D7D7"/>
        <path
                d="M188.312 163.365L235.39 136.219C236.698 135.401 238.006 135.401 238.987 135.728C239.15 135.728 243.4 138.018 244.381 138.672C245.198 139.163 245.689 140.307 245.689 141.779V243.657C245.689 246.928 243.4 250.689 240.621 252.324L193.543 279.633C192.235 280.451 190.928 280.451 190.11 279.96C189.13 279.47 185.697 277.671 184.879 277.18C184.062 276.69 183.572 275.545 183.408 273.91V172.032C183.408 168.925 185.533 165 188.312 163.365Z"
                fill="white"/>
        <path
                d="M193.381 166.145C190.602 167.78 188.477 171.705 188.477 174.812V276.69C188.477 279.96 190.765 281.105 193.544 279.633L240.622 252.488C243.401 250.852 245.69 246.928 245.69 243.821V141.779C245.69 138.508 243.238 137.364 240.459 138.836L193.381 166.145Z"
                fill="#D7D7D7"/>
        <path
                d="M221.823 153.226C222.64 152.735 223.294 153.062 223.294 154.044C223.294 154.861 222.64 156.006 221.823 156.497C221.005 156.987 220.352 156.66 220.352 155.679C220.515 154.698 221.169 153.717 221.823 153.226Z"
                fill="#1E91CF"/>
        <path
                d="M240.622 148.647V234.499C240.622 235.971 239.314 238.097 238.17 238.915L193.544 264.752V178.9C193.544 177.428 194.688 175.302 195.996 174.485L240.622 148.647Z"
                fill="white"/>
        <path
                d="M214.794 258.211L222.968 253.469C223.131 253.305 223.295 253.469 223.295 253.632V257.066C223.295 257.23 223.131 257.557 222.968 257.72L214.794 262.463C214.631 262.626 214.467 262.463 214.467 262.299V258.865C214.304 258.538 214.467 258.211 214.794 258.211Z"
                fill="#1E91CF"/>
        <path
                d="M209.89 160.748L218.064 156.006C218.227 155.842 218.391 156.006 218.391 156.169V157.478C218.391 157.641 218.227 157.968 218.064 158.132L209.89 162.874C209.727 163.038 209.563 162.874 209.563 162.711V161.402C209.563 161.239 209.727 160.912 209.89 160.748Z"
                fill="#1E91CF"/>
        <path
                d="M513.773 13.2458C505.927 17.8246 498.244 22.2399 490.397 26.8187C493.503 25.0199 497.59 24.6928 502.167 26.1646L525.543 12.5917C520.966 11.12 516.879 11.447 513.773 13.2458Z"
                fill="#1E91CF"/>
        <path
                d="M502.167 26.3285L525.543 12.7556C520.966 11.2839 516.879 11.4474 513.61 13.4097L490.397 26.819C493.503 25.0202 497.59 24.8567 502.167 26.3285Z"
                fill="#1E91CF"/>
        <path
                d="M532.572 1.79885C537.312 -0.981134 543.851 -0.654077 551.207 3.59766C562.977 10.4658 572.948 25.0199 576.217 39.2468L552.842 52.8197C549.572 38.5927 539.601 24.0387 527.831 17.1705C520.639 12.9188 513.937 12.5917 509.196 15.3717C517.043 10.7929 524.889 6.21411 532.572 1.79885Z"
                fill="#1E91CF"/>
        <path
                d="M569.679 79.8018L593.054 66.2289C591.91 55.9267 584.881 44.3162 576.217 39.2468L552.842 52.8196C561.505 57.889 568.535 69.4995 569.679 79.8018Z"
                fill="#1E91CF"/>
        <path
                d="M569.679 79.8018L593.054 66.2289C591.91 55.9267 584.881 44.3162 576.217 39.2468L552.842 52.8196C561.505 57.889 568.535 69.4995 569.679 79.8018Z"
                fill="#1E91CF"/>
        <path
                d="M580.631 119.212L604.007 105.639C607.112 103.84 608.911 100.079 608.911 94.8464C608.911 84.3806 601.881 71.9524 593.054 66.2289L569.679 79.8018C578.506 85.5253 585.698 98.117 585.535 108.419C585.698 113.816 583.737 117.577 580.631 119.212Z"
                fill="#1E91CF"/>
        <path
                d="M580.631 119.212L604.007 105.639C607.112 103.84 608.911 100.079 608.911 94.8464C608.911 84.3806 601.881 71.9524 593.054 66.2289L569.679 79.8018C578.506 85.5253 585.698 98.117 585.535 108.419C585.698 113.816 583.737 117.577 580.631 119.212Z"
                fill="#1E91CF"/>
        <path
                d="M527.831 17.1705C515.245 9.81168 504.619 14.0634 502.167 26.328C491.542 22.7304 483.532 28.9445 483.532 41.8632C483.532 56.7443 493.994 74.8959 506.908 82.2547C516.879 87.9782 560.361 113.162 568.698 117.904C578.015 123.3 585.698 119.049 585.698 108.256C585.698 97.7899 578.669 85.3617 569.842 79.6382C568.698 69.336 561.669 57.7255 553.005 52.6561C549.572 38.5927 539.601 24.0386 527.831 17.1705Z"
                fill="white"/>
        <path
                d="M552.188 384.128C552.188 381.184 550.226 378.241 546.303 375.951L418.309 302.037C410.463 297.458 397.713 297.458 390.03 302.037L275.931 368.429C272.007 370.719 270.046 373.662 270.046 376.606C270.046 379.549 270.046 413.89 270.046 416.834C270.046 419.777 272.007 422.884 275.931 425.173L403.924 499.088C411.771 503.667 424.521 503.667 432.204 499.088L546.303 432.696C550.063 430.406 552.024 427.626 552.188 424.683C552.188 421.576 552.188 387.071 552.188 384.128Z"
                fill="white"/>
        <path
                d="M542.87 369.574C542.87 369.083 542.707 368.593 542.216 368.429L414.223 294.514C411.607 293.043 408.011 292.225 404.088 292.225C400.165 292.225 396.568 293.043 393.953 294.514L279.854 360.907C279.527 361.07 279.363 361.561 279.363 362.052C279.363 362.542 279.363 376.115 279.363 376.606C279.363 377.096 279.527 377.587 280.017 377.75L408.011 451.665C410.626 453.137 414.223 453.954 418.146 453.954C422.069 453.954 425.665 453.137 428.117 451.665L542.216 385.273C542.543 385.109 542.707 384.618 542.707 384.128C542.87 383.637 542.87 370.064 542.87 369.574Z"
                fill="#1E91CF"/>
        <path
                d="M552.188 321.987C552.188 319.044 550.226 316.1 546.303 313.811L418.309 239.896C410.463 235.317 397.713 235.317 390.03 239.896L275.931 306.288C272.007 308.578 270.046 311.521 270.046 314.465C270.046 317.408 270.046 351.749 270.046 354.693C270.046 357.636 272.007 360.743 275.931 363.033L403.924 436.948C411.771 441.526 424.521 441.526 432.204 436.948L546.303 370.555C550.063 368.266 552.024 365.486 552.188 362.542C552.188 359.272 552.188 324.931 552.188 321.987Z"
                fill="white"/>
        <path
                d="M542.87 307.433C542.87 306.943 542.707 306.452 542.216 306.288L414.223 232.21C411.607 230.738 408.011 229.921 404.088 229.921C400.165 229.921 396.568 230.738 393.953 232.21L279.854 298.603C279.527 298.766 279.363 299.257 279.363 299.747C279.363 300.238 279.363 313.811 279.363 314.301C279.363 314.792 279.527 315.283 280.017 315.446L408.011 389.361C410.626 390.833 414.223 391.65 418.146 391.65C422.069 391.65 425.665 390.833 428.117 389.361L542.216 322.968C542.543 322.805 542.707 322.314 542.707 321.824C542.87 321.497 542.87 307.76 542.87 307.433Z"
                fill="#1E91CF"/>
        <path
                d="M552.188 259.683C552.188 256.739 550.226 253.796 546.303 251.506L418.309 177.592C410.463 173.013 397.713 173.013 390.03 177.592L275.931 243.984C272.007 246.274 270.046 249.217 270.046 252.161C270.046 255.104 270.046 289.445 270.046 292.389C270.046 295.332 272.007 298.439 275.931 300.728L403.924 374.643C411.771 379.222 424.521 379.222 432.204 374.643L546.303 308.251C550.063 305.961 552.024 303.181 552.188 300.238C552.188 297.131 552.188 262.79 552.188 259.683Z"
                fill="white"/>
        <path
                d="M542.87 245.129C542.87 244.638 542.707 244.148 542.216 243.984L414.223 170.069C411.607 168.598 408.011 167.78 404.088 167.78C400.165 167.78 396.568 168.598 393.953 170.069L279.854 236.462C279.527 236.625 279.363 237.116 279.363 237.607C279.363 238.097 279.363 251.67 279.363 252.161C279.363 252.651 279.527 253.142 280.017 253.305L408.011 327.22C410.626 328.692 414.223 329.509 418.146 329.509C422.069 329.509 425.665 328.692 428.117 327.22L542.216 260.828C542.543 260.664 542.707 260.173 542.707 259.683C542.87 259.356 542.87 245.619 542.87 245.129Z"
                fill="#1E91CF"/>
        <path
                d="M552.188 197.542C552.188 194.599 550.226 191.655 546.303 189.366L418.309 115.451C410.463 110.872 397.713 110.872 390.03 115.451L275.931 181.843C272.007 184.133 270.046 187.076 270.046 190.02C270.046 192.963 270.046 227.304 270.046 230.248C270.046 233.191 272.007 236.298 275.931 238.588L403.924 312.502C411.771 317.081 424.521 317.081 432.204 312.502L546.303 246.11C550.063 243.821 552.024 241.041 552.188 238.097C552.188 234.99 552.188 200.486 552.188 197.542Z"
                fill="white"/>
        <path
                d="M280.017 189.366L408.011 263.28C410.626 264.752 414.222 265.57 418.146 265.57C422.069 265.57 425.665 264.752 428.117 263.28L542.216 196.888C543.034 196.397 543.034 195.089 542.216 194.599L414.222 120.684C411.607 119.212 408.011 118.394 404.088 118.394C400.164 118.394 396.568 119.212 393.953 120.684L279.854 187.076C279.2 187.403 279.2 188.875 280.017 189.366Z"
                fill="#D7D7D7"/>
        <path
                d="M282.469 394.921C281.489 394.267 280.508 392.795 280.508 391.65C280.508 392.795 281.325 394.267 282.469 394.921Z"
                fill="white"/>
        <path
                d="M316.634 425.01C317.615 425.664 318.595 427.136 318.595 428.281C318.595 429.425 317.778 429.916 316.634 429.425L284.594 410.783C283.614 410.129 282.633 408.657 282.633 407.512C282.633 406.368 283.45 405.877 284.594 406.368L316.634 425.01Z"
                fill="#D7D7D7"/>
        <path
                d="M286.066 328.692C286.392 328.855 286.719 329.509 286.719 329.837V336.214C286.719 336.705 286.392 336.868 286.066 336.541L279.527 332.78C279.2 332.617 278.873 331.962 278.873 331.635V325.421C278.873 324.931 279.2 324.767 279.527 325.094L286.066 328.692Z"
                fill="#1E91CF"/>
        <path
                d="M286.066 340.629C286.392 340.793 286.719 341.447 286.719 341.774V348.152C286.719 348.642 286.392 348.806 286.066 348.479L279.527 344.718C279.2 344.554 278.873 343.9 278.873 343.573V337.195C278.873 336.705 279.2 336.541 279.527 336.868L286.066 340.629Z"
                fill="#D7D7D7"/>
        <path
                d="M297.508 335.56C297.835 335.723 298.162 336.378 298.162 336.705V343.082C298.162 343.573 297.835 343.736 297.508 343.409L290.969 339.648C290.642 339.485 290.315 338.831 290.315 338.503V332.126C290.315 331.635 290.642 331.472 290.969 331.799L297.508 335.56Z"
                fill="#1E91CF"/>
        <path
                d="M297.508 347.497C297.835 347.661 298.162 348.315 298.162 348.642V355.02C298.162 355.51 297.835 355.674 297.508 355.347L290.969 351.586C290.642 351.422 290.315 350.768 290.315 350.441V344.063C290.315 343.573 290.642 343.409 290.969 343.736L297.508 347.497Z"
                fill="#1E91CF"/>
        <path
                d="M308.95 342.428C309.277 342.592 309.604 343.246 309.604 343.573V349.95C309.604 350.441 309.277 350.604 308.95 350.277L302.412 346.516C302.085 346.353 301.758 345.699 301.758 345.372V338.994C301.758 338.503 302.085 338.34 302.412 338.667L308.95 342.428Z"
                fill="#D7D7D7"/>
        <path
                d="M308.95 354.366C309.277 354.529 309.604 355.183 309.604 355.51V361.888C309.604 362.379 309.277 362.542 308.95 362.215L302.412 358.454C302.085 358.29 301.758 357.636 301.758 357.309V350.932C301.758 350.441 302.085 350.277 302.412 350.605L308.95 354.366Z"
                fill="#1E91CF"/>
        <path
                d="M320.393 349.133C320.72 349.296 321.047 349.95 321.047 350.277V356.655C321.047 357.146 320.72 357.309 320.393 356.982L313.854 353.221C313.527 353.057 313.2 352.403 313.2 352.076V345.699C313.2 345.208 313.527 345.044 313.854 345.372L320.393 349.133Z"
                fill="#1E91CF"/>
        <path
                d="M320.393 361.07C320.72 361.234 321.047 361.888 321.047 362.215V368.593C321.047 369.083 320.72 369.247 320.393 368.92L313.854 365.159C313.527 364.995 313.2 364.341 313.2 364.014V357.636C313.2 357.146 313.527 356.982 313.854 357.309L320.393 361.07Z"
                fill="#D7D7D7"/>
        <path
                d="M331.999 356.491C332.326 356.655 332.653 357.309 332.653 357.636V364.014C332.653 364.504 332.326 364.668 331.999 364.341L325.461 360.58C325.134 360.416 324.807 359.762 324.807 359.435V353.057C324.807 352.567 325.134 352.403 325.461 352.73L331.999 356.491Z"
                fill="#D7D7D7"/>
        <path
                d="M331.999 368.429C332.326 368.593 332.653 369.247 332.653 369.574V375.951C332.653 376.442 332.326 376.606 331.999 376.279L325.461 372.517C325.134 372.354 324.807 371.7 324.807 371.373V364.995C324.807 364.505 325.134 364.341 325.461 364.668L331.999 368.429Z"
                fill="#1E91CF"/>
        <path
                d="M343.442 363.196C343.768 363.36 344.095 364.014 344.095 364.341V370.718C344.095 371.209 343.768 371.373 343.442 371.045L336.903 367.284C336.576 367.121 336.249 366.467 336.249 366.14V359.762C336.249 359.271 336.576 359.108 336.903 359.435L343.442 363.196Z"
                fill="#D7D7D7"/>
        <path
                d="M343.442 375.134C343.768 375.297 344.095 375.952 344.095 376.279V382.656C344.095 383.147 343.768 383.31 343.442 382.983L336.903 379.222C336.576 379.059 336.249 378.404 336.249 378.077V371.7C336.249 371.209 336.576 371.046 336.903 371.373L343.442 375.134Z"
                fill="#1E91CF"/>
        <path
                d="M286.066 210.624C286.392 210.788 286.719 211.442 286.719 211.769V218.147C286.719 218.637 286.392 218.801 286.066 218.474L279.527 214.713C279.2 214.549 278.873 213.895 278.873 213.568V207.19C278.873 206.7 279.2 206.536 279.527 206.863L286.066 210.624Z"
                fill="#1E91CF"/>
        <path
                d="M286.066 222.562C286.392 222.726 286.719 223.38 286.719 223.707V230.084C286.719 230.575 286.392 230.738 286.066 230.411L279.527 226.65C279.2 226.487 278.873 225.833 278.873 225.505V219.128C278.873 218.637 279.2 218.474 279.527 218.801L286.066 222.562Z"
                fill="#1E91CF"/>
        <path
                d="M297.508 217.329C297.835 217.492 298.162 218.147 298.162 218.474V224.851C298.162 225.342 297.835 225.505 297.508 225.178L290.969 221.417C290.642 221.254 290.315 220.6 290.315 220.272V213.895C290.315 213.404 290.642 213.241 290.969 213.568L297.508 217.329Z"
                fill="#D7D7D7"/>
        <path
                d="M297.508 229.267C297.835 229.43 298.162 230.084 298.162 230.411V236.789C298.162 237.279 297.835 237.443 297.508 237.116L290.969 233.355C290.642 233.191 290.315 232.537 290.315 232.21V225.832C290.315 225.342 290.642 225.178 290.969 225.505L297.508 229.267Z"
                fill="#1E91CF"/>
        <path
                d="M308.95 224.197C309.277 224.361 309.604 225.015 309.604 225.342V231.72C309.604 232.21 309.277 232.374 308.95 232.047L302.412 228.285C302.085 228.122 301.758 227.468 301.758 227.141V220.763C301.758 220.273 302.085 220.109 302.412 220.436L308.95 224.197Z"
                fill="#1E91CF"/>
        <path
                d="M308.95 236.135C309.277 236.298 309.604 236.952 309.604 237.279V243.657C309.604 244.148 309.277 244.311 308.95 243.984L302.412 240.223C302.085 240.059 301.758 239.405 301.758 239.078V232.701C301.758 232.21 302.085 232.047 302.412 232.374L308.95 236.135Z"
                fill="#D7D7D7"/>
        <path
                d="M320.393 231.065C320.72 231.229 321.047 231.883 321.047 232.21V238.588C321.047 239.078 320.72 239.242 320.393 238.915L313.854 235.154C313.527 234.99 313.2 234.336 313.2 234.009V227.631C313.2 227.141 313.527 226.977 313.854 227.304L320.393 231.065Z"
                fill="#D7D7D7"/>
        <path
                d="M320.393 243.003C320.72 243.167 321.047 243.821 321.047 244.148V250.525C321.047 251.016 320.72 251.179 320.393 250.852L313.854 247.091C313.527 246.928 313.2 246.274 313.2 245.947V239.569C313.2 239.078 313.527 238.915 313.854 239.242L320.393 243.003Z"
                fill="#D7D7D7"/>
        <path
                d="M331.999 238.261C332.326 238.424 332.653 239.078 332.653 239.405V245.783C332.653 246.273 332.326 246.437 331.999 246.11L325.461 242.349C325.134 242.185 324.807 241.531 324.807 241.204V234.827C324.807 234.336 325.134 234.172 325.461 234.499L331.999 238.261Z"
                fill="#1E91CF"/>
        <path
                d="M331.999 250.198C332.326 250.362 332.653 251.016 332.653 251.343V257.721C332.653 258.211 332.326 258.375 331.999 258.048L325.461 254.286C325.134 254.123 324.807 253.469 324.807 253.142V246.764C324.807 246.274 325.134 246.11 325.461 246.437L331.999 250.198Z"
                fill="#1E91CF"/>
        <path
                d="M343.442 245.129C343.768 245.292 344.095 245.946 344.095 246.273V252.651C344.095 253.142 343.768 253.305 343.442 252.978L336.903 249.217C336.576 249.053 336.249 248.399 336.249 248.072V241.695C336.249 241.204 336.576 241.041 336.903 241.368L343.442 245.129Z"
                fill="#1E91CF"/>
        <path
                d="M343.442 257.066C343.768 257.23 344.095 257.884 344.095 258.211V264.589C344.095 265.079 343.768 265.243 343.442 264.916L336.903 261.155C336.576 260.991 336.249 260.337 336.249 260.01V253.632C336.249 253.142 336.576 252.978 336.903 253.305L343.442 257.066Z"
                fill="#D7D7D7"/>
        <path
                d="M386.27 262.953C387.578 263.608 388.395 265.406 388.395 266.878V293.533C388.395 295.005 387.415 295.496 386.107 294.841C384.799 294.187 383.818 292.389 383.818 290.917V264.262C383.982 262.79 384.963 262.299 386.27 262.953Z"
                fill="#D7D7D7"/>
        <path
                d="M377.933 258.048C379.241 258.702 380.058 260.501 380.058 261.972V288.627C380.058 290.099 379.078 290.59 377.77 289.936C376.462 289.282 375.481 287.483 375.481 286.011V259.356C375.645 257.884 376.626 257.393 377.933 258.048Z"
                fill="#D7D7D7"/>
        <path
                d="M369.597 253.142C370.904 253.796 371.722 255.595 371.722 257.066V283.722C371.722 285.193 370.741 285.684 369.433 285.03C368.125 284.376 367.145 282.577 367.145 281.105V254.45C367.308 252.978 368.289 252.488 369.597 253.142Z"
                fill="#D7D7D7"/>
        <path
                d="M361.097 248.236C362.404 248.89 363.222 250.689 363.222 252.161V278.816C363.222 280.287 362.241 280.778 360.933 280.124C359.625 279.47 358.645 277.671 358.645 276.199V249.544C358.971 248.072 359.952 247.582 361.097 248.236Z"
                fill="#D7D7D7"/>
        <path
                d="M386.27 386.254C387.578 386.908 388.395 388.707 388.395 390.179V416.834C388.395 418.305 387.415 418.796 386.107 418.142C384.799 417.488 383.818 415.689 383.818 414.217V387.562C383.982 386.09 384.963 385.6 386.27 386.254Z"
                fill="#D7D7D7"/>
        <path
                d="M377.933 381.348C379.241 382.002 380.058 383.801 380.058 385.273V411.928C380.058 413.4 379.078 413.89 377.77 413.236C376.462 412.582 375.481 410.783 375.481 409.311V382.656C375.645 381.184 376.626 380.694 377.933 381.348Z"
                fill="#D7D7D7"/>
        <path
                d="M369.597 376.442C370.904 377.096 371.722 378.895 371.722 380.367V407.022C371.722 408.494 370.741 408.984 369.433 408.33C368.125 407.676 367.145 405.877 367.145 404.405V377.75C367.308 376.279 368.289 375.788 369.597 376.442Z"
                fill="#D7D7D7"/>
        <path
                d="M361.097 371.536C362.404 372.19 363.222 373.989 363.222 375.461V402.116C363.222 403.588 362.241 404.078 360.933 403.424C359.625 402.77 358.645 400.971 358.645 399.5V372.845C358.971 371.373 359.952 370.882 361.097 371.536Z"
                fill="#D7D7D7"/>
        <path
                d="M386.27 449.539C387.578 450.193 388.395 451.992 388.395 453.464V480.119C388.395 481.591 387.415 482.081 386.107 481.427C384.799 480.773 383.818 478.974 383.818 477.502V450.847C383.982 449.539 384.963 448.885 386.27 449.539Z"
                fill="#D7D7D7"/>
        <path
                d="M377.933 444.797C379.241 445.451 380.058 447.25 380.058 448.722V475.377C380.058 476.848 379.078 477.339 377.77 476.685C376.462 476.031 375.481 474.232 375.481 472.76V446.105C375.645 444.633 376.626 443.979 377.933 444.797Z"
                fill="#D7D7D7"/>
        <path
                d="M369.597 439.891C370.904 440.545 371.722 442.344 371.722 443.816V470.471C371.722 471.943 370.741 472.433 369.433 471.779C368.125 471.125 367.145 469.326 367.145 467.854V441.199C367.308 439.728 368.289 439.073 369.597 439.891Z"
                fill="#D7D7D7"/>
        <path
                d="M361.097 434.985C362.404 435.639 363.222 437.438 363.222 438.91V465.565C363.222 467.037 362.241 467.527 360.933 466.873C359.625 466.219 358.645 464.42 358.645 462.949V436.293C358.971 434.822 359.952 434.168 361.097 434.985Z"
                fill="#D7D7D7"/>
        <path
                d="M514.264 226.487C512.956 227.141 512.139 228.94 512.139 230.411V257.066C512.139 258.538 513.12 259.029 514.427 258.375C515.735 257.721 516.716 255.922 516.716 254.45V227.795C516.552 226.323 515.571 225.833 514.264 226.487Z"
                fill="#D7D7D7"/>
        <path
                d="M522.601 221.581C521.293 222.235 520.476 224.034 520.476 225.505V252.161C520.476 253.632 521.456 254.123 522.764 253.469C524.072 252.815 525.053 251.016 525.053 249.544V222.889C524.889 221.417 523.908 220.927 522.601 221.581Z"
                fill="#D7D7D7"/>
        <path
                d="M530.938 216.675C529.63 217.329 528.812 219.128 528.812 220.6V247.255C528.812 248.726 529.793 249.217 531.101 248.563C532.409 247.909 533.39 246.11 533.39 244.638V217.983C533.226 216.511 532.245 216.021 530.938 216.675Z"
                fill="#D7D7D7"/>
        <path
                d="M539.274 211.769C537.967 212.423 537.149 214.222 537.149 215.694V242.349C537.149 243.821 538.13 244.311 539.438 243.657C540.746 243.003 541.726 241.204 541.726 239.732V213.077C541.563 211.606 540.582 211.115 539.274 211.769Z"
                fill="#D7D7D7"/>
        <path
                d="M280.344 272.275C279.526 271.784 278.709 270.476 278.709 269.495C278.872 270.476 279.526 271.784 280.344 272.275Z"
                fill="#1E91CF"/>
        <path
                d="M288.353 273.092C289.171 273.583 289.988 274.891 289.988 275.872C289.988 276.853 289.334 277.344 288.353 276.853L280.344 272.274C279.526 271.784 278.709 270.476 278.709 269.495C278.709 268.513 279.363 268.023 280.344 268.513L288.353 273.092Z"
                fill="#1E91CF"/>
        <path
                d="M280.344 280.451C279.526 279.96 278.709 278.652 278.709 277.671C278.872 278.652 279.526 279.797 280.344 280.451Z"
                fill="#1E91CF"/>
        <path
                d="M282.469 277.835C283.287 278.325 284.104 279.633 284.104 280.615C284.104 281.596 283.45 282.086 282.469 281.596L280.508 280.287C279.69 279.797 278.873 278.489 278.873 277.508C278.873 276.526 279.527 276.036 280.508 276.526L282.469 277.835Z"
                fill="#1E91CF"/>
        <path
                d="M292.114 291.407C292.931 291.898 293.748 293.206 293.748 294.187C293.748 295.169 293.095 295.659 292.114 295.169L280.508 288.464C279.69 287.973 278.873 286.665 278.873 285.684C278.873 284.703 279.527 284.212 280.508 284.703L292.114 291.407Z"
                fill="#1E91CF"/>
        <path
                d="M301.431 288.954C302.248 289.445 303.066 290.753 303.066 291.734C303.066 292.716 302.412 293.206 301.431 292.716L288.19 285.03C287.373 284.539 286.556 283.231 286.556 282.25C286.556 281.269 287.21 280.778 288.19 281.269L301.431 288.954Z"
                fill="#D7D7D7"/>
        <path
                d="M299.633 295.823C300.45 296.313 301.267 297.621 301.267 298.603C301.267 299.584 300.613 300.074 299.633 299.584L297.998 298.603C297.181 298.112 296.363 296.804 296.363 295.823C296.363 294.841 297.017 294.351 297.998 294.841L299.633 295.823Z"
                fill="#1E91CF"/>
        <path
                d="M296.854 277.998C297.671 278.489 298.488 279.797 298.488 280.778C298.488 281.759 297.835 282.25 296.854 281.759L294.565 280.451C293.748 279.96 292.931 278.652 292.931 277.671C292.931 276.69 293.585 276.199 294.565 276.69L296.854 277.998Z"
                fill="#1E91CF"/>
        <path
                d="M307.806 284.376C308.623 284.866 309.441 286.174 309.441 287.156C309.441 288.137 308.787 288.627 307.806 288.137L303.065 285.357C302.248 284.866 301.431 283.558 301.431 282.577C301.431 281.596 302.085 281.105 303.065 281.596L307.806 284.376Z"
                fill="#1E91CF"/>
        <path
                d="M314.835 292.389C314.018 291.898 313.2 290.59 313.2 289.609C313.364 290.753 314.018 291.898 314.835 292.389Z"
                fill="#D7D7D7"/>
        <path
                d="M322.845 293.37C323.662 293.86 324.479 295.169 324.479 296.15C324.479 297.131 323.825 297.621 322.845 297.131L314.835 292.552C314.018 292.061 313.2 290.753 313.2 289.772C313.2 288.791 313.854 288.3 314.835 288.791L322.845 293.37Z"
                fill="#D7D7D7"/>
        <path
                d="M314.835 300.565C314.018 300.074 313.2 298.766 313.2 297.785C313.364 298.766 314.018 300.074 314.835 300.565Z"
                fill="#1E91CF"/>
        <path
                d="M316.96 298.112C317.777 298.603 318.595 299.911 318.595 300.892C318.595 301.873 317.941 302.364 316.96 301.873L308.133 296.64C307.315 296.15 306.498 294.841 306.498 293.86C306.498 292.879 307.152 292.389 308.133 292.879L316.96 298.112Z"
                fill="#1E91CF"/>
        <path
                d="M326.605 311.521L314.999 304.817L306.172 299.584C305.354 299.093 304.537 299.42 304.537 300.565C304.537 301.546 305.191 302.854 306.172 303.345L314.999 308.578L326.605 315.282C327.422 315.773 328.24 315.446 328.24 314.301C328.24 313.32 327.422 312.012 326.605 311.521Z"
                fill="#D7D7D7"/>
        <path
                d="M342.297 312.666C343.115 313.157 343.932 314.465 343.932 315.446C343.932 316.427 343.278 316.918 342.297 316.427L322.682 305.144C321.864 304.653 321.047 303.345 321.047 302.364C321.047 301.383 321.701 300.892 322.682 301.383L342.297 312.666Z"
                fill="#1E91CF"/>
        <path
                d="M342.297 320.679C343.114 321.17 343.932 322.478 343.932 323.459C343.932 324.44 343.278 324.931 342.297 324.44L340.499 323.459C339.682 322.968 338.864 321.66 338.864 320.679C338.864 319.698 339.518 319.207 340.499 319.698L342.297 320.679Z"
                fill="#D7D7D7"/>
        <path
                d="M334.124 316.1C334.941 316.591 335.758 317.899 335.758 318.88C335.758 319.861 335.105 320.352 334.124 319.861L332.489 318.88C331.672 318.389 330.854 317.081 330.854 316.1C330.854 315.119 331.508 314.628 332.489 315.119L334.124 316.1Z"
                fill="#1E91CF"/>
        <path
                d="M331.345 298.276C332.162 298.766 332.98 300.074 332.98 301.056C332.98 302.037 332.326 302.527 331.345 302.037L329.057 300.729C328.239 300.238 327.422 298.93 327.422 297.949C327.422 296.967 328.076 296.477 329.057 296.967L331.345 298.276Z"
                fill="#1E91CF"/>
        <path
                d="M342.297 304.653C343.114 305.144 343.932 306.452 343.932 307.433C343.932 308.414 343.278 308.905 342.297 308.414L337.557 305.634C336.739 305.144 335.922 303.836 335.922 302.854C335.922 301.873 336.576 301.383 337.557 301.873L342.297 304.653Z"
                fill="#D7D7D7"/>
        <path
                d="M332.49 434.985C332.653 435.149 332.817 435.312 332.817 435.639V438.91C332.817 439.073 332.653 439.237 332.49 439.073L322.845 433.35C322.682 433.186 322.519 433.023 322.519 432.696V429.425C322.519 429.262 322.682 429.098 322.845 429.262L332.49 434.985Z"
                fill="#D7D7D7"/>
        <path
                d="M613.651 394.757L552.188 359.272C552.188 360.743 552.188 361.888 552.188 362.379C552.188 363.36 551.861 364.341 551.371 365.322L610.872 399.663C615.776 402.443 618.392 406.041 618.392 409.638C618.392 413.236 615.776 416.833 611.036 419.613L438.252 520.02C433.021 523.127 425.829 524.762 418.31 524.762C410.627 524.762 403.598 523.127 398.203 520.02L204.496 408.166C199.592 405.387 196.977 401.789 196.977 398.191C196.977 394.594 199.592 390.996 204.333 388.216L270.046 349.95C270.046 348.152 270.046 345.862 270.046 343.409L201.554 383.31C195.015 387.071 191.419 392.468 191.419 398.028C191.419 403.751 195.179 408.984 201.717 412.909L395.424 524.926C401.636 528.523 409.646 530.486 418.31 530.486C426.81 530.486 434.983 528.523 441.031 524.926L613.815 424.519C620.353 420.758 623.95 415.362 623.95 409.802C623.95 403.915 620.353 398.682 613.651 394.757Z"
                fill="#1E91CF"/>
        <path
                d="M613.651 349.46L544.341 309.395L542.87 310.213C542.87 310.704 542.87 311.194 542.87 311.685L546.303 313.647C549.409 315.446 551.37 317.735 552.024 320.188L611.035 354.202C615.939 356.982 618.555 360.58 618.555 364.177C618.555 367.775 615.939 371.373 611.199 374.153L438.415 474.559C433.185 477.666 425.992 479.301 418.473 479.301C410.79 479.301 403.761 477.666 398.366 474.559L204.659 362.706C199.755 359.926 197.14 356.328 197.14 352.73C197.14 349.133 199.755 345.535 204.496 342.755L276.584 300.892L276.094 300.565C274.296 299.584 272.988 298.276 272.007 297.131L201.717 338.013C195.178 341.774 191.582 347.17 191.582 352.73C191.582 358.454 195.342 363.687 201.88 367.611L395.587 479.465C401.799 483.062 409.809 485.025 418.473 485.025C426.973 485.025 435.146 483.062 441.194 479.465L613.978 379.058C620.516 375.297 624.113 369.901 624.113 364.341C623.949 358.617 620.353 353.221 613.651 349.46Z"
                fill="#1E91CF"
                opacity="0.6"/>
        <path
                d="M613.651 301.055L552.188 265.57C552.188 267.369 552.188 269.658 552.188 271.947L610.872 305.798C615.776 308.578 618.392 312.175 618.392 315.773C618.392 319.371 615.776 322.968 611.036 325.748L438.252 426.155C433.021 429.262 425.829 430.897 418.31 430.897C410.627 430.897 403.598 429.262 398.203 426.155L204.496 314.301C199.592 311.521 196.977 307.924 196.977 304.326C196.977 300.728 199.592 297.131 204.333 294.351L270.046 256.085C270.046 253.959 270.046 252.651 270.046 251.997C270.046 251.016 270.209 250.198 270.7 249.217L201.554 289.445C195.015 293.206 191.419 298.603 191.419 304.162C191.419 309.886 195.179 315.119 201.717 319.044L395.424 430.897C401.636 434.494 409.646 436.457 418.31 436.457C426.81 436.457 434.983 434.494 441.031 430.897L613.815 330.491C620.353 326.729 623.95 321.333 623.95 315.773C623.95 310.05 620.353 304.817 613.651 301.055Z"
                fill="#1E91CF"
                opacity="0.25"/>
        <path
                d="M345.893 58.3796C345.24 58.2161 344.586 58.3796 344.095 58.7066L330.854 66.3925C331.345 66.0654 331.835 66.0654 332.653 66.0654C337.393 66.7195 341.807 66.7195 346.384 64.1031L359.624 56.4173C355.047 59.0337 350.634 59.0337 345.893 58.3796Z"
                fill="#1E91CF"/>
        <path
                d="M413.078 194.762L426.319 187.076C446.098 175.629 454.435 153.226 457.868 133.276L444.627 140.961C441.358 160.912 432.858 183.152 413.078 194.762Z"
                fill="white"/>
        <path
                d="M333.306 66.2289C344.422 68.0277 352.595 62.1407 355.374 50.6937C355.865 48.4043 357.663 47.5867 359.951 48.4043C370.413 52.329 381.202 57.3984 392.154 63.776C403.76 70.4807 415.366 78.33 426.482 87.1605C428.607 88.9593 430.405 91.9029 431.059 94.6828C433.838 109.237 442.011 124.445 452.963 135.401L453.781 136.219C455.906 138.345 457.214 141.452 456.887 143.905L456.723 144.722C452.637 174.975 438.905 211.933 396.077 216.838C395.097 217.002 393.952 216.675 392.808 216.021C391.664 215.367 390.52 214.386 389.539 213.077C346.874 158.786 333.306 105.966 329.383 71.2983L329.22 70.3171C328.893 67.5371 330.201 65.9019 332.326 66.2289H333.306Z"
                fill="white"/>
        <path
                d="M470.128 136.056C470.455 133.439 468.984 130.332 467.022 128.37C440.214 99.0982 448.714 86.3429 439.887 79.3112C428.608 70.4807 417.002 62.6314 405.559 55.9267C401.799 53.8008 374.01 38.4292 370.251 40.555C365.837 43.1715 361.423 45.7879 357.01 48.2409C360.769 46.115 388.395 61.3231 392.318 63.6125C397.876 66.8831 427.137 84.5441 430.406 91.9029C430.569 92.0664 430.569 92.23 430.733 92.557C431.714 95.1735 432.041 100.733 436.454 110.545C447.079 134.42 458.195 135.074 456.887 144.395C453.782 167.616 444.954 194.762 421.579 208.499L434.82 200.813C456.56 188.221 468.167 159.767 470.128 136.056Z"
                fill="#1E91CF"/>
        <path
                d="M449.858 138.345C448.387 137.527 447.079 138.181 447.079 139.98C447.079 141.779 448.223 143.905 449.858 144.723C451.329 145.54 452.637 144.886 452.637 143.087C452.473 141.288 451.329 139.163 449.858 138.345Z"
                fill="#1E91CF"/>
        <path
                d="M426.156 90.9217C424.685 90.1041 423.377 90.7582 423.377 92.557C423.377 94.3558 424.521 96.4817 426.156 97.2993C427.627 98.117 428.935 97.4629 428.935 95.664C428.771 93.8652 427.627 91.7394 426.156 90.9217Z"
                fill="#1E91CF"/>
        <path
                d="M335.268 71.1348C333.797 70.3171 332.489 70.9712 332.489 72.77C332.489 74.5689 333.634 76.6947 335.268 77.5124C336.739 78.33 338.047 77.6759 338.047 75.8771C337.884 74.2418 336.739 72.1159 335.268 71.1348Z"
                fill="#1E91CF"/>
        <path
                d="M361.096 52.9832C359.625 52.1656 358.317 52.8197 358.317 54.6185C358.317 56.4173 359.462 58.5432 361.096 59.3608C362.567 60.1784 363.875 59.5243 363.875 57.7255C363.712 55.9267 362.567 53.8008 361.096 52.9832Z"
                fill="#1E91CF"/>
        <path
                d="M393.135 205.555C391.664 204.737 390.356 205.391 390.356 207.19C390.356 208.989 391.501 211.115 393.135 211.933C394.607 212.75 395.914 212.096 395.914 210.297C395.914 208.498 394.607 206.373 393.135 205.555Z"
                fill="#1E91CF"/>
        <path
                d="M392.972 201.63C427.627 196.234 440.377 166.635 444.627 140.798C433.511 128.043 425.011 112.017 421.088 96.1546C411.607 88.9594 401.799 82.4182 392.154 76.8583C383.164 71.6254 374.01 67.2101 365.51 63.776C361.586 75.223 352.923 81.4371 341.644 81.2735C345.894 112.18 358.317 156.169 392.972 201.63Z"
                fill="#D7D7D7"/>
        <path
                d="M361.096 52.9832C359.625 52.1656 358.317 52.8197 358.317 54.6185C358.317 56.4173 359.462 58.5432 361.096 59.3608C362.567 60.1784 363.875 59.5243 363.875 57.7255C363.712 55.9267 362.567 53.8008 361.096 52.9832Z"
                fill="#1E91CF"/>
    </g>
</svg>
