<svg fill="none" height="317" viewBox="0 0 420 317" width="420" xmlns="http://www.w3.org/2000/svg">
    <path
            d="M53.045 293.458s-52.93-38.86-10.737-93.382c42.192-54.522 28.187-58.846 16.515-99.927-11.672-41.081 9.162-112.375 71.371-98.35 62.268 14.025 57.016 44.821 96.699 30.563 39.683-14.2 107.378-20.453 112.63 45.756 5.252 66.209 1.167 92.506 23.927 121.14 22.759 28.634 17.507 86.954-5.836 95.486l-304.568-1.286z"
            fill="#fff" fill-opacity=".2"/>
    <path
            d="M418.599 298.776l-417.198-.877c-.76 0-1.401-.935-1.401-2.162 0-1.168.642-2.162 1.4-2.162l417.199.877c.759 0 1.401.935 1.401 2.162 0 1.169-.642 2.162-1.401 2.162zm-200.222 17.999H102.245c-.759 0-1.401-.935-1.401-2.163 0-1.168.642-2.162 1.401-2.162h116.19c.759 0 1.401.935 1.401 2.162-.059 1.169-.701 2.163-1.459 2.163zm168.826 0H262.142c-.758 0-1.4-.935-1.4-2.163 0-1.168.642-2.162 1.4-2.162h125.061c.758 0 1.4.935 1.4 2.162 0 1.169-.642 2.163-1.4 2.163z"
            fill="#fff" fill-opacity=".3"/>
    <path d="M276.844 178.279H130.133v90.402h146.711v-90.402z" fill="#fff"/>
    <path
            d="M275.156 166.942H131.829c-7.178 0-13.014 5.844-13.014 12.973v102.849a2.804 2.804 0 002.802 2.805h163.634a2.804 2.804 0 002.802-2.805V179.915c.116-7.129-5.719-12.973-12.897-12.973zm-145.019 98.934v-84.734a2.804 2.804 0 012.801-2.805h141.05a2.804 2.804 0 012.802 2.805v84.734a2.804 2.804 0 01-2.802 2.805h-141.05c-1.517 0-2.801-1.286-2.801-2.805z"
            fill="#5277BE"/>
    <path
            d="M290.968 279.959H116.012a2.804 2.804 0 00-2.801 2.805c0 6.253 5.077 11.337 11.321 11.337h157.974c6.245 0 11.322-5.084 11.322-11.337-.059-1.519-1.284-2.805-2.86-2.805z"
            fill="#3861B4"/>
    <path
            d="M210.785 197.446L206 192.245l-4.844 5.201c-8.112 8.474-8.17 22.382-.058 30.913l4.785 5.201 4.844-5.201c8.111-8.531 8.111-22.381.058-30.913z"
            fill="#fff"/>
    <path
            d="M242.183 220.12c.759-2.688.993-5.61.993-8.298 0-6.954-1.868-13.499-5.369-19.343-6.536-10.811-18.441-18.174-31.98-18.232-13.481-.059-25.444 7.304-32.039 18.057-3.268 5.61-5.427 12.33-5.427 19.284 0 2.688.35 5.785.934 8.298-10.388-9.7-17.099-23.784-17.041-39.211 0-12.33 4.085-23.375 10.855-32.433 9.862-12.914 25.327-20.979 42.659-20.92 17.332.058 32.972 8.356 42.543 21.154 6.711 9.116 10.913 20.278 10.738 32.433.35 15.485-6.478 29.569-16.866 39.211z"
            fill="#3861B4"/>
    <path
            d="M225.433 203.641c27.662-38.335 23.752-91.045-12.255-125.29l-7.12-6.778-7.119 6.72c-36.124 34.069-40.325 86.779-12.839 125.231l39.333.117z"
            fill="#5276BE"/>
    <path
            d="M175.367 184.239c2.86 6.779 6.536 13.149 10.738 19.343l38.925.117c4.435-5.961 7.936-12.506 10.854-19.284l-60.517-.176zm57.597-79.766c-5.019-9.291-11.496-18.174-19.783-26.121l-7.12-6.779-7.12 6.72a105.335 105.335 0 00-19.899 26.005l53.922.175z"
            fill="#fff"/>
    <path
            d="M186.103 203.582c1.517 2.338 3.443 4.617 5.194 6.779l28.537.058c1.926-2.337 3.676-4.441 5.194-6.72l-38.925-.117z"
            fill="#3861B4"/>
    <path
            d="M226.833 135.747c.027-11.619-9.357-21.06-20.96-21.087-11.603-.027-21.031 9.37-21.058 20.989-.027 11.618 9.358 21.059 20.96 21.086 11.603.027 21.031-9.37 21.058-20.988z"
            fill="#fff"/>
    <path
            d="M214.813 147.34c6.423-4.977 7.602-14.226 2.632-20.658-4.97-6.432-14.206-7.613-20.63-2.636-6.424 4.977-7.602 14.225-2.632 20.658 4.97 6.432 14.206 7.612 20.63 2.636z"
            fill="#3861B4"/>
    <path
            d="M217.322 252.961c3.734 0 6.886-3.038 6.886-6.778v-.059c0-7.772-6.186-14.083-13.831-14.375-3.21-6.136-9.571-10.344-16.982-10.344-1.868 0-3.677.293-5.369.76a19.11 19.11 0 00-12.197-4.383c-10.212 0-18.557 8.006-19.083 18.116-5.252 2.162-8.987 7.304-8.987 13.323v.059c0 2.045 1.693 3.74 3.735 3.74h65.828v-.059z"
            fill="#7794CE"/>
    <path
            d="M189.546 252.961c-3.735 0-6.886-3.038-6.886-6.778v-.059c0-7.772 6.186-14.083 13.83-14.375 3.21-6.136 9.571-10.344 16.982-10.344 1.868 0 3.677.293 5.369.76a19.114 19.114 0 0112.197-4.383c10.213 0 18.558 8.006 19.083 18.116 5.252 2.162 8.987 7.304 8.987 13.323v.059c0 2.045-1.692 3.74-3.735 3.74h-65.827v-.059z"
            fill="#5277BE"/>
    <path
            d="M191.821 266.986l-1.167 5.493c-.35 1.695.233 3.448 1.576 4.558l4.318 3.682 2.743-2.279-2.918-4.5 1.751-4.207-6.303-2.747zm24.978 2.455l5.661-2.396 1.401 5.668a4.712 4.712 0 01-1.401 4.617l-4.377 3.973v-7.421l-1.284-4.441z"
            fill="#FBD5BF"/>
    <path
            d="M204.076 257.811l3.035 4.383 2.392-4.383 5.428.526a5.689 5.689 0 014.552 3.098l2.917 5.61-5.66 2.395 1.284 3.214v8.649l-11.438 5.318-7.237-4.091-3.034-8.531 1.75-4.208-6.302-2.746 3.735-5.961c.875-1.461 2.392-2.396 4.085-2.63l4.493-.643z"
            fill="#5277BE"/>
    <path d="M194.857 282.472v-9.817h24.861v9.817l-13.072 4.149-11.789-4.149z" fill="#5276BE"/>
    <path
            d="M218.899 293.458s-24.802-2.746-33.555-7.246c-8.754-4.5.642-8.883 8.695-6.311 8.053 2.571 24.802 8.882 24.802 8.882v4.675h.058z"
            fill="#fff"/>
    <path
            d="M195.966 293.458l-.583-3.915s28.478-13.032 36.24-9c7.761 4.033-12.897 11.454-35.657 12.915z"
            fill="#fff"/>
    <path
            d="M195.439 289.543l.584 3.974s-10.213 1.285-11.03.876c-.817-.409-3.443-2.162-1.751-3.857 1.634-1.753 9.863-1.811 12.197-.993zm23.752.35l-.584 3.799s10.213 1.285 11.03.876c.817-.409 3.443-2.162 1.75-3.856-1.634-1.695-9.862-1.578-12.196-.819z"
            fill="#5276BE"/>
    <path d="M204.077 257.812l3.035 5.2 2.392-5.2v-3.74h-5.427v3.74z" fill="#FBD5BF"/>
    <path
            d="M205.593 256.234s-3.793-2.396-4.26-5.376c-.408-2.981-.408-5.377.584-5.61.992-.234 7.645-1.753 7.995-1.52.408.176 1.75 3.974 1.809 5.376.117 2.747-2.801 6.954-3.677 7.422-.817.409-2.451-.292-2.451-.292z"
            fill="#FBD5BF"/>
    <path
            d="M201.391 251.208s-1.459-2.045-1.692-4.383c-.233-2.337.817-4.558 1.692-5.025 5.019-2.396 6.945.643 11.205-.994 0 0-.408 1.87-.817 2.981-.817 2.162-.292 3.856-.292 3.856s-1.342-2.103-2.451-2.454c-1.109-.35-5.31 1.052-6.302 0 0 .059-1.926.351-1.343 6.019z"
            fill="#fff"/>
    <path d="M329.954 272.596l5.66 21.797h17.332l5.194-21.797h-28.186z" fill="#5776B3"/>
    <path
            d="M357.615 246.066a6.768 6.768 0 00-3.035-5.669c2.043-2.571 1.634-6.369-.934-8.415-1.05-.876-2.392-1.285-3.735-1.285h-.233c.934-3.156-.817-6.487-3.968-7.48a6.026 6.026 0 00-7.47 3.974 5.79 5.79 0 000 3.447h-.234a5.945 5.945 0 00-5.952 5.961 6.17 6.17 0 001.284 3.74c-3.151 2.104-3.968 6.37-1.868 9.525.467.76 1.109 1.344 1.868 1.87-2.043 2.571-1.634 6.37.934 8.415 1.05.877 2.392 1.286 3.734 1.286h11.964a5.944 5.944 0 005.952-5.961 6.17 6.17 0 00-1.284-3.74 6.854 6.854 0 002.977-5.668z"
            fill="#5277BE"/>
    <path
            d="M350.554 242.034a.845.845 0 00-1.226 0l-4.493 4.499v-12.505a.899.899 0 00-.876-.877.898.898 0 00-.875.877v6.136l-3.91-3.916c-.35-.35-.876-.292-1.226 0-.291.351-.291.877 0 1.169l5.077 5.084v11.688l-3.676-3.682c-.35-.351-.875-.292-1.226 0-.291.351-.291.877 0 1.169l4.902 4.908v15.895c0 .468.409.877.876.877a.898.898 0 00.875-.877v-23.55c.059-.058.117-.058.175-.117l5.544-5.551a.906.906 0 00.059-1.227z"
            fill="#fff"/>
    <path
            d="M358.491 273.414h-29.062a.898.898 0 01-.875-.876c0-.468.408-.877.875-.877h29.062c.467 0 .876.409.876.877-.059.526-.409.876-.876.876z"
            fill="#fff"/>
    <path d="M54.443 271.953l5.661 21.856h17.274l5.252-21.856H54.443z" fill="#5776B3"/>
    <path
            d="M82.104 245.481a6.766 6.766 0 00-3.034-5.668c2.042-2.571 1.634-6.37-.934-8.415-1.05-.877-2.393-1.286-3.735-1.286h-.233a6.038 6.038 0 00-3.969-7.48 6.028 6.028 0 00-7.47 3.974 5.791 5.791 0 000 3.448h-.233a5.944 5.944 0 00-5.952 5.961 6.17 6.17 0 001.284 3.74c-3.152 2.103-3.969 6.369-1.868 9.525.467.759 1.109 1.344 1.868 1.87-2.043 2.571-1.634 6.369.933 8.415 1.05.876 2.393 1.285 3.735 1.285H74.46a5.944 5.944 0 005.952-5.96 6.17 6.17 0 00-1.284-3.74c1.81-1.286 2.976-3.39 2.976-5.669z"
            fill="#5277BE"/>
    <path
            d="M74.984 241.449a.846.846 0 00-1.225 0l-4.494 4.5v-12.506a.898.898 0 00-.875-.876.898.898 0 00-.876.876v6.078l-3.91-3.915c-.35-.351-.875-.293-1.225 0-.292.35-.292.876 0 1.168l5.077 5.084v11.688l-3.676-3.682c-.35-.35-.876-.292-1.226 0-.292.351-.292.877 0 1.169l4.902 4.909v15.894c0 .468.409.877.876.877a.898.898 0 00.875-.877v-23.491c.058-.059.117-.059.175-.117l5.544-5.552c.408-.35.408-.935.058-1.227z"
            fill="#fff"/>
    <path
            d="M82.923 272.83H53.919a.898.898 0 01-.875-.877c0-.467.408-.876.875-.876H82.98c.467 0 .875.409.875.876-.058.526-.408.877-.933.877zM285.719 55.27a2.28 2.28 0 010 4.557 2.28 2.28 0 01-2.276-2.279c-.058-1.285.992-2.279 2.276-2.279zm-40.267 26.237c1.05 0 1.925.877 1.925 1.929a1.944 1.944 0 01-1.925 1.928 1.944 1.944 0 01-1.926-1.928c0-1.052.817-1.929 1.926-1.929zm33.903-43.886l-4.902-.701-2.217-4.441a.718.718 0 00-.642-.41.718.718 0 00-.642.41l-2.218 4.441-4.902.701c-.583.059-.817.818-.408 1.227l3.56 3.448-.817 4.909c-.117.584.525 1.052 1.05.76l4.377-2.338c4.785 2.513 4.493 2.396 4.727 2.396a.839.839 0 00.408-.117c.234-.175.351-.467.292-.701l-.817-4.909 3.56-3.448c.467-.409.233-1.11-.409-1.227zm27.899 23.55l-2.976-2.922.758-4.09c.117-.526-.408-.877-.875-.643l-3.735 1.928-3.676-1.986c-.467-.234-.993.117-.876.642l.642 4.091-3.035 2.863c-.35.351-.175.994.351 1.052l4.143.643 1.809 3.74c.058.117.117.175.175.234.292.234.759.117.934-.234l1.867-3.74 4.144-.584c.525-.059.7-.643.35-.994z"
            fill="#fff"/>
    <path
            d="M265.002 105.408s-2.393-20.16-9.396-31.44c-.933-1.402-2.392-2.161-4.318-1.11-2.043 1.11-.934 3.273-.934 3.273 3.21 3.974 10.271 13.966 14.648 29.277zm38.576-14.492c.233-.176.467-.292.7-.41.876-.642 2.101-1.928.876-3.798-1.401-2.162-3.852-.701-4.202-.409-12.605 9.116-19.608 25.42-19.608 25.42 7.936-11.044 16.982-17.59 22.234-20.803zm-56.551 1.11c-.409-.292-2.685-1.812-3.852.117-.7 1.169-.35 2.22.876 2.922 4.143 2.513 11.496 7.772 17.915 16.654 0 0-5.31-12.388-14.939-19.693z"
            fill="#5276BE"/>
    <path
            d="M258.524 62.574c.116-.292 0-.292-1.868-2.104.467-2.63.525-2.63.292-2.805-.233-.175-.233-.117-2.568 1.11-2.334-1.285-2.334-1.344-2.567-1.168-.234.175-.175.175.233 2.805l-1.809 1.694c-.233.234-.117.585.175.643l2.451.35c1.167 2.397 1.109 2.455 1.401 2.455.291 0 .233-.058 1.459-2.396l2.451-.35c.233 0 .35-.117.35-.234z"
            fill="#fff"/>
    <path
            d="M274.745 54.217c-2.801-1.46-3.385-1.577-6.303 0-2.568 1.344-2.509 3.214-2.451 3.74 1.459 9.116 4.26 27.641 5.602 45.464 1.343-17.765 4.085-36.23 5.603-45.347.175-1.11.35-2.396-2.451-3.857zm20.6 17.239c.642-.876.467-1.578.35-1.87l-.758-1.52c-.35-.7-.934-.934-1.226-.993h-.117l-1.4-.233c-1.284-.176-2.043.935-2.101 1.051-8.228 14.493-12.605 38.101-12.605 38.101 5.777-16.946 13.305-28.517 17.857-34.536z"
            fill="#5276BE"/>
</svg>
